  0
SECTION
  2
HEADER
  9
$ACADVER
  1
AC1009
  9
$INSBASE
 10
0
 20
0
 30
0
  9
$EXTMIN
 10
0
 20
0
  9
$EXTMAX
 10
297
 20
210
  9
$LIMMIN
 10
0
 20
0
  9
$LIMMAX
 10
297
 20
210
  9
$LTSCALE
 40
1
  0
ENDSEC
  0
SECTION
  2
TABLES
  0
TABLE
  2
LTYPE
 70
     9
  0
LTYPE
  2
CONTINUOUS
 70
    64
  3
é¿ê¸
 72
    65
 73
     0
 40
0.0
  0
LTYPE
  2
DASHED1
 70
    64
  3
--  --  --  --  --  --  --  --  
 72
    65
 73
     2
 40
2.5
 49
1.25
 49
-1.25
  0
LTYPE
  2
DASHED2
 70
    64
  3
----    ----    ----    ----    
 72
    65
 73
     2
 40
5.0
 49
2.5
 49
-2.5
  0
LTYPE
  2
DASHED3
 70
    64
  3
------  ------  ------  ------  
 72
    65
 73
     2
 40
5.0
 49
3.75
 49
-1.25
  0
LTYPE
  2
CENTER1
 70
    64
  3
----- - ----- - ----- - ----- - 
 72
    65
 73
     4
 40
10.0
 49
6.25
 49
-1.25
 49
1.25
 49
-1.25
  0
LTYPE
  2
CENTER2
 70
    64
  3
----------  --  ----------  --  
 72
    65
 73
     4
 40
20.0
 49
12.5
 49
-2.5
 49
2.5
 49
-2.5
  0
LTYPE
  2
PHANTOM1
 70
    64
  3
--- - - --- - - --- - - --- - - 
 72
    65
 73
     6
 40
10.0
 49
3.25
 49
-1.25
 49
1.25
 49
-1.25
 49
1.25
 49
-1.25
  0
LTYPE
  2
PHANTOM2
 70
    64
  3
--------  -  -  --------  -  -  
 72
    65
 73
     6
 40
20.0
 49
10.0
 49
-2.5
 49
1.25
 49
-2.5
 49
1.25
 49
-2.5
  0
LTYPE
  2
DOT
 70
    64
  3
-   -   -   -   -   -   -   -   
 72
    65
 73
     2
 40
2.5
 49
0.625
 49
-1.875
  0
LTYPE
  2
DUMMY
 70
    64
  3
É_É~Å[
 72
    65
 73
     0
 40
0.0
  0
LTYPE
  2
RAND1
 70
    64
  3
ÉâÉìÉ_ÉÄê¸1
 72
    65
 73
     4
 40
10.0
 49
1.0
 49
-2.0
 49
3.0
 49
-4.0
  0
LTYPE
  2
RAND2
 70
    64
  3
ÉâÉìÉ_ÉÄê¸2
 72
    65
 73
     4
 40
14.0
 49
2.0
 49
-3.0
 49
4.0
 49
-5.0
  0
LTYPE
  2
RAND3
 70
    64
  3
ÉâÉìÉ_ÉÄê¸3
 72
    65
 73
     4
 40
18.0
 49
3.0
 49
-4.0
 49
5.0
 49
-6.0
  0
LTYPE
  2
RAND4
 70
    64
  3
ÉâÉìÉ_ÉÄê¸4
 72
    65
 73
     4
 40
22.0
 49
4.0
 49
-5.0
 49
6.0
 49
-7.0
  0
LTYPE
  2
RAND5
 70
    64
  3
ÉâÉìÉ_ÉÄê¸5
 72
    65
 73
     4
 40
26.0
 49
5.0
 49
-6.0
 49
7.0
 49
-8.0
  0
LTYPE
  2
LONG1
 70
    64
  3
----------  --  ----------  --  
 72
    65
 73
     4
 40
40.0
 49
32.5
 49
-2.5
 49
2.5
 49
-2.5
  0
LTYPE
  2
LONG2
 70
    64
  3
--------  -  -  --------  -  -  
 72
    65
 73
     6
 40
40.0
 49
30.0
 49
-2.5
 49
1.25
 49
-2.5
 49
1.25
 49
-2.5
  0
LTYPE
  2
LONG3
 70
    64
  3
+++++++++++++++..+++++++++++++++
 72
    65
 73
     2
 40
40.0
 49
37.5
 49
-2.5
  0
LTYPE
  2
LONG4
 70
    64
  3
+++++++++++++++..+++++++++++++++
 72
    65
 73
     2
 40
80.0
 49
75.0
 49
-5.0
  0
LTYPE
  2
LONG5
 70
    64
  3
----------  --  ----------  --  
 72
    65
 73
     4
 40
60.0
 49
37.5
 49
-7.5
 49
7.5
 49
-7.5
  0
LTYPE
  2
dashed
 70
   64
  3
-------   -------------   ------
 72
   65
 73
    2
 40
7.5
 49
6
 49
-1.5
  0
LTYPE
  2
dashed_spaced
 70
   64
  3
----        --------        ----
 72
   65
 73
    2
 40
12
 49
6
 49
-6
  0
LTYPE
  2
long_dashed_dotted
 70
   64
  3
------------- --- --------------
 72
   65
 73
    4
 40
15.25
 49
12
 49
-1.5
 49
0.25
 49
-1.5
  0
LTYPE
  2
long_dashed_double-dotted
 70
   64
  3
----------- --- --- ------------
 72
   65
 73
    6
 40
17
 49
12
 49
-1.5
 49
0.25
 49
-1.5
 49
0.25
 49
-1.5
  0
LTYPE
  2
long_dashed_triplicate-dotted
 70
   64
  3
--------- --- --- --- ----------
 72
   65
 73
    8
 40
18.75
 49
12
 49
-1.5
 49
0.25
 49
-1.5
 49
0.25
 49
-1.5
 49
0.25
 49
-1.5
  0
LTYPE
  2
dotted
 70
   64
  3
   -       -       -       -    
 72
   65
 73
    2
 40
1.75
 49
0.25
 49
-1.5
  0
LTYPE
  2
chain
 70
   64
  3
-------------- -- --------------
 72
   65
 73
    4
 40
18.5
 49
12
 49
-1.5
 49
3.5
 49
-1.5
  0
LTYPE
  2
chain_double_dash
 70
   64
  3
------------ -- -- -------------
 72
   65
 73
    6
 40
23.5
 49
12
 49
-1.5
 49
3.5
 49
-1.5
 49
3.5
 49
-1.5
  0
LTYPE
  2
dashed_dotted
 70
   64
  3
-----------     -     ----------
 72
   65
 73
    4
 40
9.25
 49
6
 49
-1.5
 49
0.25
 49
-1.5
  0
LTYPE
  2
double-dashed_dotted
 70
   64
  3
------   -----------   -   -----
 72
   65
 73
    6
 40
16.75
 49
6
 49
-1.5
 49
6
 49
-1.5
 49
0.25
 49
-1.5
  0
LTYPE
  2
dashed_double-dotted
 70
   64
  3
---------    -    -    ---------
 72
   65
 73
    6
 40
11
 49
6
 49
-1.5
 49
0.25
 49
-1.5
 49
0.25
 49
-1.5
  0
LTYPE
  2
double-dashed_double-dotted
 70
   64
  3
-----   ---------   -   -   ----
 72
   65
 73
    8
 40
18.5
 49
6
 49
-1.5
 49
6
 49
-1.5
 49
0.25
 49
-1.5
 49
0.25
 49
-1.5
  0
LTYPE
  2
dashed_triplicate-dotted
 70
   64
  3
-------    -    -    -    ------
 72
   65
 73
    8
 40
12.75
 49
6
 49
-1.5
 49
0.25
 49
-1.5
 49
0.25
 49
-1.5
 49
0.25
 49
-1.5
  0
LTYPE
  2
double-dashed_triplicate-dotted
 70
   64
  3
-----  ---------  -  -  -  -----
 72
   65
 73
   10
 40
20.25
 49
6
 49
-1.5
 49
6
 49
-1.5
 49
0.25
 49
-1.5
 49
0.25
 49
-1.5
 49
0.25
 49
-1.5
  0
LTYPE
  2
undefined
 70
   64
  3
--------------------------------
 72
   65
 73
    0
 40
0
  0
ENDTAB
  0
TABLE
  2
STYLE
  5
3
100
AcDbSymbolTable
 70
     1
  0
STYLE
  5
10
100
AcDbSymbolTableRecord
100
AcDbTextStyleTableRecord
  2
STANDARD
 70
     0
 40
0.0
 41
1.0
 50
0.0
 71
     0
 42
0.2
  3
txt
  4
bigfont.shx
  0
STYLE
  5
26
100
AcDbSymbolTableRecord
100
AcDbTextStyleTableRecord
  2
TATEGAKI
 70
    68
 40
0.0
 41
1.0
 50
0.0
 71
     0
 42
1.0
  3
txt
  4
bigfont.shx
  0
ENDTAB
  0
TABLE
  2
LAYER
 70
    3
  0
LAYER
  2
0
 70
   64
 62
    7
  6
CONTINUOUS
  0
LAYER
  2
ADD_LINE
 70
   64
 62
    7
  6
CONTINUOUS
  0
LAYER
  2
ADD_LINE
 70
   64
 62
    7
  6
CONTINUOUS
  0
ENDTAB
  0
ENDSEC
  0
SECTION
  2
BLOCKS
  0
ENDSEC
  0
SECTION
  2
ENTITIES
  0
LINE
  8
0
  6
CONTINUOUS
 62
    7
 10
277.83397000000002
 20
15.177602000000007
 11
277.83397000000002
 21
51.602316000000002
  0
LINE
  8
0
  6
CONTINUOUS
 62
    7
 10
211.56949
 20
15.177602000000007
 11
277.83397000000002
 21
15.177602000000007
  0
LINE
  8
0
  6
CONTINUOUS
 62
    7
 10
211.56949
 20
15.177602000000007
 11
162.50413
 21
15.177602000000007
  0
LINE
  8
0
  6
CONTINUOUS
 62
    7
 10
211.56949
 20
29.177604000000002
 11
277.83397000000002
 21
29.177604000000002
  0
LINE
  8
0
  6
CONTINUOUS
 62
    7
 10
211.56949
 20
36.177604000000002
 11
277.83397000000002
 21
36.177604000000002
  0
LINE
  8
0
  6
CONTINUOUS
 62
    7
 10
211.56949
 20
43.177605
 11
277.83397000000002
 21
43.177605
  0
LINE
  8
0
  6
CONTINUOUS
 62
    7
 10
211.56949
 20
15.177602000000007
 11
211.56949
 21
50.177605999999997
  0
LINE
  8
0
  6
CONTINUOUS
 62
    7
 10
150.67084
 20
185.97488999999999
 11
150.67084
 21
183.47489999999999
  0
LINE
  8
0
  6
CONTINUOUS
 62
    7
 10
280.33398
 20
99.326251999999997
 11
277.83397000000002
 21
99.326251999999997
  0
LINE
  8
0
  6
CONTINUOUS
 62
    7
 10
21.007727000000003
 20
99.326251999999997
 11
23.507721000000004
 21
99.326251999999997
  0
LINE
  8
0
  6
CONTINUOUS
 62
    7
 10
150.67084
 20
12.677607999999992
 11
150.67084
 21
15.177610999999999
  0
LINE
  8
0
  6
CONTINUOUS
 62
    7
 10
277.83397000000002
 20
15.177602000000007
 11
277.83397000000002
 21
183.47489999999999
  0
LINE
  8
0
  6
CONTINUOUS
 62
    7
 10
23.507721000000004
 20
183.47489999999999
 11
277.83397000000002
 21
183.47489999999999
  0
LINE
  8
0
  6
CONTINUOUS
 62
    7
 10
23.507721000000004
 20
183.47489999999999
 11
23.507721000000004
 21
15.177602000000007
  0
LINE
  8
0
  6
CONTINUOUS
 62
    7
 10
63.507722999999999
 20
183.47489999999999
 11
63.507722999999999
 21
173.47489999999999
  0
LINE
  8
0
  6
CONTINUOUS
 62
    7
 10
23.507721000000004
 20
173.47489999999999
 11
63.507722999999999
 21
173.47489999999999
  0
LINE
  8
0
  6
CONTINUOUS
 62
    7
 10
216.56950000000001
 20
15.177602000000007
 11
216.56950000000001
 21
43.177605
  0
LINE
  8
0
  6
CONTINUOUS
 62
    7
 10
228.90974
 20
43.177605
 11
228.90974
 21
22.177603000000005
  0
LINE
  8
0
  6
CONTINUOUS
 62
    7
 10
162.50413
 20
15.177602000000007
 11
23.507721000000004
 21
15.177602000000007
  0
LINE
  8
0
  6
CONTINUOUS
 62
    7
 10
277.83397000000002
 20
57.177607000000002
 11
211.56949
 21
57.177607000000002
  0
LINE
  8
0
  6
CONTINUOUS
 62
    7
 10
211.56949
 20
50.177605999999997
 11
211.56949
 21
57.177607000000002
  0
LINE
  8
0
  6
CONTINUOUS
 62
    7
 10
228.90974
 20
43.177605
 11
228.90974
 21
50.177605999999997
  0
LINE
  8
0
  6
CONTINUOUS
 62
    7
 10
233.90974
 20
43.177605
 11
233.90974
 21
50.177605999999997
  0
LINE
  8
0
  6
CONTINUOUS
 62
    7
 10
233.90974
 20
43.177605
 11
233.90974
 21
29.177604000000002
  0
LINE
  8
0
  6
CONTINUOUS
 62
    7
 10
216.56950000000001
 20
43.177605
 11
216.56950000000001
 21
50.177605999999997
  0
LINE
  8
0
  6
CONTINUOUS
 62
    7
 10
211.56949
 20
50.177605999999997
 11
277.83397000000002
 21
50.177605999999997
  0
LINE
  8
0
  6
CONTINUOUS
 62
    7
 10
233.90974
 20
29.177604000000002
 11
233.90974
 21
22.177603000000005
  0
LINE
  8
0
  6
CONTINUOUS
 62
    7
 10
211.56949
 20
22.177603000000005
 11
277.83397000000002
 21
22.177603000000005
  0
LINE
  8
0
  6
CONTINUOUS
 62
    2
 10
73.360389999999995
 20
141.17305999999999
 11
105.78823
 21
141.17305999999999
  0
LINE
  8
0
  6
CONTINUOUS
 62
    2
 10
73.360389999999995
 20
122.17307
 11
105.78823
 21
122.17307
  0
LINE
  8
0
  6
CONTINUOUS
 62
    2
 10
61.420188999999993
 20
136.67321999999999
 11
72.256242999999998
 21
140.96248
  0
LINE
  8
0
  6
CONTINUOUS
 62
    2
 10
60.78824800000001
 20
127.60275
 11
60.78824800000001
 21
135.74341999999999
  0
LINE
  8
0
  6
CONTINUOUS
 62
    2
 10
61.420180000000002
 20
126.67295
 11
72.256242999999998
 21
122.38365
  0
LINE
  8
0
  6
CONTINUOUS
 62
    2
 10
76.538220999999993
 20
136.17304999999999
 11
105.78823
 21
136.17304999999999
  0
LINE
  8
0
  6
CONTINUOUS
 62
    2
 10
76.538220999999993
 20
127.17308
 11
105.78823
 21
127.17308
  0
LINE
  8
0
  6
CONTINUOUS
 62
    2
 10
138.21607
 20
141.17305999999999
 11
105.78823
 21
141.17305999999999
  0
LINE
  8
0
  6
CONTINUOUS
 62
    2
 10
138.21607
 20
122.17307
 11
105.78823
 21
122.17307
  0
LINE
  8
0
  6
CONTINUOUS
 62
    2
 10
150.15628000000001
 20
136.67321999999999
 11
139.32021
 21
140.96248
  0
LINE
  8
0
  6
CONTINUOUS
 62
    2
 10
150.78822
 20
127.60275
 11
150.78822
 21
135.74341999999999
  0
LINE
  8
0
  6
CONTINUOUS
 62
    2
 10
150.15628000000001
 20
126.67295
 11
139.32021
 21
122.38365
  0
LINE
  8
0
  6
CONTINUOUS
 62
    2
 10
135.03823
 20
136.17304999999999
 11
105.78823
 21
136.17304999999999
  0
LINE
  8
0
  6
CONTINUOUS
 62
    2
 10
135.03823
 20
127.17308
 11
105.78823
 21
127.17308
  0
LINE
  8
0
  6
CONTINUOUS
 62
    2
 10
184.65815000000001
 20
90.144108000000003
 11
152.23031
 21
90.144108000000003
  0
LINE
  8
0
  6
CONTINUOUS
 62
    2
 10
184.65815000000001
 20
71.144118000000006
 11
152.23031
 21
71.144118000000006
  0
LINE
  8
0
  6
CONTINUOUS
 62
    2
 10
196.59836000000001
 20
85.644268999999994
 11
185.76230000000001
 21
89.933526000000001
  0
LINE
  8
0
  6
CONTINUOUS
 62
    2
 10
196.59836000000001
 20
75.643992999999995
 11
185.76230000000001
 21
71.354701000000006
  0
LINE
  8
0
  6
CONTINUOUS
 62
    2
 10
181.48032000000001
 20
85.144102000000004
 11
152.23031
 21
85.144102000000004
  0
LINE
  8
0
  6
CONTINUOUS
 62
    2
 10
181.48032000000001
 20
76.144125000000003
 11
152.23031
 21
76.144125000000003
  0
LINE
  8
0
  6
DASHED1
 62
    7
 10
150.78822
 20
129.12307000000001
 11
138.74600000000001
 21
129.12307000000001
  0
LINE
  8
0
  6
DASHED1
 62
    7
 10
150.78822
 20
134.22308000000001
 11
138.74597
 21
134.22308000000001
  0
LINE
  8
0
  6
DASHED1
 62
    7
 10
150.78822
 20
128.62307999999999
 11
138.34693999999999
 21
128.62307999999999
  0
LINE
  8
0
  6
DASHED1
 62
    7
 10
150.78822
 20
134.72307000000001
 11
138.34691000000001
 21
134.72307000000001
  0
LINE
  8
0
  6
CONTINUOUS
 62
    2
 10
232.41532000000001
 20
117.57021
 11
239.7808
 21
126.6759
  0
LINE
  8
0
  6
CONTINUOUS
 62
    2
 10
243.38942
 20
122.39359
 11
233.16694000000001
 21
116.67825000000001
  0
LINE
  8
0
  6
CONTINUOUS
 62
    2
 10
232.41532000000001
 20
117.57021
 11
233.16694000000001
 21
116.67825000000001
  0
LINE
  8
0
  6
CONTINUOUS
 62
    2
 10
241.03749999999999
 20
127.73491
 11
239.7808
 21
126.6759
  0
LINE
  8
0
  6
CONTINUOUS
 62
    2
 10
244.64608999999999
 20
123.45261000000001
 11
243.38939999999999
 21
122.39361
  0
LINE
  8
0
  6
CONTINUOUS
 62
    2
 10
119.80247
 20
90.144108000000003
 11
152.23031
 21
90.144108000000003
  0
LINE
  8
0
  6
CONTINUOUS
 62
    2
 10
119.80247
 20
71.144118000000006
 11
152.23031
 21
71.144118000000006
  0
LINE
  8
0
  6
CONTINUOUS
 62
    2
 10
107.86226000000001
 20
85.644268999999994
 11
118.69832
 21
89.933526000000001
  0
LINE
  8
0
  6
CONTINUOUS
 62
    2
 10
107.86226000000001
 20
75.643992999999995
 11
118.69832
 21
71.354701000000006
  0
LINE
  8
0
  6
CONTINUOUS
 62
    2
 10
122.9803
 20
85.144102000000004
 11
152.23031
 21
85.144102000000004
  0
LINE
  8
0
  6
CONTINUOUS
 62
    2
 10
122.9803
 20
76.144125000000003
 11
152.23031
 21
76.144125000000003
  0
LINE
  8
0
  6
CONTINUOUS
 62
    7
 10
248.46886000000001
 20
131.67307
 11
248.46886000000001
 21
155.95366000000001
  0
LINE
  8
0
  6
CONTINUOUS
 62
    7
 10
60.78824800000001
 20
135.74341999999999
 11
60.78824800000001
 21
155.95366000000001
  0
LINE
  8
0
  6
CONTINUOUS
 62
    7
 10
150.78822
 20
135.74341999999999
 11
150.78822
 21
155.95366000000001
  0
LINE
  8
0
  6
CONTINUOUS
 62
    7
 10
150.78822
 20
150.22006999999999
 11
60.78824800000001
 21
150.22006999999999
  0
LINE
  8
0
  6
CONTINUOUS
 62
    7
 10
73.360389999999995
 20
141.17305999999999
 11
46.442083999999994
 21
141.17305999999999
  0
LINE
  8
0
  6
CONTINUOUS
 62
    7
 10
73.360389999999995
 20
122.17307
 11
46.442083999999994
 21
122.17307
  0
LINE
  8
0
  6
CONTINUOUS
 62
    7
 10
53.322393000000005
 20
141.17305999999999
 11
53.322393000000005
 21
122.17307
  0
LINE
  8
0
  6
CONTINUOUS
 62
    4
 10
248.46886000000001
 20
150.22006999999999
 11
245.57107999999999
 21
149.44362000000001
  0
LINE
  8
0
  6
CONTINUOUS
 62
    4
 10
248.46886000000001
 20
150.22006999999999
 11
245.57107999999999
 21
150.99652
  0
LINE
  8
0
  6
CONTINUOUS
 62
    4
 10
150.78822
 20
150.22006999999999
 11
147.89044999999999
 21
149.44362000000001
  0
LINE
  8
0
  6
CONTINUOUS
 62
    4
 10
150.78822
 20
150.22006999999999
 11
147.89044999999999
 21
150.99652
  0
LINE
  8
0
  6
CONTINUOUS
 62
    4
 10
60.78824800000001
 20
150.22006999999999
 11
63.686023000000006
 21
150.99652
  0
LINE
  8
0
  6
CONTINUOUS
 62
    4
 10
60.78824800000001
 20
150.22006999999999
 11
63.686023000000006
 21
149.44362000000001
  0
LINE
  8
0
  6
CONTINUOUS
 62
    4
 10
53.322393000000005
 20
141.17305999999999
 11
54.098846000000009
 21
138.27528000000001
  0
LINE
  8
0
  6
CONTINUOUS
 62
    4
 10
53.322393000000005
 20
141.17305999999999
 11
52.545940000000002
 21
138.27528000000001
  0
LINE
  8
0
  6
CONTINUOUS
 62
    4
 10
53.322393000000005
 20
122.17307
 11
52.545940000000002
 21
125.07084999999999
  0
LINE
  8
0
  6
CONTINUOUS
 62
    4
 10
53.322393000000005
 20
122.17307
 11
54.098846000000009
 21
125.07084999999999
  0
LINE
  8
0
  6
CONTINUOUS
 62
    7
 10
192.64644000000001
 20
118.65488000000001
 11
180.47971000000001
 21
118.65488000000001
  0
LINE
  8
0
  6
CONTINUOUS
 62
    7
 10
173.46887000000001
 20
134.72307000000001
 11
173.46887000000001
 21
155.95366000000001
  0
LINE
  8
0
  6
CONTINUOUS
 62
    7
 10
173.46887000000001
 20
150.22006999999999
 11
248.46886000000001
 21
150.22006999999999
  0
LINE
  8
0
  6
CONTINUOUS
 62
    4
 10
173.46887000000001
 20
150.22006999999999
 11
176.36662999999999
 21
150.99652
  0
LINE
  8
0
  6
CONTINUOUS
 62
    4
 10
173.46887000000001
 20
150.22006999999999
 11
176.36662999999999
 21
149.44362000000001
  0
LINE
  8
0
  6
CONTINUOUS
 62
    2
 10
173.46887000000001
 20
134.72307000000001
 11
173.46887000000001
 21
128.62307999999999
  0
LINE
  8
0
  6
CONTINUOUS
 62
    7
 10
173.46887000000001
 20
129.12307000000001
 11
215.96886000000001
 21
129.12307000000001
  0
LINE
  8
0
  6
CONTINUOUS
 62
    7
 10
173.46887000000001
 20
134.22308000000001
 11
215.96886000000001
 21
134.22308000000001
  0
LINE
  8
0
  6
CONTINUOUS
 62
    2
 10
173.46887000000001
 20
134.72307000000001
 11
223.62419
 21
134.72307000000001
  0
LINE
  8
0
  6
CONTINUOUS
 62
    2
 10
173.46887000000001
 20
128.62307999999999
 11
223.03351000000001
 21
128.62307999999999
  0
LINE
  8
0
  6
CONTINUOUS
 62
    7
 10
218.46887000000001
 20
134.72307000000001
 11
218.46887000000001
 21
128.62307999999999
  0
LINE
  8
0
  6
CONTINUOUS
 62
    7
 10
173.46887000000001
 20
139.34728000000001
 11
218.46887000000001
 21
139.34728000000001
  0
LINE
  8
0
  6
CONTINUOUS
 62
    7
 10
218.46887000000001
 20
134.72307000000001
 11
218.46887000000001
 21
144.34728999999999
  0
LINE
  8
0
  6
CONTINUOUS
 62
    4
 10
173.46887000000001
 20
139.34728000000001
 11
176.36664999999999
 21
140.12372999999999
  0
LINE
  8
0
  6
CONTINUOUS
 62
    4
 10
173.46887000000001
 20
139.34728000000001
 11
176.36664999999999
 21
138.57083
  0
LINE
  8
0
  6
CONTINUOUS
 62
    4
 10
218.46887000000001
 20
139.34728000000001
 11
215.57109
 21
138.57083
  0
LINE
  8
0
  6
CONTINUOUS
 62
    4
 10
218.46887000000001
 20
139.34728000000001
 11
215.57109
 21
140.12372999999999
  0
LINE
  8
0
  6
CONTINUOUS
 62
    7
 10
215.96886000000001
 20
129.12307000000001
 11
218.46887000000001
 21
129.12307000000001
  0
LINE
  8
0
  6
CONTINUOUS
 62
    7
 10
215.96886000000001
 20
134.22308000000001
 11
218.46887000000001
 21
134.22308000000001
  0
LINE
  8
0
  6
DASHED1
 62
    7
 10
60.788239000000004
 20
129.12307000000001
 11
72.830460000000002
 21
129.12307000000001
  0
LINE
  8
0
  6
DASHED1
 62
    7
 10
60.788239000000004
 20
134.22308000000001
 11
72.830485999999993
 21
134.22308000000001
  0
LINE
  8
0
  6
DASHED1
 62
    7
 10
60.788239000000004
 20
128.62307999999999
 11
73.229517000000001
 21
128.62307999999999
  0
LINE
  8
0
  6
DASHED1
 62
    7
 10
60.788239000000004
 20
134.72307000000001
 11
73.229543000000007
 21
134.72307000000001
  0
LINE
  8
0
  6
CONTINUOUS
 62
    2
 10
197.2303
 20
76.573794000000007
 11
197.2303
 21
84.714466999999999
  0
LINE
  8
0
  6
CONTINUOUS
 62
    2
 10
107.23032000000001
 20
76.573794000000007
 11
107.23032000000001
 21
84.714466999999999
  0
LINE
  8
ADD_LINE
  6
DOT
 62
    2
 10
221.63031000000001
 20
83.694108
 11
221.63031000000001
 21
77.594119000000006
  0
LINE
  8
0
  6
CONTINUOUS
 62
    2
 10
211.17676
 20
66.541244000000006
 11
218.54223999999999
 21
75.646940999999998
  0
LINE
  8
0
  6
CONTINUOUS
 62
    2
 10
222.15085999999999
 20
71.364630000000005
 11
211.92838
 21
65.649289999999993
  0
LINE
  8
0
  6
CONTINUOUS
 62
    2
 10
211.17676
 20
66.541244000000006
 11
211.92838
 21
65.649289999999993
  0
LINE
  8
0
  6
CONTINUOUS
 62
    2
 10
219.79894999999999
 20
76.705944000000002
 11
218.54223999999999
 21
75.646940999999998
  0
LINE
  8
0
  6
CONTINUOUS
 62
    2
 10
223.40753000000001
 20
72.423651000000007
 11
222.15083999999999
 21
71.364648000000003
  0
LINE
  8
0
  6
CONTINUOUS
 62
    2
 10
152.23031
 20
83.694108
 11
152.23031
 21
77.594119000000006
  0
LINE
  8
0
  6
CONTINUOUS
 62
    2
 10
197.23032000000001
 20
83.694108
 11
197.23032000000001
 21
77.594119000000006
  0
LINE
  8
0
  6
DASHED1
 62
    7
 10
194.73031
 20
78.094110999999998
 11
197.23032000000001
 21
78.094110999999998
  0
LINE
  8
0
  6
CONTINUOUS
 62
    2
 10
152.23031
 20
83.694108
 11
184.78899999999999
 21
83.694108
  0
LINE
  8
0
  6
CONTINUOUS
 62
    7
 10
152.23031
 20
83.194115999999994
 11
185.18806000000001
 21
83.194115999999994
  0
LINE
  8
0
  6
DASHED1
 62
    7
 10
185.18806000000001
 20
83.194115999999994
 11
194.73031
 21
83.194115999999994
  0
LINE
  8
0
  6
DASHED1
 62
    7
 10
194.73031
 20
83.194115999999994
 11
197.2303
 21
83.194115999999994
  0
LINE
  8
0
  6
DASHED1
 62
    7
 10
197.2303
 20
83.194115999999994
 11
197.23032000000001
 21
83.194115999999994
  0
LINE
  8
0
  6
CONTINUOUS
 62
    7
 10
152.23031
 20
78.094110999999998
 11
185.18806000000001
 21
78.094110999999998
  0
LINE
  8
0
  6
DASHED1
 62
    7
 10
185.18806000000001
 20
78.094110999999998
 11
194.73031
 21
78.094110999999998
  0
LINE
  8
0
  6
CONTINUOUS
 62
    2
 10
152.23031
 20
77.594119000000006
 11
184.78901999999999
 21
77.594119000000006
  0
LINE
  8
0
  6
DASHED1
 62
    7
 10
184.78901999999999
 20
77.594119000000006
 11
197.2303
 21
77.594119000000006
  0
LINE
  8
0
  6
CONTINUOUS
 62
    2
 10
197.2303
 20
77.594119000000006
 11
201.79495
 21
77.594119000000006
  0
LINE
  8
0
  6
DASHED1
 62
    7
 10
184.78899999999999
 20
83.694108
 11
197.23032000000001
 21
83.694108
  0
LINE
  8
0
  6
CONTINUOUS
 62
    2
 10
197.23032000000001
 20
83.694108
 11
202.38562999999999
 21
83.694108
  0
LINE
  8
ADD_LINE
  6
DOT
 62
    2
 10
82.830315999999996
 20
83.694108
 11
82.830315999999996
 21
77.594119000000006
  0
LINE
  8
0
  6
CONTINUOUS
 62
    2
 10
93.283865000000006
 20
66.541244000000006
 11
85.918385000000001
 21
75.646940999999998
  0
LINE
  8
0
  6
CONTINUOUS
 62
    2
 10
82.309764000000001
 20
71.364630000000005
 11
92.532240999999999
 21
65.649289999999993
  0
LINE
  8
0
  6
CONTINUOUS
 62
    2
 10
93.283865000000006
 20
66.541244000000006
 11
92.532240999999999
 21
65.649289999999993
  0
LINE
  8
0
  6
CONTINUOUS
 62
    2
 10
84.661676999999997
 20
76.705944000000002
 11
85.918385000000001
 21
75.646940999999998
  0
LINE
  8
0
  6
CONTINUOUS
 62
    2
 10
81.053092000000007
 20
72.423651000000007
 11
82.309781999999998
 21
71.364648000000003
  0
LINE
  8
0
  6
DASHED1
 62
    7
 10
109.73031
 20
78.094110999999998
 11
107.2303
 21
78.094110999999998
  0
LINE
  8
0
  6
CONTINUOUS
 62
    2
 10
152.23031
 20
83.694108
 11
119.67162
 21
83.694108
  0
LINE
  8
0
  6
CONTINUOUS
 62
    7
 10
152.23031
 20
83.194115999999994
 11
119.27256
 21
83.194115999999994
  0
LINE
  8
0
  6
DASHED1
 62
    7
 10
119.27256
 20
83.194115999999994
 11
109.73031
 21
83.194115999999994
  0
LINE
  8
0
  6
DASHED1
 62
    7
 10
109.73031
 20
83.194115999999994
 11
107.23032000000001
 21
83.194115999999994
  0
LINE
  8
0
  6
CONTINUOUS
 62
    7
 10
152.23031
 20
78.094110999999998
 11
119.27256
 21
78.094110999999998
  0
LINE
  8
0
  6
DASHED1
 62
    7
 10
119.27256
 20
78.094110999999998
 11
109.73031
 21
78.094110999999998
  0
LINE
  8
0
  6
CONTINUOUS
 62
    2
 10
152.23031
 20
77.594119000000006
 11
119.67161
 21
77.594119000000006
  0
LINE
  8
0
  6
DASHED1
 62
    7
 10
119.67161
 20
77.594119000000006
 11
107.23032000000001
 21
77.594119000000006
  0
LINE
  8
0
  6
CONTINUOUS
 62
    2
 10
107.23032000000001
 20
77.594119000000006
 11
102.66567000000001
 21
77.594119000000006
  0
LINE
  8
0
  6
DASHED1
 62
    7
 10
119.67162
 20
83.694108
 11
107.2303
 21
83.694108
  0
LINE
  8
0
  6
CONTINUOUS
 62
    2
 10
107.2303
 20
83.694108
 11
102.07499
 21
83.694108
  0
LINE
  8
0
  6
CONTINUOUS
 62
    7
 10
232.00806
 20
132.60722000000001
 11
239.78437
 21
126.6806
  0
LINE
  8
0
  6
CONTINUOUS
 62
    4
 10
232.00806
 20
132.60722000000001
 11
234.78344999999999
 21
131.46825000000001
  0
LINE
  8
0
  6
CONTINUOUS
 62
    4
 10
232.00806
 20
132.60722000000001
 11
233.84213
 21
130.23314999999999
  0
LINE
  8
0
  6
CONTINUOUS
 62
    4
 10
239.78437
 20
126.6806
 11
237.00898000000001
 21
127.81957
  0
LINE
  8
0
  6
CONTINUOUS
 62
    4
 10
239.78437
 20
126.6806
 11
237.95029
 21
129.05466999999999
  0
LINE
  8
0
  6
CONTINUOUS
 62
    7
 10
199.70107999999999
 20
129.12307000000001
 11
192.64644000000001
 21
118.65488000000001
  0
ARC
  8
0
  6
CONTINUOUS
 62
    2
 10
73.360389999999995
 20
138.17305999999999
 40
2.9999999000000002
 50
90
 51
111.59532
  0
ARC
  8
0
  6
CONTINUOUS
 62
    2
 10
73.360389999999995
 20
125.17307
 40
2.9999999000000002
 50
248.40467000000001
 51
270
  0
ARC
  8
0
  6
CONTINUOUS
 62
    2
 10
61.788240999999999
 20
135.74341999999999
 40
0.9999999
 50
111.59535999999997
 51
180
  0
ARC
  8
0
  6
CONTINUOUS
 62
    2
 10
61.788240999999999
 20
127.60275
 40
0.9999999
 50
180
 51
248.40440000000001
  0
ARC
  8
0
  6
CONTINUOUS
 62
    2
 10
76.538220999999993
 20
131.67305999999999
 40
4.4999884999999997
 50
90
 51
270
  0
ARC
  8
0
  6
CONTINUOUS
 62
    2
 10
138.21607
 20
138.17305999999999
 40
2.9999999000000002
 50
68.40467799999999
 51
89.999999999999986
  0
ARC
  8
0
  6
CONTINUOUS
 62
    2
 10
138.21607
 20
125.17307
 40
2.9999999000000002
 50
270
 51
291.59532000000002
  0
ARC
  8
0
  6
CONTINUOUS
 62
    2
 10
149.78822
 20
135.74341999999999
 40
0.9999999
 50
0
 51
68.404631999999992
  0
ARC
  8
0
  6
CONTINUOUS
 62
    2
 10
149.78822
 20
127.60275
 40
0.9999999
 50
291.59559000000002
 51
0
  0
ARC
  8
0
  6
CONTINUOUS
 62
    2
 10
135.03823
 20
131.67305999999999
 40
4.4999884999999997
 50
270
 51
90
  0
ARC
  8
0
  6
CONTINUOUS
 62
    2
 10
184.65815000000001
 20
87.144103999999999
 40
2.9999999000000002
 50
68.40467799999999
 51
89.999999999999986
  0
ARC
  8
0
  6
CONTINUOUS
 62
    2
 10
184.65815000000001
 20
74.144121999999996
 40
2.9999999000000002
 50
270
 51
291.59532000000002
  0
ARC
  8
0
  6
CONTINUOUS
 62
    2
 10
196.2303
 20
84.714466999999999
 40
0.9999999
 50
0
 51
68.404631999999992
  0
ARC
  8
0
  6
CONTINUOUS
 62
    2
 10
196.2303
 20
76.573794000000007
 40
0.9999999
 50
291.59559000000002
 51
0
  0
ARC
  8
0
  6
CONTINUOUS
 62
    2
 10
181.48032000000001
 20
80.644103999999999
 40
4.4999884999999997
 50
270
 51
90
  0
ARC
  8
0
  6
CONTINUOUS
 62
    2
 10
223.62419
 20
140.72308000000001
 40
5.9999998999999997
 50
270
 51
327.29595
  0
ARC
  8
0
  6
CONTINUOUS
 62
    2
 10
223.03351000000001
 20
140.72308000000001
 40
12.1
 50
270
 51
328.35611999999998
  0
ARC
  8
0
  6
CONTINUOUS
 62
    2
 10
237.71887000000001
 20
131.67307
 40
10.749992000000001
 50
310.12022999999999
 51
147.29607999999999
  0
ARC
  8
0
  6
CONTINUOUS
 62
    2
 10
237.71887000000001
 20
131.67307
 40
5.1499955000000002
 50
310.12031000000007
 51
148.35614000000007
  0
ARC
  8
0
  6
CONTINUOUS
 62
    2
 10
119.80247
 20
87.144103999999999
 40
2.9999999000000002
 50
90
 51
111.59532
  0
ARC
  8
0
  6
CONTINUOUS
 62
    2
 10
119.80247
 20
74.144121999999996
 40
2.9999999000000002
 50
248.40467000000001
 51
270
  0
ARC
  8
0
  6
CONTINUOUS
 62
    2
 10
108.23032000000001
 20
84.714466999999999
 40
0.9999999
 50
111.59535999999997
 51
180
  0
ARC
  8
0
  6
CONTINUOUS
 62
    2
 10
108.23032000000001
 20
76.573794000000007
 40
0.9999999
 50
180
 51
248.40440000000001
  0
ARC
  8
0
  6
CONTINUOUS
 62
    2
 10
122.9803
 20
80.644103999999999
 40
4.4999884999999997
 50
90
 51
270
  0
ARC
  8
0
  6
CONTINUOUS
 62
    2
 10
202.38562999999999
 20
89.694115999999994
 40
5.9999998999999997
 50
270
 51
327.29595
  0
ARC
  8
0
  6
CONTINUOUS
 62
    2
 10
201.79495
 20
89.694115999999994
 40
12.1
 50
270
 51
328.35611999999998
  0
ARC
  8
0
  6
CONTINUOUS
 62
    2
 10
216.48031
 20
80.644113000000004
 40
10.749992000000001
 50
310.12022999999999
 51
147.29607999999999
  0
ARC
  8
0
  6
CONTINUOUS
 62
    2
 10
216.48031
 20
80.644113000000004
 40
5.1499955000000002
 50
310.12031000000007
 51
148.35614000000007
  0
ARC
  8
0
  6
CONTINUOUS
 62
    2
 10
102.07499
 20
89.694115999999994
 40
5.9999998999999997
 50
212.70403999999996
 51
270
  0
ARC
  8
0
  6
CONTINUOUS
 62
    2
 10
102.66567000000001
 20
89.694115999999994
 40
12.1
 50
211.64386999999996
 51
270
  0
ARC
  8
0
  6
CONTINUOUS
 62
    2
 10
87.980311
 20
80.644113000000004
 40
10.749992000000001
 50
32.703918000000002
 51
229.87975999999998
  0
ARC
  8
0
  6
CONTINUOUS
 62
    2
 10
87.980311
 20
80.644113000000004
 40
5.1499955000000002
 50
31.643859000000003
 51
229.87968000000001
  0
TEXT
  8
0
 62
    7
 10
230.02654999999999
 20
25.631252000000003
 40
2.5
 41
1
 50
0
  1
ì˙
  0
TEXT
  8
0
 62
    7
 10
230.02654999999999
 20
22.599534000000006
 40
2.5
 41
1
 50
0
  1
ït
  0
TEXT
  8
0
 62
    7
 10
224.30735999999999
 20
51.945450999999998
 40
3
 41
1
 50
0
  1
äîéÆâÔé–Å@êÖñ{ã@äBêªçÏèä
  0
TEXT
  8
0
 62
    7
 10
212.89742000000001
 20
15.659423000000004
 40
2.5
 41
1
 50
0
  1
éø
  0
TEXT
  8
0
 62
    7
 10
212.89742000000001
 20
19.082709999999992
 40
2.5
 41
1
 50
0
  1
çﬁ
  0
TEXT
  8
0
 62
    7
 10
261.40523999999999
 20
58.759348000000003
 40
3
 41
1
 50
0
  1
ÅiÇçÇçÅj
  0
TEXT
  8
0
 62
    7
 10
230.25534999999999
 20
43.548763000000001
 40
2.5
 41
1
 50
0
  1
î‘
  0
TEXT
  8
0
 62
    7
 10
230.25534999999999
 20
47.166583000000003
 40
2.5
 41
1
 50
0
  1
ê}
  0
TEXT
  8
0
 62
    7
 10
212.43839
 20
25.692131000000003
 40
2.5
 41
1
 50
0
  1
é⁄
  0
TEXT
  8
0
 62
    7
 10
212.70515
 20
22.757817000000003
 40
2.5
 41
1
 50
0
  1
ìx
  0
TEXT
  8
0
 62
    7
 10
229.97896
 20
29.919270999999995
 40
2.5
 41
1
 50
0
  1
î‘
  0
TEXT
  8
0
 62
    7
 10
230.25534999999999
 20
39.930942999999999
 40
2.5
 41
1
 50
0
  1
ïi
  0
TEXT
  8
0
 62
    7
 10
230.25534999999999
 20
36.614609999999999
 40
2.5
 41
1
 50
0
  1
ñº
  0
TEXT
  8
0
 62
    7
 10
230.10459
 20
33.147535000000005
 40
2.5
 41
1
 50
0
  1
ïi
  0
TEXT
  8
0
 62
    7
 10
212.43839
 20
32.894537999999997
 40
2.5
 41
1
 50
0
  1
è≥
  0
TEXT
  8
0
 62
    7
 10
212.43839
 20
29.960223999999997
 40
2.5
 41
1
 50
0
  1
îF
  0
TEXT
  8
0
 62
    7
 10
218.29927000000001
 20
31.093106000000006
 40
2.5
 41
1
 50
0
  1
ëÂìc
  0
TEXT
  8
0
 62
    7
 10
212.45941999999999
 20
39.720613999999998
 40
2.5
 41
1
 50
0
  1
äm
  0
TEXT
  8
0
 62
    7
 10
212.49252000000001
 20
36.730009999999993
 40
2.5
 41
1
 50
0
  1
îF
  0
TEXT
  8
0
 62
    7
 10
212.45941999999999
 20
47.086841999999997
 40
2.5
 41
1
 50
0
  1
êª
  0
TEXT
  8
0
 62
    7
 10
212.45941999999999
 20
43.872484999999998
 40
2.5
 41
1
 50
0
  1
ê}
  0
TEXT
  8
0
 62
    7
 10
32.603984999999994
 20
18.075752999999992
 40
3
 41
1
 50
0
  1
Å¶êªïiâ¸ó«ÇÃÇΩÇﬂÅAê}ñ ÇÃì‡óeÇÕó\çêÇ»Ç≠ïœçXÇ∑ÇÈéñÇ™Ç†ÇËÇ‹Ç∑ÅB
  0
TEXT
  8
0
 62
    7
 10
217.77350000000001
 20
24.358350999999999
 40
3
 41
1
 50
0
  1
ÇPÅ^ÇP
  0
TEXT
  8
0
 62
    7
 10
218.33690999999999
 20
45.117713999999999
 40
2.5
 41
1
 50
0
  1
íJå˚
  0
TEXT
  8
0
 62
    7
 10
218.37452999999999
 20
37.926929000000001
 40
2.5
 41
1
 50
0
  1
çÇìc
  0
TEXT
  8
0
 62
    7
 10
234.72744
 20
38.053663
 40
2
 41
1
 50
0
  1
ògéÆÉ^Å[ÉìÉoÉbÉNÉãÅiÉtÉbÉNÅïÉtÉbÉNÅj
  0
TEXT
  8
0
 62
    7
 10
234.72744
 20
31.000684000000007
 40
3
 41
1
 50
0
  1
ÇsÇaÅ|ÇUÇg
  0
TEXT
  8
0
 62
    7
 10
234.72744
 20
23.947703000000004
 40
3
 41
1
 50
0
  1
ÇgÇQÇQÅDÇOÇWÅDÇOÇX
  0
TEXT
  8
0
 62
    7
 10
102.05791000000001
 20
152.51351
 40
3
 41
1
 50
0
  1
ÇXÇO
  0
TEXT
  8
0
 62
    7
 10
208.06071
 20
153.05698000000001
 40
3
 41
1
 50
0
  1
ÇVÇT
  0
TEXT
  8
0
 62
    7
 10
193.38361
 20
140.79728
 40
3
 41
1
 50
0
  1
ÇSÇT
  0
TEXT
  8
0
 62
    7
 10
231.59317999999999
 20
125.79383
 40
3
 41
1
 50
0
  1
ÇX
  0
TEXT
  8
0
 62
    7
 10
161.97615999999999
 20
117.13404
 40
3
 41
1
 50
0
  1
ÇvÅ|ÇPÅ^ÇS
  0
TEXT
  8
0
 62
    7
 10
47.030936999999994
 20
128.35495
 40
3
 41
1
 50
90
  1
ÇPÇX
  0
TEXT
  8
0
 62
    7
 10
27.769175000000004
 20
176.49552
 40
3
 41
1
 50
0
  1
ÇPÇOÇOÇWÇOÇXÅ|ÇXÇR
  0
TEXT
  8
0
 62
    7
 10
234.72744
 20
44.910727000000001
 40
3
 41
1
 50
0
  1
ÇPÇOÇOÇWÇOÇXÅ|ÇXÇR
  0
TEXT
  8
0
 62
    7
 10
217.87864999999999
 20
16.698806000000005
 40
3
 41
1
 50
0
  1
ÇrÇtÇrÇRÇOÇS
  0
ENDSEC
  0
EOF
