  0
SECTION
  2
HEADER
  9
$ACADVER
  1
AC1014
  9
$ACADMAINTVER
 70
     0
  9
$DWGCODEPAGE
  3
ANSI_1252
  9
$INSBASE
 10
0.0
 20
0.0
 30
0.0
  9
$EXTMIN
 10
0.0
 20
0.0
 30
0.0
  9
$EXTMAX
 10
292.0
 20
260.321869
 30
2.0
  9
$LIMMIN
 10
0.0
 20
0.0
  9
$LIMMAX
 10
420.0
 20
297.0
  9
$ORTHOMODE
 70
     0
  9
$REGENMODE
 70
     1
  9
$FILLMODE
 70
     1
  9
$QTEXTMODE
 70
     0
  9
$MIRRTEXT
 70
     1
  9
$DRAGMODE
 70
     2
  9
$LTSCALE
 40
1.0
  9
$OSMODE
 70
     0
  9
$ATTMODE
 70
     1
  9
$TEXTSIZE
 40
2.5
  9
$TRACEWID
 40
1.0
  9
$TEXTSTYLE
  7
STANDARD
  9
$CLAYER
  8
0
  9
$CELTYPE
  6
BYLAYER
  9
$CECOLOR
 62
   256
  9
$CELTSCALE
 40
1.0
  9
$DELOBJ
 70
     1
  9
$DISPSILH
 70
     0
  9
$DIMSCALE
 40
1.0
  9
$DIMASZ
 40
2.5
  9
$DIMEXO
 40
0.625
  9
$DIMDLI
 40
3.75
  9
$DIMRND
 40
0.0
  9
$DIMDLE
 40
0.0
  9
$DIMEXE
 40
1.25
  9
$DIMTP
 40
0.0
  9
$DIMTM
 40
0.0
  9
$DIMTXT
 40
2.5
  9
$DIMCEN
 40
2.5
  9
$DIMTSZ
 40
0.0
  9
$DIMTOL
 70
     0
  9
$DIMLIM
 70
     0
  9
$DIMTIH
 70
     0
  9
$DIMTOH
 70
     0
  9
$DIMSE1
 70
     0
  9
$DIMSE2
 70
     0
  9
$DIMTAD
 70
     1
  9
$DIMZIN
 70
     8
  9
$DIMBLK
  1

  9
$DIMASO
 70
     1
  9
$DIMSHO
 70
     1
  9
$DIMPOST
  1

  9
$DIMAPOST
  1

  9
$DIMALT
 70
     0
  9
$DIMALTD
 70
     3
  9
$DIMALTF
 40
0.03937
  9
$DIMLFAC
 40
1.0
  9
$DIMTOFL
 70
     1
  9
$DIMTVP
 40
0.0
  9
$DIMTIX
 70
     0
  9
$DIMSOXD
 70
     0
  9
$DIMSAH
 70
     0
  9
$DIMBLK1
  1

  9
$DIMBLK2
  1

  9
$DIMSTYLE
  2
STANDARD
  9
$DIMCLRD
 70
     0
  9
$DIMCLRE
 70
     0
  9
$DIMCLRT
 70
     0
  9
$DIMTFAC
 40
1.0
  9
$DIMGAP
 40
0.625
  9
$DIMJUST
 70
     0
  9
$DIMSD1
 70
     0
  9
$DIMSD2
 70
     0
  9
$DIMTOLJ
 70
     0
  9
$DIMTZIN
 70
     8
  9
$DIMALTZ
 70
     0
  9
$DIMALTTZ
 70
     0
  9
$DIMFIT
 70
     0
  9
$DIMUPT
 70
     0
  9
$DIMUNIT
 70
     2
  9
$DIMDEC
 70
     2
  9
$DIMTDEC
 70
     2
  9
$DIMALTU
 70
     2
  9
$DIMALTTD
 70
     3
  9
$DIMTXSTY
  7
STANDARD
  9
$DIMAUNIT
 70
     0
  9
$LUNITS
 70
     2
  9
$LUPREC
 70
     4
  9
$SKETCHINC
 40
1.0
  9
$FILLETRAD
 40
2.5
  9
$AUNITS
 70
     0
  9
$AUPREC
 70
     0
  9
$MENU
  1
.
  9
$ELEVATION
 40
0.0
  9
$PELEVATION
 40
0.0
  9
$THICKNESS
 40
0.0
  9
$LIMCHECK
 70
     0
  9
$BLIPMODE
 70
     1
  9
$CHAMFERA
 40
2.5
  9
$CHAMFERB
 40
2.5
  9
$CHAMFERC
 40
0.0
  9
$CHAMFERD
 40
0.0
  9
$SKPOLY
 70
     0
  9
$TDCREATE
 40
0.000000000
  9
$TDUPDATE
 40
0.000000000
  9
$TDINDWG
 40
0.0000000000
  9
$TDUSRTIMER
 40
0.0000000000
  9
$USRTIMER
 70
     1
  9
$ANGBASE
 50
0.0
  9
$ANGDIR
 70
     0
  9
$PDMODE
 70
     0
  9
$PDSIZE
 40
0.0
  9
$PLINEWID
 40
0.0
  9
$COORDS
 70
     0
  9
$SPLFRAME
 70
     0
  9
$SPLINETYPE
 70
     6
  9
$SPLINESEGS
 70
     8
  9
$ATTDIA
 70
     0
  9
$ATTREQ
 70
     1
  9
$HANDLING
 70
     1
  9
$HANDSEED
  5
33A
  9
$SURFTAB1
 70
     6
  9
$SURFTAB2
 70
     6
  9
$SURFTYPE
 70
     6
  9
$SURFU
 70
     6
  9
$SURFV
 70
     6
  9
$UCSNAME
  2

  9
$UCSORG
 10
0.0
 20
0.0
 30
0.0
  9
$UCSXDIR
 10
1.0
 20
0.0
 30
0.0
  9
$UCSYDIR
 10
0.0
 20
1.0
 30
0.0
  9
$PUCSNAME
  2

  9
$PUCSORG
 10
0.0
 20
0.0
 30
0.0
  9
$PUCSXDIR
 10
1.0
 20
0.0
 30
0.0
  9
$PUCSYDIR
 10
0.0
 20
1.0
 30
0.0
  9
$USERI1
 70
     0
  9
$USERI2
 70
     0
  9
$USERI3
 70
     0
  9
$USERI4
 70
     0
  9
$USERI5
 70
     0
  9
$USERR1
 40
0.0
  9
$USERR2
 40
0.0
  9
$USERR3
 40
0.0
  9
$USERR4
 40
0.0
  9
$USERR5
 40
0.0
  9
$WORLDVIEW
 70
     1
  9
$SHADEDGE
 70
     3
  9
$SHADEDIF
 70
    70
  9
$TILEMODE
 70
     1
  9
$MAXACTVP
 70
    48
  9
$PINSBASE
 10
0.0
 20
0.0
 30
0.0
  9
$PLIMCHECK
 70
     0
  9
$PEXTMIN
 10
0.0
 20
0.0
 30
0.0
  9
$PEXTMAX
 10
292.0
 20
260.321869
 30
2.0
  9
$PLIMMIN
 10
0.0
 20
0.0
  9
$PLIMMAX
 10
420.0
 20
297.0
  9
$UNITMODE
 70
     0
  9
$VISRETAIN
 70
     0
  9
$PLINEGEN
 70
     0
  9
$PSLTSCALE
 70
     1
  9
$TREEDEPTH
 70
  3020
  9
$PICKSTYLE
 70
     1
  9
$CMLSTYLE
  2
STANDARD
  9
$CMLJUST
 70
     0
  9
$CMLSCALE
 40
20.0
  9
$PROXYGRAPHICS
 70
     1
  9
$MEASUREMENT
 70
     1
  0
ENDSEC
  0
SECTION
  2
CLASSES
  0
CLASS
  1
LWPOLYLINE
  2
AcDbPolyline
  3
"AutoCAD"
 90
        0
280
     0
281
     1
  0
CLASS
  1
IMAGE
  2
AcDbRasterImage
  3
ISM
 90
      127
280
     0
281
     1
  0
CLASS
  1
OLE2FRAME
  2
AcDbOle2Frame
  3
""
 90
        0
280
     0
281
     1
  0
CLASS
  1
HATCH
  2
AcDbHatch
  3
"ACAD_SEDONA"
 90
        0
280
     0
281
     1
  0
CLASS
  1
DICTIONARYVAR
  2
AcDbDictionaryVar
  3
"AutoCAD"
 90
        0
280
     0
281
     0
  0
CLASS
  1
RASTERVARIABLES
  2
AcDbRasterVariables
  3
ISM
 90
        0
280
     0
281
     0
  0
CLASS
  1
IMAGEDEF
  2
AcDbRasterImageDef
  3
ISM
 90
        0
280
     0
281
     0
  0
CLASS
  1
IMAGEDEF_REACTOR
  2
AcDbRasterImageDefReactor
  3
ISM
 90
        1
280
     0
281
     0
  0
CLASS
  1
IDBUFFER
  2
AcDbIdBuffer
  3
"Acad"
 90
        0
280
     0
281
     0
  0
CLASS
  1
SPATIAL_FILTER
  2
AcDbSpatialFilter
  3
"Acad"
 90
        0
280
     0
281
     0
  0
CLASS
  1
XRECORD
  2
AcDbXrecord
  3
"<Built In>"
 90
        0
280
     0
281
     0
  0
CLASS
  1
SORTENTSTABLE
  2
AcDbSortentsTable
  3
"AutoCAD"
 90
        0
280
     0
281
     0
  0
CLASS
  1
LAYER_INDEX
  2
AcDbLayerIndex
  3
"Acad"
 90
        0
280
     0
281
     0
  0
CLASS
  1
SPATIAL_INDEX
  2
AcDbSpatialIndex
  3
"Acad"
 90
        0
280
     0
281
     0
  0
CLASS
  1
OBJECT_PTR
  2
CAseDLPNTableRecord
  3
"ASE-LPNTableRecord"
 90
        1
280
     0
281
     0
  0
CLASS
  1
LAYOUT
  2
AcDbLayout
  3
"AutoCAD 2000"
 90
        0
280
     0
281
     0
  0
CLASS
  1
PLOTSETTINGS
  2
AcDbPlotSettings
  3
"AutoCAD 2000"
 90
        0
280
     0
281
     0
  0
CLASS
  1
ACDBDICTIONARYWDFLT
  2
AcDbDictionaryWithDefault
  3
"AutoCAD 2000"
 90
        0
280
     0
281
     0
  0
CLASS
  1
ACDBPLACEHOLDER
  2
AcDbPlaceHolder
  3
"AutoCAD 2000"
 90
        0
280
     0
281
     0
  0
CLASS
  1
VBA_PROJECT
  2
AcDbVbaProject
  3
"acadvba"
 90
        0
280
     0
281
     0
  0
CLASS
  1
WIPEOUT
  2
AcDbWipeout
  3
WipeOut|AutoCAD Express Tool|expresstools@autodesk.com
 90
      127
280
     0
281
     1
  0
CLASS
  1
WIPEOUTVARIABLES
  2
AcDbWipeoutVariables
  3
WipeOut|AutoCAD Express Tool|expresstools@autodesk.com
 90
        0
280
     0
281
     0
  0
CLASS
  1
RTEXT
  2
RText
  3
RText|AutoCAD Express Tool|expresstools@autodesk.com
 90
        0
280
     0
281
     1
  0
CLASS
  1
ARCALIGNEDTEXT
  2
AcDbArcAlignedText
  3
ATEXT|AutoCAD Express Tool|expresstools@autodesk.com
 90
        0
280
     0
281
     1
  0
ENDSEC
  0
SECTION
  2
TABLES
  0
TABLE
  2
VPORT
  5
7
100
AcDbSymbolTable
 70
     1
  0
VPORT
  5
15
100
AcDbSymbolTableRecord
100
AcDbViewportTableRecord
  2
*ACTIVE
 70
     0
 10
0.0
 20
0.0
 11
1.0
 21
1.0
 12
6.591288
 22
4.579184
 13
0.0
 23
0.0
 14
1.0
 24
1.0
 15
0.0
 25
0.0
 16
0.0
 26
0.0
 36
1.0
 17
0.0
 27
0.0
 37
0.0
 40
9.158369
 41
0.688564
 42
50.0
 43
0.0
 44
0.0
 50
0.0
 51
0.0
 71
     0
 72
   100
 73
     1
 74
     1
 75
     0
 76
     0
 77
     0
 78
     0
  0
ENDTAB
  0
TABLE
  2
LTYPE
  5
4
100
AcDbSymbolTable
 70
    10
  0
LTYPE
  5
11
100
AcDbSymbolTableRecord
100
AcDbLinetypeTableRecord
  2
BYBLOCK
 70
    64
  3

 72
    65
 73
     0
 40
0.0
  0
LTYPE
  5
12
100
AcDbSymbolTableRecord
100
AcDbLinetypeTableRecord
  2
BYLAYER
 70
    64
  3

 72
    65
 73
     0
 40
0.0
  0
LTYPE
  5
13
100
AcDbSymbolTableRecord
100
AcDbLinetypeTableRecord
  2
CONTINUOUS
 70
    64
  3
Solid line
 72
    65
 73
     0
 40
0.0
  0
LTYPE
  5
1D
100
AcDbSymbolTableRecord
100
AcDbLinetypeTableRecord
  2
DASHED
 70
     0
  3
__ __ __ __ __ __ __ __ __ __ __ __ __ __ __ __
 72
    65
 73
     2
 40
15.0
 49
12.0
 74
     0
 49
-3.0
 74
     0
  0
LTYPE
  5
1E
100
AcDbSymbolTableRecord
100
AcDbLinetypeTableRecord
  2
DASHDOT
 70
     0
  3
 __ . __ . __ . __ . __ . __ . __ . 
 72
    65
 73
     4
 40
18.5
 49
12.0
 74
     0
 49
-3.0
 74
     0
 49
0.5
 74
     0
 49
-3.0
 74
     0
  0
LTYPE
  5
1F
100
AcDbSymbolTableRecord
100
AcDbLinetypeTableRecord
  2
DOT
 70
     0
  3
 . . . . . . . . . . . . . . . .
 72
    65
 73
     2
 40
3.5
 49
0.5
 74
     0
 49
-3.0
 74
     0
  0
LTYPE
  5
20
100
AcDbSymbolTableRecord
100
AcDbLinetypeTableRecord
  2
DASHSPACE
 70
     0
  3
__    __    __    __    __   
 72
    65
 73
     2
 40
30.0
 49
12.0
 74
     0
 49
-18.0
 74
     0
  0
LTYPE
  5
21
100
AcDbSymbolTableRecord
100
AcDbLinetypeTableRecord
  2
DASHDOT2
 70
     0
  3
__ . . __ . . __ . . __ 
 72
    65
 73
     6
 40
22.0
 49
12.0
 74
     0
 49
-3.0
 74
     0
 49
0.5
 74
     0
 49
-3.0
 74
     0
 49
0.5
 74
     0
 49
-3.0
 74
     0
  0
LTYPE
  5
22
100
AcDbSymbolTableRecord
100
AcDbLinetypeTableRecord
  2
PHANTOM
 70
     0
  3
____________    ____    ____   _
 72
    65
 73
     6
 40
20.0
 49
10.0
 74
     0
 49
-2.0
 74
     0
 49
2.0
 74
     0
 49
-2.0
 74
     0
 49
2.0
 74
     0
 49
-2.0
 74
     0
  0
LTYPE
  5
23
100
AcDbSymbolTableRecord
100
AcDbLinetypeTableRecord
  2
AXES
 70
     0
  3
________  __  ________  __  _____
 72
    65
 73
     4
 40
24.0
 49
15.0
 74
     0
 49
-3.0
 74
     0
 49
3.0
 74
     0
 49
-3.0
 74
     0
  0
ENDTAB
  0
TABLE
  2
LAYER
  5
2
100
AcDbSymbolTable
 70
     1
  0
LAYER
  5
14
100
AcDbSymbolTableRecord
100
AcDbLayerTableRecord
  2
0
 70
     0
 62
     7
  6
CONTINUOUS
  0
ENDTAB
  0
TABLE
  2
STYLE
  5
3
100
AcDbSymbolTable
 70
     2
  0
STYLE
  5
17
100
AcDbSymbolTableRecord
100
AcDbTextStyleTableRecord
  2
STANDARD
 70
     0
 40
0.0
 41
1.0
 50
0.0
 71
     0
 42
0.0
  3
isocp.shx
  4

  0
STYLE
  5
24
100
AcDbSymbolTableRecord
100
AcDbTextStyleTableRecord
  2
GDT
 70
     0
 40
0.0
 41
1.0
 50
0.0
 71
     0
 42
0.0
  3
amgdt.shx
  4

  0
ENDTAB
  0
TABLE
  2
VIEW
  5
5
100
AcDbSymbolTable
 70
     0
  0
ENDTAB
  0
TABLE
  2
UCS
  5
6
100
AcDbSymbolTable
 70
     0
  0
ENDTAB
  0
TABLE
  2
APPID
  5
8
100
AcDbSymbolTable
 70
     1
  0
APPID
  5
16
100
AcDbSymbolTableRecord
100
AcDbRegAppTableRecord
  2
ACAD
 70
     0
  0
ENDTAB
  0
TABLE
  2
DIMSTYLE
  5
9
100
AcDbSymbolTable
 70
     1
  0
DIMSTYLE
105
18
100
AcDbSymbolTableRecord
100
AcDbDimStyleTableRecord
  2
STANDARD
 70
     0
  3

  4

  5

  6

  7

 40
1.0
 41
2.5
 42
0.625
 43
3.75
 44
1.25
 45
0.0
 46
0.0
 47
0.0
 48
0.0
 71
     0
 72
     0
 73
     0
 74
     0
 75
     0
 76
     0
 77
     1
 78
     8
140
2.5
141
2.5
142
0.0
143
0.03937
144
1.0
145
0.0
146
1.0
147
0.625
170
     0
171
     3
172
     1
173
     0
174
     0
175
     0
176
     0
177
     0
178
     0
270
     2
271
     2
272
     2
273
     2
274
     3
275
     0
280
     0
281
     0
282
     0
283
     0
284
     8
285
     0
286
     0
287
     0
288
     0
340
0
  0
ENDTAB
  0
TABLE
  2
BLOCK_RECORD
  5
1
100
AcDbSymbolTable
 70
    54
  0
BLOCK_RECORD
  5
A
100
AcDbSymbolTableRecord
100
AcDbBlockTableRecord
  2
*MODEL_SPACE
  0
BLOCK_RECORD
  5
B
100
AcDbSymbolTableRecord
100
AcDbBlockTableRecord
  2
*PAPER_SPACE
  0
BLOCK_RECORD
  5
86
100
AcDbSymbolTableRecord
100
AcDbBlockTableRecord
  2
BLOCK0
  0
BLOCK_RECORD
  5
87
100
AcDbSymbolTableRecord
100
AcDbBlockTableRecord
  2
BLOCK1
  0
BLOCK_RECORD
  5
88
100
AcDbSymbolTableRecord
100
AcDbBlockTableRecord
  2
BLOCK2
  0
BLOCK_RECORD
  5
89
100
AcDbSymbolTableRecord
100
AcDbBlockTableRecord
  2
BLOCK3
  0
BLOCK_RECORD
  5
8A
100
AcDbSymbolTableRecord
100
AcDbBlockTableRecord
  2
BLOCK4
  0
BLOCK_RECORD
  5
8B
100
AcDbSymbolTableRecord
100
AcDbBlockTableRecord
  2
BLOCK5
  0
BLOCK_RECORD
  5
8C
100
AcDbSymbolTableRecord
100
AcDbBlockTableRecord
  2
BLOCK6
  0
BLOCK_RECORD
  5
8D
100
AcDbSymbolTableRecord
100
AcDbBlockTableRecord
  2
BLOCK7
  0
BLOCK_RECORD
  5
8E
100
AcDbSymbolTableRecord
100
AcDbBlockTableRecord
  2
BLOCK8
  0
BLOCK_RECORD
  5
8F
100
AcDbSymbolTableRecord
100
AcDbBlockTableRecord
  2
BLOCK9
  0
BLOCK_RECORD
  5
90
100
AcDbSymbolTableRecord
100
AcDbBlockTableRecord
  2
BLOCK10
  0
BLOCK_RECORD
  5
91
100
AcDbSymbolTableRecord
100
AcDbBlockTableRecord
  2
BLOCK11
  0
BLOCK_RECORD
  5
92
100
AcDbSymbolTableRecord
100
AcDbBlockTableRecord
  2
BLOCK12
  0
BLOCK_RECORD
  5
93
100
AcDbSymbolTableRecord
100
AcDbBlockTableRecord
  2
BLOCK13
  0
BLOCK_RECORD
  5
40
100
AcDbSymbolTableRecord
100
AcDbBlockTableRecord
  2
*D14
  0
BLOCK_RECORD
  5
42
100
AcDbSymbolTableRecord
100
AcDbBlockTableRecord
  2
*D15
  0
BLOCK_RECORD
  5
44
100
AcDbSymbolTableRecord
100
AcDbBlockTableRecord
  2
*D16
  0
BLOCK_RECORD
  5
46
100
AcDbSymbolTableRecord
100
AcDbBlockTableRecord
  2
*D17
  0
BLOCK_RECORD
  5
48
100
AcDbSymbolTableRecord
100
AcDbBlockTableRecord
  2
*D18
  0
BLOCK_RECORD
  5
4A
100
AcDbSymbolTableRecord
100
AcDbBlockTableRecord
  2
*D19
  0
BLOCK_RECORD
  5
4C
100
AcDbSymbolTableRecord
100
AcDbBlockTableRecord
  2
*D20
  0
BLOCK_RECORD
  5
4E
100
AcDbSymbolTableRecord
100
AcDbBlockTableRecord
  2
*D21
  0
BLOCK_RECORD
  5
50
100
AcDbSymbolTableRecord
100
AcDbBlockTableRecord
  2
*D22
  0
BLOCK_RECORD
  5
52
100
AcDbSymbolTableRecord
100
AcDbBlockTableRecord
  2
*D23
  0
BLOCK_RECORD
  5
54
100
AcDbSymbolTableRecord
100
AcDbBlockTableRecord
  2
*D24
  0
BLOCK_RECORD
  5
56
100
AcDbSymbolTableRecord
100
AcDbBlockTableRecord
  2
*D25
  0
BLOCK_RECORD
  5
58
100
AcDbSymbolTableRecord
100
AcDbBlockTableRecord
  2
*D26
  0
BLOCK_RECORD
  5
5A
100
AcDbSymbolTableRecord
100
AcDbBlockTableRecord
  2
*D27
  0
BLOCK_RECORD
  5
5C
100
AcDbSymbolTableRecord
100
AcDbBlockTableRecord
  2
*D28
  0
BLOCK_RECORD
  5
5E
100
AcDbSymbolTableRecord
100
AcDbBlockTableRecord
  2
*D29
  0
BLOCK_RECORD
  5
60
100
AcDbSymbolTableRecord
100
AcDbBlockTableRecord
  2
*D30
  0
BLOCK_RECORD
  5
62
100
AcDbSymbolTableRecord
100
AcDbBlockTableRecord
  2
*D31
  0
BLOCK_RECORD
  5
64
100
AcDbSymbolTableRecord
100
AcDbBlockTableRecord
  2
*D32
  0
BLOCK_RECORD
  5
66
100
AcDbSymbolTableRecord
100
AcDbBlockTableRecord
  2
*D33
  0
BLOCK_RECORD
  5
68
100
AcDbSymbolTableRecord
100
AcDbBlockTableRecord
  2
*D34
  0
BLOCK_RECORD
  5
6A
100
AcDbSymbolTableRecord
100
AcDbBlockTableRecord
  2
*D35
  0
BLOCK_RECORD
  5
6C
100
AcDbSymbolTableRecord
100
AcDbBlockTableRecord
  2
*D36
  0
BLOCK_RECORD
  5
6E
100
AcDbSymbolTableRecord
100
AcDbBlockTableRecord
  2
*D37
  0
BLOCK_RECORD
  5
70
100
AcDbSymbolTableRecord
100
AcDbBlockTableRecord
  2
*D38
  0
BLOCK_RECORD
  5
72
100
AcDbSymbolTableRecord
100
AcDbBlockTableRecord
  2
*D39
  0
BLOCK_RECORD
  5
74
100
AcDbSymbolTableRecord
100
AcDbBlockTableRecord
  2
*D40
  0
BLOCK_RECORD
  5
76
100
AcDbSymbolTableRecord
100
AcDbBlockTableRecord
  2
*D41
  0
BLOCK_RECORD
  5
78
100
AcDbSymbolTableRecord
100
AcDbBlockTableRecord
  2
*D42
  0
BLOCK_RECORD
  5
7A
100
AcDbSymbolTableRecord
100
AcDbBlockTableRecord
  2
*D43
  0
BLOCK_RECORD
  5
7C
100
AcDbSymbolTableRecord
100
AcDbBlockTableRecord
  2
*D44
  0
BLOCK_RECORD
  5
7E
100
AcDbSymbolTableRecord
100
AcDbBlockTableRecord
  2
*D45
  0
BLOCK_RECORD
  5
80
100
AcDbSymbolTableRecord
100
AcDbBlockTableRecord
  2
*D46
  0
BLOCK_RECORD
  5
94
100
AcDbSymbolTableRecord
100
AcDbBlockTableRecord
  2
BLOCK14
  0
BLOCK_RECORD
  5
95
100
AcDbSymbolTableRecord
100
AcDbBlockTableRecord
  2
BLOCK15
  0
BLOCK_RECORD
  5
96
100
AcDbSymbolTableRecord
100
AcDbBlockTableRecord
  2
BLOCK16
  0
BLOCK_RECORD
  5
97
100
AcDbSymbolTableRecord
100
AcDbBlockTableRecord
  2
BLOCK17
  0
BLOCK_RECORD
  5
98
100
AcDbSymbolTableRecord
100
AcDbBlockTableRecord
  2
BLOCK18
  0
BLOCK_RECORD
  5
99
100
AcDbSymbolTableRecord
100
AcDbBlockTableRecord
  2
BLOCK19
  0
BLOCK_RECORD
  5
9A
100
AcDbSymbolTableRecord
100
AcDbBlockTableRecord
  2
BLOCK20
  0
ENDTAB
  0
ENDSEC
  0
SECTION
  2
BLOCKS
  0
BLOCK
  5
D
100
AcDbEntity
  8
0
100
AcDbBlockBegin
  2
*MODEL_SPACE
 70
     0
 10
0.0
 20
0.0
 30
0.0
  3
*MODEL_SPACE
  1

  0
ENDBLK
  5
E
100
AcDbEntity
  8
0
100
AcDbBlockEnd
  0
BLOCK
  5
F
100
AcDbEntity
 67
     1
  8
0
100
AcDbBlockBegin
  2
*PAPER_SPACE
 70
     0
 10
0.0
 20
0.0
 30
0.0
  3
*PAPER_SPACE
  1

  0
ENDBLK
  5
10
100
AcDbEntity
 67
     1
  8
0
100
AcDbBlockEnd
  0
BLOCK
  5
9B
100
AcDbEntity
  8
0
100
AcDbBlockBegin
  2
BLOCK0
 70
     0
 10
0.0
 20
0.0
 30
0.0
  3
BLOCK0
  1

  0
TEXT
  5
9C
100
AcDbEntity
  8
0
 62
     7
100
AcDbText
 10
228.0
 20
17.5
 30
0.0
 40
3.5
  1
\U+56F3
 72
     5
 11
231.5
 21
17.5
 31
0.0
100
AcDbText
  0
TEXT
  5
9D
100
AcDbEntity
  8
0
 62
     7
100
AcDbText
 10
228.0
 20
13.941667
 30
0.0
 40
3.5
  1
\U+540D
 72
     5
 11
231.5
 21
13.941667
 31
0.0
100
AcDbText
  0
ENDBLK
  5
9E
100
AcDbEntity
  8
0
100
AcDbBlockEnd
  0
BLOCK
  5
9F
100
AcDbEntity
  8
0
100
AcDbBlockBegin
  2
BLOCK1
 70
     0
 10
0.0
 20
0.0
 30
0.0
  3
BLOCK1
  1

  0
TEXT
  5
A0
100
AcDbEntity
  8
0
 62
     7
100
AcDbText
 10
229.236145
 20
26.041368
 30
0.0
 40
3.5
  1
\U+4E5D\U+5DDE\U+5DE5\U+696D\U+5927\U+5B66
 72
     5
 11
251.986145
 21
26.041368
 31
0.0
100
AcDbText
  0
ENDBLK
  5
A1
100
AcDbEntity
  8
0
100
AcDbBlockEnd
  0
BLOCK
  5
A2
100
AcDbEntity
  8
0
100
AcDbBlockBegin
  2
BLOCK2
 70
     0
 10
0.0
 20
0.0
 30
0.0
  3
BLOCK2
  1

  0
TEXT
  5
A3
100
AcDbEntity
  8
0
 62
     7
100
AcDbText
 10
256.33139
 20
25.810446
 30
0.0
 40
3.5
  1
\U+5B66\U+751F\U+30D5\U+30A9\U+30FC\U+30DF\U+30E5\U+30E9
 72
     5
 11
286.781403
 21
25.810446
 31
0.0
100
AcDbText
  0
ENDBLK
  5
A4
100
AcDbEntity
  8
0
100
AcDbBlockEnd
  0
BLOCK
  5
A5
100
AcDbEntity
  8
0
100
AcDbBlockBegin
  2
BLOCK3
 70
     0
 10
0.0
 20
0.0
 30
0.0
  3
BLOCK3
  1

  0
TEXT
  5
A6
100
AcDbEntity
  8
0
 62
     7
100
AcDbText
 10
227.944092
 20
37.764122
 30
0.0
 40
3.5
  1
\U+5C3A
 72
     5
 11
231.444092
 21
37.764122
 31
0.0
100
AcDbText
  0
TEXT
  5
A7
100
AcDbEntity
  8
0
 62
     7
100
AcDbText
 10
227.944092
 20
34.205788
 30
0.0
 40
3.5
  1
\U+5EA6
 72
     5
 11
231.444092
 21
34.205788
 31
0.0
100
AcDbText
  0
ENDBLK
  5
A8
100
AcDbEntity
  8
0
100
AcDbBlockEnd
  0
BLOCK
  5
A9
100
AcDbEntity
  8
0
100
AcDbBlockBegin
  2
BLOCK4
 70
     0
 10
0.0
 20
0.0
 30
0.0
  3
BLOCK4
  1

  0
TEXT
  5
AA
100
AcDbEntity
  8
0
 62
     7
100
AcDbText
 10
249.131073
 20
39.885387
 30
0.0
 40
3.5
  1
\U+6295
 72
     5
 11
252.631073
 21
39.885387
 31
0.0
100
AcDbText
  0
TEXT
  5
AB
100
AcDbEntity
  8
0
 62
     7
100
AcDbText
 10
249.131073
 20
36.327053
 30
0.0
 40
3.5
  1
\U+5F71
 72
     5
 11
252.631073
 21
36.327053
 31
0.0
100
AcDbText
  0
TEXT
  5
AC
100
AcDbEntity
  8
0
 62
     7
100
AcDbText
 10
249.131073
 20
32.768723
 30
0.0
 40
3.5
  1
\U+6CD5
 72
     5
 11
252.631073
 21
32.768723
 31
0.0
100
AcDbText
  0
ENDBLK
  5
AD
100
AcDbEntity
  8
0
100
AcDbBlockEnd
  0
BLOCK
  5
AE
100
AcDbEntity
  8
0
100
AcDbBlockBegin
  2
BLOCK5
 70
     0
 10
0.0
 20
0.0
 30
0.0
  3
BLOCK5
  1

  0
TEXT
  5
AF
100
AcDbEntity
  8
0
 62
     7
100
AcDbText
 10
265.962769
 20
45.003735
 30
0.0
 40
3.5
  1
\U+6750\U+6599
 72
     5
 11
273.662781
 21
45.003735
 31
0.0
100
AcDbText
  0
ENDBLK
  5
B0
100
AcDbEntity
  8
0
100
AcDbBlockEnd
  0
BLOCK
  5
B1
100
AcDbEntity
  8
0
100
AcDbBlockBegin
  2
BLOCK6
 70
     0
 10
0.0
 20
0.0
 30
0.0
  3
BLOCK6
  1

  0
TEXT
  5
B2
100
AcDbEntity
  8
0
 62
     7
100
AcDbText
 10
277.558258
 20
44.834057
 30
0.0
 40
3.5
  1
\U+500B\U+6570
 72
     5
 11
285.25827
 21
44.834057
 31
0.0
100
AcDbText
  0
ENDBLK
  5
B3
100
AcDbEntity
  8
0
100
AcDbBlockEnd
  0
BLOCK
  5
B4
100
AcDbEntity
  8
0
100
AcDbBlockBegin
  2
BLOCK7
 70
     0
 10
0.0
 20
0.0
 30
0.0
  3
BLOCK7
  1

  0
TEXT
  5
B5
100
AcDbEntity
  8
0
 62
     7
100
AcDbText
 10
265.277222
 20
51.165356
 30
0.0
 40
2.24
  1
A6061
 72
     5
 11
274.386566
 21
51.165356
 31
0.0
100
AcDbText
  0
ENDBLK
  5
B6
100
AcDbEntity
  8
0
100
AcDbBlockEnd
  0
BLOCK
  5
B7
100
AcDbEntity
  8
0
100
AcDbBlockBegin
  2
BLOCK8
 70
     0
 10
0.0
 20
0.0
 30
0.0
  3
BLOCK8
  1

  0
TEXT
  5
B8
100
AcDbEntity
  8
0
 62
     7
100
AcDbText
 10
238.0
 20
35.5
 30
0.0
 40
3.5
  1
1:2
 72
     5
 11
245.0
 21
35.5
 31
0.0
100
AcDbText
  0
ENDBLK
  5
B9
100
AcDbEntity
  8
0
100
AcDbBlockEnd
  0
BLOCK
  5
BA
100
AcDbEntity
  8
0
100
AcDbBlockBegin
  2
BLOCK9
 70
     0
 10
0.0
 20
0.0
 30
0.0
  3
BLOCK9
  1

  0
TEXT
  5
BB
100
AcDbEntity
  8
0
 62
     7
100
AcDbText
 10
237.389023
 20
45.011219
 30
0.0
 40
3.5
  1
\U+4F1D\U+7968\U+756A\U+53F7
 72
     5
 11
254.539032
 21
45.011219
 31
0.0
100
AcDbText
  0
ENDBLK
  5
BC
100
AcDbEntity
  8
0
100
AcDbBlockEnd
  0
BLOCK
  5
BD
100
AcDbEntity
  8
0
100
AcDbBlockBegin
  2
BLOCK10
 70
     0
 10
0.0
 20
0.0
 30
0.0
  3
BLOCK10
  1

  0
TEXT
  5
BE
100
AcDbEntity
  8
0
 62
     7
100
AcDbText
 10
234.0
 20
50.5
 30
0.0
 40
3.5
  1
GF-2
 72
     5
 11
247.883331
 21
50.5
 31
0.0
100
AcDbText
  0
ENDBLK
  5
BF
100
AcDbEntity
  8
0
100
AcDbBlockEnd
  0
BLOCK
  5
C0
100
AcDbEntity
  8
0
100
AcDbBlockBegin
  2
BLOCK11
 70
     0
 10
0.0
 20
0.0
 30
0.0
  3
BLOCK11
  1

  0
TEXT
  5
C1
100
AcDbEntity
  8
0
 62
     7
100
AcDbText
 10
240.0
 20
16.5
 30
0.0
 40
3.5
  1
wing-bracket
 72
     5
 11
266.600006
 21
16.5
 31
0.0
100
AcDbText
  0
ENDBLK
  5
C2
100
AcDbEntity
  8
0
100
AcDbBlockEnd
  0
BLOCK
  5
C3
100
AcDbEntity
  8
0
100
AcDbBlockBegin
  2
BLOCK12
 70
     0
 10
0.0
 20
0.0
 30
0.0
  3
BLOCK12
  1

  0
TEXT
  5
C4
100
AcDbEntity
  8
0
 62
     7
100
AcDbText
 10
280.0
 20
50.5
 30
0.0
 40
3.5
  1
2
 72
     5
 11
282.566681
 21
50.5
 31
0.0
100
AcDbText
  0
ENDBLK
  5
C5
100
AcDbEntity
  8
0
100
AcDbBlockEnd
  0
BLOCK
  5
C6
100
AcDbEntity
  8
0
100
AcDbBlockBegin
  2
BLOCK13
 70
     0
 10
0.0
 20
0.0
 30
0.0
  3
BLOCK13
  1

  0
TEXT
  5
C7
100
AcDbEntity
  8
0
 62
     7
100
AcDbText
 10
-166.0
 20
-64.0
 30
0.0
 40
7.0
  1
\U+6B63\U+9762\U+56F3
 72
     5
 11
-145.0
 21
-64.0
 31
0.0
100
AcDbText
  0
TEXT
  5
C8
100
AcDbEntity
  8
0
 62
     7
100
AcDbText
 10
-145.0
 20
-64.0
 30
0.0
 40
7.0
  1
  (1:2)
 72
     5
 11
-122.599998
 21
-64.0
 31
0.0
100
AcDbText
  0
ENDBLK
  5
C9
100
AcDbEntity
  8
0
100
AcDbBlockEnd
  0
BLOCK
  5
CA
100
AcDbEntity
  8
0
100
AcDbBlockBegin
  2
*D14
 70
    65
 10
0.0
 20
0.0
 30
0.0
  3
*D14
  1

  0
TEXT
  5
CB
100
AcDbEntity
  8
0
 62
     7
100
AcDbText
 10
101.628921
 20
158.979987
 30
0.0
 40
3.5
  1
32.4
 50
90.000003
 72
     5
 11
101.628921
 21
169.24665
 31
0.0
100
AcDbText
  0
LINE
  5
CC
100
AcDbEntity
  8
0
 62
     7
100
AcDbLine
 10
62.861084
 20
156.008758
 30
0.0
 11
104.128921
 21
156.008758
 31
0.0
210
0.0
220
0.0
230
1.0
  0
LINE
  5
CD
100
AcDbEntity
  8
0
 62
     7
100
AcDbLine
 10
50.069473
 20
172.217879
 30
0.0
 11
104.128921
 21
172.217879
 31
0.0
210
0.0
220
0.0
230
1.0
  0
POLYLINE
  5
CE
100
AcDbEntity
  8
0
 62
     7
100
AcDb2dPolyline
 66
     1
 10
0.0
 20
0.0
 30
0.0
 71
     3
  0
VERTEX
  5
CF
100
AcDbEntity
  8
0
100
AcDbVertex
100
AcDb2dVertex
 10
101.611282
 20
174.149733
 30
0.0
  0
VERTEX
  5
D0
100
AcDbEntity
  8
0
100
AcDbVertex
100
AcDb2dVertex
 10
102.128921
 20
172.217879
 30
0.0
  0
VERTEX
  5
D1
100
AcDbEntity
  8
0
100
AcDbVertex
100
AcDb2dVertex
 10
102.64656
 20
174.149733
 30
0.0
  0
SEQEND
  5
D2
100
AcDbEntity
  8
0
  0
POLYLINE
  5
D3
100
AcDbEntity
  8
0
 62
     7
100
AcDb2dPolyline
 66
     1
 10
0.0
 20
0.0
 30
0.0
 71
     3
  0
VERTEX
  5
D4
100
AcDbEntity
  8
0
100
AcDbVertex
100
AcDb2dVertex
 10
102.64656
 20
154.076903
 30
0.0
  0
VERTEX
  5
D5
100
AcDbEntity
  8
0
100
AcDbVertex
100
AcDb2dVertex
 10
102.128921
 20
156.008758
 30
0.0
  0
VERTEX
  5
D6
100
AcDbEntity
  8
0
100
AcDbVertex
100
AcDb2dVertex
 10
101.611282
 20
154.076903
 30
0.0
  0
SEQEND
  5
D7
100
AcDbEntity
  8
0
  0
LINE
  5
D8
100
AcDbEntity
  8
0
 62
     7
100
AcDbLine
 10
102.128921
 20
151.008758
 30
0.0
 11
102.128921
 21
177.217879
 31
0.0
210
0.0
220
0.0
230
1.0
  0
ENDBLK
  5
D9
100
AcDbEntity
  8
0
100
AcDbBlockEnd
  0
BLOCK
  5
DA
100
AcDbEntity
  8
0
100
AcDbBlockBegin
  2
*D15
 70
    65
 10
0.0
 20
0.0
 30
0.0
  3
*D15
  1

  0
TEXT
  5
DB
100
AcDbEntity
  8
0
 62
     7
100
AcDbText
 10
161.556442
 20
144.966185
 30
0.0
 40
3.5
  1
88.9
 50
90.000003
 72
     5
 11
161.556442
 21
154.999511
 31
0.0
100
AcDbText
  0
LINE
  5
DC
100
AcDbEntity
  8
0
 62
     7
100
AcDbLine
 10
50.069488
 20
127.747813
 30
0.0
 11
164.056442
 21
127.747813
 31
0.0
210
0.0
220
0.0
230
1.0
  0
LINE
  5
DD
100
AcDbEntity
  8
0
 62
     7
100
AcDbLine
 10
50.069473
 20
172.217879
 30
0.0
 11
164.056442
 21
172.217879
 31
0.0
210
0.0
220
0.0
230
1.0
  0
POLYLINE
  5
DE
100
AcDbEntity
  8
0
 62
     7
100
AcDb2dPolyline
 66
     1
 10
0.0
 20
0.0
 30
0.0
 71
     3
  0
VERTEX
  5
DF
100
AcDbEntity
  8
0
100
AcDbVertex
100
AcDb2dVertex
 10
162.574081
 20
170.286025
 30
0.0
  0
VERTEX
  5
E0
100
AcDbEntity
  8
0
100
AcDbVertex
100
AcDb2dVertex
 10
162.056442
 20
172.217879
 30
0.0
  0
VERTEX
  5
E1
100
AcDbEntity
  8
0
100
AcDbVertex
100
AcDb2dVertex
 10
161.538803
 20
170.286025
 30
0.0
  0
SEQEND
  5
E2
100
AcDbEntity
  8
0
  0
POLYLINE
  5
E3
100
AcDbEntity
  8
0
 62
     7
100
AcDb2dPolyline
 66
     1
 10
0.0
 20
0.0
 30
0.0
 71
     3
  0
VERTEX
  5
E4
100
AcDbEntity
  8
0
100
AcDbVertex
100
AcDb2dVertex
 10
161.538803
 20
129.679667
 30
0.0
  0
VERTEX
  5
E5
100
AcDbEntity
  8
0
100
AcDbVertex
100
AcDb2dVertex
 10
162.056442
 20
127.747813
 30
0.0
  0
VERTEX
  5
E6
100
AcDbEntity
  8
0
100
AcDbVertex
100
AcDb2dVertex
 10
162.574081
 20
129.679667
 30
0.0
  0
SEQEND
  5
E7
100
AcDbEntity
  8
0
  0
LINE
  5
E8
100
AcDbEntity
  8
0
 62
     7
100
AcDbLine
 10
162.056442
 20
127.747813
 30
0.0
 11
162.056442
 21
172.217879
 31
0.0
210
0.0
220
0.0
230
1.0
  0
ENDBLK
  5
E9
100
AcDbEntity
  8
0
100
AcDbBlockEnd
  0
BLOCK
  5
EA
100
AcDbEntity
  8
0
100
AcDbBlockBegin
  2
*D16
 70
    65
 10
0.0
 20
0.0
 30
0.0
  3
*D16
  1

  0
TEXT
  5
EB
100
AcDbEntity
  8
0
 62
     7
100
AcDbText
 10
221.574204
 20
113.730735
 30
0.0
 40
3.5
  1
207.3
 50
90.000003
 72
     5
 11
221.574203
 21
127.030738
 31
0.0
100
AcDbText
  0
LINE
  5
EC
100
AcDbEntity
  8
0
 62
     7
 48
0.367789
100
AcDbLine
 10
209.362658
 20
68.543592
 30
0.0
 11
224.074204
 21
68.543592
 31
0.0
210
0.0
220
0.0
230
1.0
  0
LINE
  5
ED
100
AcDbEntity
  8
0
 62
     7
100
AcDbLine
 10
48.444473
 20
172.217879
 30
0.0
 11
224.074204
 21
172.217879
 31
0.0
210
0.0
220
0.0
230
1.0
  0
POLYLINE
  5
EE
100
AcDbEntity
  8
0
 62
     7
100
AcDb2dPolyline
 66
     1
 10
0.0
 20
0.0
 30
0.0
 71
     3
  0
VERTEX
  5
EF
100
AcDbEntity
  8
0
100
AcDbVertex
100
AcDb2dVertex
 10
222.591842
 20
170.286025
 30
0.0
  0
VERTEX
  5
F0
100
AcDbEntity
  8
0
100
AcDbVertex
100
AcDb2dVertex
 10
222.074204
 20
172.217879
 30
0.0
  0
VERTEX
  5
F1
100
AcDbEntity
  8
0
100
AcDbVertex
100
AcDb2dVertex
 10
221.556565
 20
170.286025
 30
0.0
  0
SEQEND
  5
F2
100
AcDbEntity
  8
0
  0
POLYLINE
  5
F3
100
AcDbEntity
  8
0
 62
     7
100
AcDb2dPolyline
 66
     1
 10
0.0
 20
0.0
 30
0.0
 71
     3
  0
VERTEX
  5
F4
100
AcDbEntity
  8
0
100
AcDbVertex
100
AcDb2dVertex
 10
221.556565
 20
70.475443
 30
0.0
  0
VERTEX
  5
F5
100
AcDbEntity
  8
0
100
AcDbVertex
100
AcDb2dVertex
 10
222.074204
 20
68.543592
 30
0.0
  0
VERTEX
  5
F6
100
AcDbEntity
  8
0
100
AcDbVertex
100
AcDb2dVertex
 10
222.591842
 20
70.475443
 30
0.0
  0
SEQEND
  5
F7
100
AcDbEntity
  8
0
  0
LINE
  5
F8
100
AcDbEntity
  8
0
 62
     7
100
AcDbLine
 10
222.074204
 20
68.543592
 30
0.0
 11
222.074204
 21
172.217879
 31
0.0
210
0.0
220
0.0
230
1.0
  0
ENDBLK
  5
F9
100
AcDbEntity
  8
0
100
AcDbBlockEnd
  0
BLOCK
  5
FA
100
AcDbEntity
  8
0
100
AcDbBlockBegin
  2
*D17
 70
    65
 10
0.0
 20
0.0
 30
0.0
  3
*D17
  1

  0
TEXT
  5
FB
100
AcDbEntity
  8
0
 62
     7
100
AcDbText
 10
151.766281
 20
148.416083
 30
0.0
 40
3.5
  1
76.1
 50
90.000003
 72
     5
 11
151.766281
 21
157.982749
 31
0.0
100
AcDbText
  0
LINE
  5
FC
100
AcDbEntity
  8
0
 62
     7
100
AcDbLine
 10
91.440536
 20
134.180961
 30
0.0
 11
154.266281
 21
134.180961
 31
0.0
210
0.0
220
0.0
230
1.0
  0
LINE
  5
FD
100
AcDbEntity
  8
0
 62
     7
100
AcDbLine
 10
48.444473
 20
172.217879
 30
0.0
 11
154.266281
 21
172.217879
 31
0.0
210
0.0
220
0.0
230
1.0
  0
POLYLINE
  5
FE
100
AcDbEntity
  8
0
 62
     7
100
AcDb2dPolyline
 66
     1
 10
0.0
 20
0.0
 30
0.0
 71
     3
  0
VERTEX
  5
FF
100
AcDbEntity
  8
0
100
AcDbVertex
100
AcDb2dVertex
 10
152.78392
 20
170.286025
 30
0.0
  0
VERTEX
  5
100
100
AcDbEntity
  8
0
100
AcDbVertex
100
AcDb2dVertex
 10
152.266281
 20
172.217879
 30
0.0
  0
VERTEX
  5
101
100
AcDbEntity
  8
0
100
AcDbVertex
100
AcDb2dVertex
 10
151.748642
 20
170.286025
 30
0.0
  0
SEQEND
  5
102
100
AcDbEntity
  8
0
  0
POLYLINE
  5
103
100
AcDbEntity
  8
0
 62
     7
100
AcDb2dPolyline
 66
     1
 10
0.0
 20
0.0
 30
0.0
 71
     3
  0
VERTEX
  5
104
100
AcDbEntity
  8
0
100
AcDbVertex
100
AcDb2dVertex
 10
151.748642
 20
136.112807
 30
0.0
  0
VERTEX
  5
105
100
AcDbEntity
  8
0
100
AcDbVertex
100
AcDb2dVertex
 10
152.266281
 20
134.180961
 30
0.0
  0
VERTEX
  5
106
100
AcDbEntity
  8
0
100
AcDbVertex
100
AcDb2dVertex
 10
152.78392
 20
136.112807
 30
0.0
  0
SEQEND
  5
107
100
AcDbEntity
  8
0
  0
LINE
  5
108
100
AcDbEntity
  8
0
 62
     7
100
AcDbLine
 10
152.266281
 20
134.180961
 30
0.0
 11
152.266281
 21
172.217879
 31
0.0
210
0.0
220
0.0
230
1.0
  0
ENDBLK
  5
109
100
AcDbEntity
  8
0
100
AcDbBlockEnd
  0
BLOCK
  5
10A
100
AcDbEntity
  8
0
100
AcDbBlockBegin
  2
*D18
 70
    65
 10
0.0
 20
0.0
 30
0.0
  3
*D18
  1

  0
TEXT
  5
10B
100
AcDbEntity
  8
0
 62
     7
100
AcDbText
 10
171.626327
 20
122.016955
 30
0.0
 40
3.5
  1
176.1
 50
90.000003
 72
     5
 11
171.626327
 21
134.38362
 31
0.0
100
AcDbText
  0
LINE
  5
10C
100
AcDbEntity
  8
0
 62
     7
 48
0.446444
100
AcDbLine
 10
156.268577
 20
84.182698
 30
0.0
 11
174.126327
 21
84.182698
 31
0.0
210
0.0
220
0.0
230
1.0
  0
LINE
  5
10D
100
AcDbEntity
  8
0
 62
     7
100
AcDbLine
 10
48.444473
 20
172.217879
 30
0.0
 11
174.126327
 21
172.217879
 31
0.0
210
0.0
220
0.0
230
1.0
  0
POLYLINE
  5
10E
100
AcDbEntity
  8
0
 62
     7
100
AcDb2dPolyline
 66
     1
 10
0.0
 20
0.0
 30
0.0
 71
     3
  0
VERTEX
  5
10F
100
AcDbEntity
  8
0
100
AcDbVertex
100
AcDb2dVertex
 10
172.643966
 20
170.286025
 30
0.0
  0
VERTEX
  5
110
100
AcDbEntity
  8
0
100
AcDbVertex
100
AcDb2dVertex
 10
172.126327
 20
172.217879
 30
0.0
  0
VERTEX
  5
111
100
AcDbEntity
  8
0
100
AcDbVertex
100
AcDb2dVertex
 10
171.608688
 20
170.286025
 30
0.0
  0
SEQEND
  5
112
100
AcDbEntity
  8
0
  0
POLYLINE
  5
113
100
AcDbEntity
  8
0
 62
     7
100
AcDb2dPolyline
 66
     1
 10
0.0
 20
0.0
 30
0.0
 71
     3
  0
VERTEX
  5
114
100
AcDbEntity
  8
0
100
AcDbVertex
100
AcDb2dVertex
 10
171.608688
 20
86.114549
 30
0.0
  0
VERTEX
  5
115
100
AcDbEntity
  8
0
100
AcDbVertex
100
AcDb2dVertex
 10
172.126327
 20
84.182698
 30
0.0
  0
VERTEX
  5
116
100
AcDbEntity
  8
0
100
AcDbVertex
100
AcDb2dVertex
 10
172.643966
 20
86.114549
 30
0.0
  0
SEQEND
  5
117
100
AcDbEntity
  8
0
  0
LINE
  5
118
100
AcDbEntity
  8
0
 62
     7
100
AcDbLine
 10
172.126327
 20
84.182698
 30
0.0
 11
172.126327
 21
172.217879
 31
0.0
210
0.0
220
0.0
230
1.0
  0
ENDBLK
  5
119
100
AcDbEntity
  8
0
100
AcDbBlockEnd
  0
BLOCK
  5
11A
100
AcDbEntity
  8
0
100
AcDbBlockBegin
  2
*D19
 70
    65
 10
0.0
 20
0.0
 30
0.0
  3
*D19
  1

  0
TEXT
  5
11B
100
AcDbEntity
  8
0
 62
     7
100
AcDbText
 10
66.01448
 20
86.027802
 30
0.0
 40
3.5
  1
24.9
 72
     5
 11
76.281143
 21
86.027802
 31
0.0
100
AcDbText
  0
LINE
  5
11C
100
AcDbEntity
  8
0
 62
     7
100
AcDbLine
 10
46.444473
 20
170.217879
 30
0.0
 11
46.444473
 21
83.527802
 31
0.0
210
0.0
220
0.0
230
1.0
  0
LINE
  5
11D
100
AcDbEntity
  8
0
 62
     7
100
AcDbLine
 10
58.911087
 20
154.008758
 30
0.0
 11
58.911087
 21
83.527802
 31
0.0
210
0.0
220
0.0
230
1.0
  0
POLYLINE
  5
11E
100
AcDbEntity
  8
0
 62
     7
100
AcDb2dPolyline
 66
     1
 10
0.0
 20
0.0
 30
0.0
 71
     3
  0
VERTEX
  5
11F
100
AcDbEntity
  8
0
100
AcDbVertex
100
AcDb2dVertex
 10
48.376327
 20
86.04544
 30
0.0
  0
VERTEX
  5
120
100
AcDbEntity
  8
0
100
AcDbVertex
100
AcDb2dVertex
 10
46.444473
 20
85.527802
 30
0.0
  0
VERTEX
  5
121
100
AcDbEntity
  8
0
100
AcDbVertex
100
AcDb2dVertex
 10
48.376327
 20
85.010165
 30
0.0
  0
SEQEND
  5
122
100
AcDbEntity
  8
0
  0
POLYLINE
  5
123
100
AcDbEntity
  8
0
 62
     7
100
AcDb2dPolyline
 66
     1
 10
0.0
 20
0.0
 30
0.0
 71
     3
  0
VERTEX
  5
124
100
AcDbEntity
  8
0
100
AcDbVertex
100
AcDb2dVertex
 10
56.979232
 20
85.010165
 30
0.0
  0
VERTEX
  5
125
100
AcDbEntity
  8
0
100
AcDbVertex
100
AcDb2dVertex
 10
58.911087
 20
85.527802
 30
0.0
  0
VERTEX
  5
126
100
AcDbEntity
  8
0
100
AcDbVertex
100
AcDb2dVertex
 10
56.979232
 20
86.04544
 30
0.0
  0
SEQEND
  5
127
100
AcDbEntity
  8
0
  0
LINE
  5
128
100
AcDbEntity
  8
0
 62
     7
100
AcDbLine
 10
46.444473
 20
85.527802
 30
0.0
 11
78.281143
 21
85.527802
 31
0.0
210
0.0
220
0.0
230
1.0
  0
ENDBLK
  5
129
100
AcDbEntity
  8
0
100
AcDbBlockEnd
  0
BLOCK
  5
12A
100
AcDbEntity
  8
0
100
AcDbBlockBegin
  2
*D20
 70
    65
 10
0.0
 20
0.0
 30
0.0
  3
*D20
  1

  0
TEXT
  5
12B
100
AcDbEntity
  8
0
 62
     7
100
AcDbText
 10
65.025833
 20
95.965186
 30
0.0
 40
3.5
  1
86
 72
     5
 11
70.859176
 21
95.965186
 31
0.0
100
AcDbText
  0
LINE
  5
12C
100
AcDbEntity
  8
0
 62
     7
100
AcDbLine
 10
46.444473
 20
170.217879
 30
0.0
 11
46.444473
 21
93.465186
 31
0.0
210
0.0
220
0.0
230
1.0
  0
LINE
  5
12D
100
AcDbEntity
  8
0
 62
     7
100
AcDbLine
 10
89.440536
 20
132.180961
 30
0.0
 11
89.440536
 21
93.465186
 31
0.0
210
0.0
220
0.0
230
1.0
  0
POLYLINE
  5
12E
100
AcDbEntity
  8
0
 62
     7
100
AcDb2dPolyline
 66
     1
 10
0.0
 20
0.0
 30
0.0
 71
     3
  0
VERTEX
  5
12F
100
AcDbEntity
  8
0
100
AcDbVertex
100
AcDb2dVertex
 10
48.376327
 20
95.982823
 30
0.0
  0
VERTEX
  5
130
100
AcDbEntity
  8
0
100
AcDbVertex
100
AcDb2dVertex
 10
46.444473
 20
95.465186
 30
0.0
  0
VERTEX
  5
131
100
AcDbEntity
  8
0
100
AcDbVertex
100
AcDb2dVertex
 10
48.376327
 20
94.947549
 30
0.0
  0
SEQEND
  5
132
100
AcDbEntity
  8
0
  0
POLYLINE
  5
133
100
AcDbEntity
  8
0
 62
     7
100
AcDb2dPolyline
 66
     1
 10
0.0
 20
0.0
 30
0.0
 71
     3
  0
VERTEX
  5
134
100
AcDbEntity
  8
0
100
AcDbVertex
100
AcDb2dVertex
 10
87.508682
 20
94.947549
 30
0.0
  0
VERTEX
  5
135
100
AcDbEntity
  8
0
100
AcDbVertex
100
AcDb2dVertex
 10
89.440536
 20
95.465186
 30
0.0
  0
VERTEX
  5
136
100
AcDbEntity
  8
0
100
AcDbVertex
100
AcDb2dVertex
 10
87.508682
 20
95.982823
 30
0.0
  0
SEQEND
  5
137
100
AcDbEntity
  8
0
  0
LINE
  5
138
100
AcDbEntity
  8
0
 62
     7
100
AcDbLine
 10
46.444473
 20
95.465186
 30
0.0
 11
89.440536
 21
95.465186
 31
0.0
210
0.0
220
0.0
230
1.0
  0
ENDBLK
  5
139
100
AcDbEntity
  8
0
100
AcDbBlockEnd
  0
BLOCK
  5
13A
100
AcDbEntity
  8
0
100
AcDbBlockBegin
  2
*D21
 70
    65
 10
0.0
 20
0.0
 30
0.0
  3
*D21
  1

  0
TEXT
  5
13B
100
AcDbEntity
  8
0
 62
     7
100
AcDbText
 10
93.939865
 20
76.090424
 30
0.0
 40
3.5
  1
215.6
 72
     5
 11
106.773193
 21
76.090424
 31
0.0
100
AcDbText
  0
LINE
  5
13C
100
AcDbEntity
  8
0
 62
     7
100
AcDbLine
 10
46.444473
 20
170.217879
 30
0.0
 11
46.444473
 21
73.590424
 31
0.0
210
0.0
220
0.0
230
1.0
  0
LINE
  5
13D
100
AcDbEntity
  8
0
 62
     7
 48
0.214807
100
AcDbLine
 10
154.268577
 20
82.182698
 30
0.0
 11
154.268577
 21
73.590424
 31
0.0
210
0.0
220
0.0
230
1.0
  0
POLYLINE
  5
13E
100
AcDbEntity
  8
0
 62
     7
100
AcDb2dPolyline
 66
     1
 10
0.0
 20
0.0
 30
0.0
 71
     3
  0
VERTEX
  5
13F
100
AcDbEntity
  8
0
100
AcDbVertex
100
AcDb2dVertex
 10
48.376327
 20
76.108062
 30
0.0
  0
VERTEX
  5
140
100
AcDbEntity
  8
0
100
AcDbVertex
100
AcDb2dVertex
 10
46.444473
 20
75.590424
 30
0.0
  0
VERTEX
  5
141
100
AcDbEntity
  8
0
100
AcDbVertex
100
AcDb2dVertex
 10
48.376327
 20
75.072785
 30
0.0
  0
SEQEND
  5
142
100
AcDbEntity
  8
0
  0
POLYLINE
  5
143
100
AcDbEntity
  8
0
 62
     7
100
AcDb2dPolyline
 66
     1
 10
0.0
 20
0.0
 30
0.0
 71
     3
  0
VERTEX
  5
144
100
AcDbEntity
  8
0
100
AcDbVertex
100
AcDb2dVertex
 10
152.336723
 20
75.072785
 30
0.0
  0
VERTEX
  5
145
100
AcDbEntity
  8
0
100
AcDbVertex
100
AcDb2dVertex
 10
154.268577
 20
75.590424
 30
0.0
  0
VERTEX
  5
146
100
AcDbEntity
  8
0
100
AcDbVertex
100
AcDb2dVertex
 10
152.336723
 20
76.108062
 30
0.0
  0
SEQEND
  5
147
100
AcDbEntity
  8
0
  0
LINE
  5
148
100
AcDbEntity
  8
0
 62
     7
100
AcDbLine
 10
46.444473
 20
75.590424
 30
0.0
 11
154.268577
 21
75.590424
 31
0.0
210
0.0
220
0.0
230
1.0
  0
ENDBLK
  5
149
100
AcDbEntity
  8
0
100
AcDbBlockEnd
  0
BLOCK
  5
14A
100
AcDbEntity
  8
0
100
AcDbBlockBegin
  2
*D22
 70
    65
 10
0.0
 20
0.0
 30
0.0
  3
*D22
  1

  0
TEXT
  5
14B
100
AcDbEntity
  8
0
 62
     7
100
AcDbText
 10
120.4869
 20
61.106689
 30
0.0
 40
3.5
  1
321.8
 72
     5
 11
133.320228
 21
61.106689
 31
0.0
100
AcDbText
  0
LINE
  5
14C
100
AcDbEntity
  8
0
 62
     7
100
AcDbLine
 10
46.444473
 20
170.217879
 30
0.0
 11
46.444473
 21
58.606689
 31
0.0
210
0.0
220
0.0
230
1.0
  0
LINE
  5
14D
100
AcDbEntity
  8
0
 62
     7
 48
0.198423
100
AcDbLine
 10
207.362658
 20
66.543592
 30
0.0
 11
207.362658
 21
58.606689
 31
0.0
210
0.0
220
0.0
230
1.0
  0
POLYLINE
  5
14E
100
AcDbEntity
  8
0
 62
     7
100
AcDb2dPolyline
 66
     1
 10
0.0
 20
0.0
 30
0.0
 71
     3
  0
VERTEX
  5
14F
100
AcDbEntity
  8
0
100
AcDbVertex
100
AcDb2dVertex
 10
48.376327
 20
61.124328
 30
0.0
  0
VERTEX
  5
150
100
AcDbEntity
  8
0
100
AcDbVertex
100
AcDb2dVertex
 10
46.444473
 20
60.606689
 30
0.0
  0
VERTEX
  5
151
100
AcDbEntity
  8
0
100
AcDbVertex
100
AcDb2dVertex
 10
48.376327
 20
60.089051
 30
0.0
  0
SEQEND
  5
152
100
AcDbEntity
  8
0
  0
POLYLINE
  5
153
100
AcDbEntity
  8
0
 62
     7
100
AcDb2dPolyline
 66
     1
 10
0.0
 20
0.0
 30
0.0
 71
     3
  0
VERTEX
  5
154
100
AcDbEntity
  8
0
100
AcDbVertex
100
AcDb2dVertex
 10
205.430807
 20
60.089051
 30
0.0
  0
VERTEX
  5
155
100
AcDbEntity
  8
0
100
AcDbVertex
100
AcDb2dVertex
 10
207.362658
 20
60.606689
 30
0.0
  0
VERTEX
  5
156
100
AcDbEntity
  8
0
100
AcDbVertex
100
AcDb2dVertex
 10
205.430807
 20
61.124328
 30
0.0
  0
SEQEND
  5
157
100
AcDbEntity
  8
0
  0
LINE
  5
158
100
AcDbEntity
  8
0
 62
     7
100
AcDbLine
 10
46.444473
 20
60.606689
 30
0.0
 11
207.362658
 21
60.606689
 31
0.0
210
0.0
220
0.0
230
1.0
  0
ENDBLK
  5
159
100
AcDbEntity
  8
0
100
AcDbBlockEnd
  0
BLOCK
  5
15A
100
AcDbEntity
  8
0
100
AcDbBlockBegin
  2
*D23
 70
    65
 10
0.0
 20
0.0
 30
0.0
  3
*D23
  1

  0
TEXT
  5
15B
100
AcDbEntity
  8
0
 62
     7
100
AcDbText
 10
25.286163
 20
180.527747
 30
0.0
 40
3.5
  1
20
 50
61.185859
 72
     5
 11
28.097656
 21
185.638846
 31
0.0
100
AcDbText
  0
LINE
  5
15C
100
AcDbEntity
  8
0
 62
     7
100
AcDbLine
 10
63.694702
 20
157.022407
 30
0.0
 11
22.967773
 21
179.425307
 31
0.0
210
0.0
220
0.0
230
1.0
  0
LINE
  5
15D
100
AcDbEntity
  8
0
 62
     7
 48
0.487667
100
AcDbLine
 10
44.878998
 20
178.785552
 30
0.0
 11
27.787475
 21
188.187186
 31
0.0
210
0.0
220
0.0
230
1.0
  0
POLYLINE
  5
15E
100
AcDbEntity
  8
0
 62
     7
100
AcDb2dPolyline
 66
     1
 10
0.0
 20
0.0
 30
0.0
 71
     3
  0
VERTEX
  5
15F
100
AcDbEntity
  8
0
100
AcDbVertex
100
AcDb2dVertex
 10
24.242599
 20
176.519217
 30
0.0
  0
VERTEX
  5
160
100
AcDbEntity
  8
0
100
AcDbVertex
100
AcDb2dVertex
 10
24.720154
 20
178.461371
 30
0.0
  0
VERTEX
  5
161
100
AcDbEntity
  8
0
100
AcDbVertex
100
AcDb2dVertex
 10
23.33551
 20
177.018195
 30
0.0
  0
SEQEND
  5
162
100
AcDbEntity
  8
0
  0
POLYLINE
  5
163
100
AcDbEntity
  8
0
 62
     7
100
AcDb2dPolyline
 66
     1
 10
0.0
 20
0.0
 30
0.0
 71
     3
  0
VERTEX
  5
164
100
AcDbEntity
  8
0
100
AcDbVertex
100
AcDb2dVertex
 10
30.017395
 20
189.165397
 30
0.0
  0
VERTEX
  5
165
100
AcDbEntity
  8
0
100
AcDbVertex
100
AcDb2dVertex
 10
29.539856
 20
187.22325
 30
0.0
  0
VERTEX
  5
166
100
AcDbEntity
  8
0
100
AcDbVertex
100
AcDb2dVertex
 10
30.924484
 20
188.666427
 30
0.0
  0
SEQEND
  5
167
100
AcDbEntity
  8
0
  0
LINE
  5
168
100
AcDbEntity
  8
0
 62
     7
 48
0.5
100
AcDbLine
 10
22.310302
 20
174.080428
 30
0.0
 11
31.949691
 21
191.604186
 31
0.0
210
0.0
220
0.0
230
1.0
  0
ENDBLK
  5
169
100
AcDbEntity
  8
0
100
AcDbBlockEnd
  0
BLOCK
  5
16A
100
AcDbEntity
  8
0
100
AcDbBlockBegin
  2
*D24
 70
    65
 10
0.0
 20
0.0
 30
0.0
  3
*D24
  1

  0
TEXT
  5
16B
100
AcDbEntity
  8
0
 62
     7
100
AcDbText
 10
38.367614
 20
186.103988
 30
0.0
 40
3.5
  1
10
 50
61.185859
 72
     5
 11
40.954193
 21
190.806197
 31
0.0
100
AcDbText
  0
LINE
  5
16C
100
AcDbEntity
  8
0
 62
     7
100
AcDbLine
 10
158.214557
 20
110.735839
 30
0.0
 11
33.065506
 21
179.577331
 31
0.0
210
0.0
220
0.0
230
1.0
  0
LINE
  5
16D
100
AcDbEntity
  8
0
 62
     7
 48
0.268311
100
AcDbLine
 10
44.878998
 20
178.785552
 30
0.0
 11
35.475357
 21
183.958274
 31
0.0
210
0.0
220
0.0
230
1.0
  0
POLYLINE
  5
16E
100
AcDbEntity
  8
0
 62
     7
100
AcDb2dPolyline
 66
     1
 10
0.0
 20
0.0
 30
0.0
 71
     3
  0
VERTEX
  5
16F
100
AcDbEntity
  8
0
100
AcDbVertex
100
AcDb2dVertex
 10
37.705276
 20
184.936484
 30
0.0
  0
VERTEX
  5
170
100
AcDbEntity
  8
0
100
AcDbVertex
100
AcDb2dVertex
 10
37.227722
 20
182.99433
 30
0.0
  0
VERTEX
  5
171
100
AcDbEntity
  8
0
100
AcDbVertex
100
AcDb2dVertex
 10
38.612365
 20
184.437507
 30
0.0
  0
SEQEND
  5
172
100
AcDbEntity
  8
0
  0
POLYLINE
  5
173
100
AcDbEntity
  8
0
 62
     7
100
AcDb2dPolyline
 66
     1
 10
0.0
 20
0.0
 30
0.0
 71
     3
  0
VERTEX
  5
174
100
AcDbEntity
  8
0
100
AcDbVertex
100
AcDb2dVertex
 10
34.340332
 20
176.671241
 30
0.0
  0
VERTEX
  5
175
100
AcDbEntity
  8
0
100
AcDbVertex
100
AcDb2dVertex
 10
34.817871
 20
178.613395
 30
0.0
  0
VERTEX
  5
176
100
AcDbEntity
  8
0
100
AcDbVertex
100
AcDb2dVertex
 10
33.433243
 20
177.170211
 30
0.0
  0
SEQEND
  5
177
100
AcDbEntity
  8
0
  0
LINE
  5
178
100
AcDbEntity
  8
0
 62
     7
100
AcDbLine
 10
32.408035
 20
174.232451
 30
0.0
 11
42.356231
 21
192.31758
 31
0.0
210
0.0
220
0.0
230
1.0
  0
ENDBLK
  5
179
100
AcDbEntity
  8
0
100
AcDbBlockEnd
  0
BLOCK
  5
17A
100
AcDbEntity
  8
0
100
AcDbBlockBegin
  2
*D25
 70
    65
 10
0.0
 20
0.0
 30
0.0
  3
*D25
  1

  0
TEXT
  5
17B
100
AcDbEntity
  8
0
 62
     7
100
AcDbText
 10
32.940155
 20
106.178611
 30
0.0
 40
3.5
  1
10
 72
     5
 11
38.306823
 21
106.178611
 31
0.0
100
AcDbText
  0
LINE
  5
17C
100
AcDbEntity
  8
0
 62
     7
100
AcDbLine
 10
41.444488
 20
124.446402
 30
0.0
 11
41.444488
 21
103.678611
 31
0.0
210
0.0
220
0.0
230
1.0
  0
LINE
  5
17D
100
AcDbEntity
  8
0
 62
     7
100
AcDbLine
 10
46.444473
 20
136.881576
 30
0.0
 11
46.444473
 21
103.678611
 31
0.0
210
0.0
220
0.0
230
1.0
  0
POLYLINE
  5
17E
100
AcDbEntity
  8
0
 62
     7
100
AcDb2dPolyline
 66
     1
 10
0.0
 20
0.0
 30
0.0
 71
     3
  0
VERTEX
  5
17F
100
AcDbEntity
  8
0
100
AcDbVertex
100
AcDb2dVertex
 10
48.376327
 20
106.19625
 30
0.0
  0
VERTEX
  5
180
100
AcDbEntity
  8
0
100
AcDbVertex
100
AcDb2dVertex
 10
46.444473
 20
105.678611
 30
0.0
  0
VERTEX
  5
181
100
AcDbEntity
  8
0
100
AcDbVertex
100
AcDb2dVertex
 10
48.376327
 20
105.160972
 30
0.0
  0
SEQEND
  5
182
100
AcDbEntity
  8
0
  0
POLYLINE
  5
183
100
AcDbEntity
  8
0
 62
     7
100
AcDb2dPolyline
 66
     1
 10
0.0
 20
0.0
 30
0.0
 71
     3
  0
VERTEX
  5
184
100
AcDbEntity
  8
0
100
AcDbVertex
100
AcDb2dVertex
 10
39.512634
 20
105.160972
 30
0.0
  0
VERTEX
  5
185
100
AcDbEntity
  8
0
100
AcDbVertex
100
AcDb2dVertex
 10
41.444488
 20
105.678611
 30
0.0
  0
VERTEX
  5
186
100
AcDbEntity
  8
0
100
AcDbVertex
100
AcDb2dVertex
 10
39.512634
 20
106.19625
 30
0.0
  0
SEQEND
  5
187
100
AcDbEntity
  8
0
  0
LINE
  5
188
100
AcDbEntity
  8
0
 62
     7
100
AcDbLine
 10
30.940155
 20
105.678611
 30
0.0
 11
51.444473
 21
105.678611
 31
0.0
210
0.0
220
0.0
230
1.0
  0
ENDBLK
  5
189
100
AcDbEntity
  8
0
100
AcDbBlockEnd
  0
BLOCK
  5
18A
100
AcDbEntity
  8
0
100
AcDbBlockBegin
  2
*D26
 70
    65
 10
0.0
 20
0.0
 30
0.0
  3
*D26
  1

  0
TEXT
  5
18B
100
AcDbEntity
  8
0
 62
     7
100
AcDbText
 10
25.90271
 20
135.025802
 30
0.0
 40
3.5
  1
25
 50
66.104579
 72
     5
 11
28.265594
 21
140.359145
 31
0.0
100
AcDbText
  0
LINE
  5
18C
100
AcDbEntity
  8
0
 62
     7
 48
0.498194
100
AcDbLine
 10
41.400696
 20
124.513682
 30
0.0
 11
23.18103
 21
132.585784
 31
0.0
210
0.0
220
0.0
230
1.0
  0
LINE
  5
18D
100
AcDbEntity
  8
0
 62
     7
100
AcDbLine
 10
125.240837
 20
101.040732
 30
0.0
 11
28.244384
 21
144.014365
 31
0.0
210
0.0
220
0.0
230
1.0
  0
POLYLINE
  5
18E
100
AcDbEntity
  8
0
 62
     7
100
AcDb2dPolyline
 66
     1
 10
0.0
 20
0.0
 30
0.0
 71
     3
  0
VERTEX
  5
18F
100
AcDbEntity
  8
0
100
AcDbVertex
100
AcDb2dVertex
 10
29.763702
 20
141.228278
 30
0.0
  0
VERTEX
  5
190
100
AcDbEntity
  8
0
100
AcDbVertex
100
AcDb2dVertex
 10
30.072967
 20
143.204223
 30
0.0
  0
VERTEX
  5
191
100
AcDbEntity
  8
0
100
AcDbVertex
100
AcDb2dVertex
 10
28.817169
 20
141.647643
 30
0.0
  0
SEQEND
  5
192
100
AcDbEntity
  8
0
  0
POLYLINE
  5
193
100
AcDbEntity
  8
0
 62
     7
100
AcDb2dPolyline
 66
     1
 10
0.0
 20
0.0
 30
0.0
 71
     3
  0
VERTEX
  5
194
100
AcDbEntity
  8
0
100
AcDbVertex
100
AcDb2dVertex
 10
25.318878
 20
133.751594
 30
0.0
  0
VERTEX
  5
195
100
AcDbEntity
  8
0
100
AcDbVertex
100
AcDb2dVertex
 10
25.009613
 20
131.775649
 30
0.0
  0
VERTEX
  5
196
100
AcDbEntity
  8
0
100
AcDbVertex
100
AcDb2dVertex
 10
26.265411
 20
133.332236
 30
0.0
  0
SEQEND
  5
197
100
AcDbEntity
  8
0
  0
LINE
  5
198
100
AcDbEntity
  8
0
 62
     7
 48
0.3125
100
AcDbLine
 10
25.009613
 20
131.775649
 30
0.0
 11
30.072967
 21
143.204223
 31
0.0
210
0.0
220
0.0
230
1.0
  0
ENDBLK
  5
199
100
AcDbEntity
  8
0
100
AcDbBlockEnd
  0
BLOCK
  5
19A
100
AcDbEntity
  8
0
100
AcDbBlockBegin
  2
*D27
 70
    65
 10
0.0
 20
0.0
 30
0.0
  3
*D27
  1

  0
TEXT
  5
19B
100
AcDbEntity
  8
0
 62
     7
100
AcDbText
 10
62.898529
 20
183.662009
 30
0.0
 40
3.5
  1
5
 50
33.389892
 72
     5
 11
65.041565
 21
185.074531
 31
0.0
100
AcDbText
  0
TEXT
  5
19C
100
AcDbEntity
  8
0
 62
     7
100
AcDbText
 10
59.920562
 20
181.699157
 30
0.0
 40
3.5
  1
%%c
 50
33.389892
 72
     5
 11
62.063598
 21
183.111678
 31
0.0
100
AcDbText
  0
POLYLINE
  5
19D
100
AcDbEntity
  8
0
 62
     7
100
AcDb2dPolyline
 66
     1
 10
0.0
 20
0.0
 30
0.0
 71
     3
  0
VERTEX
  5
19E
100
AcDbEntity
  8
0
100
AcDbVertex
100
AcDb2dVertex
 10
44.072677
 20
170.034598
 30
0.0
  0
VERTEX
  5
19F
100
AcDbEntity
  8
0
100
AcDbVertex
100
AcDb2dVertex
 10
45.400802
 20
171.52996
 30
0.0
  0
VERTEX
  5
1A0
100
AcDbEntity
  8
0
100
AcDbVertex
100
AcDb2dVertex
 10
43.502929
 20
170.899001
 30
0.0
  0
SEQEND
  5
1A1
100
AcDbEntity
  8
0
  0
POLYLINE
  5
1A2
100
AcDbEntity
  8
0
 62
     7
100
AcDb2dPolyline
 66
     1
 10
0.0
 20
0.0
 30
0.0
 71
     3
  0
VERTEX
  5
1A3
100
AcDbEntity
  8
0
100
AcDbVertex
100
AcDb2dVertex
 10
48.816269
 20
174.40116
 30
0.0
  0
VERTEX
  5
1A4
100
AcDbEntity
  8
0
100
AcDbVertex
100
AcDb2dVertex
 10
47.488159
 20
172.905791
 30
0.0
  0
VERTEX
  5
1A5
100
AcDbEntity
  8
0
100
AcDbVertex
100
AcDb2dVertex
 10
49.386017
 20
173.536757
 30
0.0
  0
SEQEND
  5
1A6
100
AcDbEntity
  8
0
  0
LINE
  5
1A7
100
AcDbEntity
  8
0
 62
     7
100
AcDbLine
 10
41.226074
 20
168.778296
 30
0.0
 11
66.986618
 21
185.75772
 31
0.0
210
0.0
220
0.0
230
1.0
  0
ENDBLK
  5
1A8
100
AcDbEntity
  8
0
100
AcDbBlockEnd
  0
BLOCK
  5
1A9
100
AcDbEntity
  8
0
100
AcDbBlockBegin
  2
*D28
 70
    65
 10
0.0
 20
0.0
 30
0.0
  3
*D28
  1

  0
TEXT
  5
1AA
100
AcDbEntity
  8
0
 62
     7
100
AcDbText
 10
93.118629
 20
178.415038
 30
0.0
 40
3.5
  1
6
 50
32.524627
 72
     5
 11
95.282737
 21
179.795043
 31
0.0
100
AcDbText
  0
TEXT
  5
1AB
100
AcDbEntity
  8
0
 62
     7
100
AcDbText
 10
90.111351
 20
176.497374
 30
0.0
 40
3.5
  1
%%c
 50
32.524627
 72
     5
 11
92.275459
 21
177.877379
 31
0.0
100
AcDbText
  0
POLYLINE
  5
1AC
100
AcDbEntity
  8
0
 62
     7
100
AcDb2dPolyline
 66
     1
 10
0.0
 20
0.0
 30
0.0
 71
     3
  0
VERTEX
  5
1AD
100
AcDbEntity
  8
0
100
AcDbVertex
100
AcDb2dVertex
 10
56.295807
 20
153.727126
 30
0.0
  0
VERTEX
  5
1AE
100
AcDbEntity
  8
0
100
AcDbVertex
100
AcDb2dVertex
 10
57.646347
 20
155.202262
 30
0.0
  0
VERTEX
  5
1AF
100
AcDbEntity
  8
0
100
AcDbVertex
100
AcDb2dVertex
 10
55.739166
 20
154.600028
 30
0.0
  0
SEQEND
  5
1B0
100
AcDbEntity
  8
0
  0
POLYLINE
  5
1B1
100
AcDbEntity
  8
0
 62
     7
100
AcDb2dPolyline
 66
     1
 10
0.0
 20
0.0
 30
0.0
 71
     3
  0
VERTEX
  5
1B2
100
AcDbEntity
  8
0
100
AcDbVertex
100
AcDb2dVertex
 10
61.526382
 20
158.290381
 30
0.0
  0
VERTEX
  5
1B3
100
AcDbEntity
  8
0
100
AcDbVertex
100
AcDb2dVertex
 10
60.175827
 20
156.815246
 30
0.0
  0
VERTEX
  5
1B4
100
AcDbEntity
  8
0
100
AcDbVertex
100
AcDb2dVertex
 10
62.083008
 20
157.417479
 30
0.0
  0
SEQEND
  5
1B5
100
AcDbEntity
  8
0
  0
LINE
  5
1B6
100
AcDbEntity
  8
0
 62
     7
100
AcDbLine
 10
53.430542
 20
152.513953
 30
0.0
 11
97.237884
 21
180.448783
 31
0.0
210
0.0
220
0.0
230
1.0
  0
ENDBLK
  5
1B7
100
AcDbEntity
  8
0
100
AcDbBlockEnd
  0
BLOCK
  5
1B8
100
AcDbEntity
  8
0
100
AcDbBlockBegin
  2
*D29
 70
    65
 10
0.0
 20
0.0
 30
0.0
  3
*D29
  1

  0
TEXT
  5
1B9
100
AcDbEntity
  8
0
 62
     7
100
AcDbText
 10
117.720825
 20
153.574355
 30
0.0
 40
3.5
  1
6
 50
33.605173
 72
     5
 11
119.858535
 21
154.994918
 31
0.0
100
AcDbText
  0
TEXT
  5
1BA
100
AcDbEntity
  8
0
 62
     7
100
AcDbText
 10
114.750259
 20
151.600326
 30
0.0
 40
3.5
  1
%%c
 50
33.605173
 72
     5
 11
116.887954
 21
153.020888
 31
0.0
100
AcDbText
  0
POLYLINE
  5
1BB
100
AcDbEntity
  8
0
 62
     7
100
AcDb2dPolyline
 66
     1
 10
0.0
 20
0.0
 30
0.0
 71
     3
  0
VERTEX
  5
1BC
100
AcDbEntity
  8
0
100
AcDbVertex
100
AcDb2dVertex
 10
86.868744
 20
131.850417
 30
0.0
  0
VERTEX
  5
1BD
100
AcDbEntity
  8
0
100
AcDbVertex
100
AcDb2dVertex
 10
88.191238
 20
133.35076
 30
0.0
  0
VERTEX
  5
1BE
100
AcDbEntity
  8
0
100
AcDbVertex
100
AcDb2dVertex
 10
86.295746
 20
132.712668
 30
0.0
  0
SEQEND
  5
1BF
100
AcDbEntity
  8
0
  0
POLYLINE
  5
1C0
100
AcDbEntity
  8
0
 62
     7
100
AcDb2dPolyline
 66
     1
 10
0.0
 20
0.0
 30
0.0
 71
     3
  0
VERTEX
  5
1C1
100
AcDbEntity
  8
0
100
AcDbVertex
100
AcDb2dVertex
 10
92.012336
 20
136.511496
 30
0.0
  0
VERTEX
  5
1C2
100
AcDbEntity
  8
0
100
AcDbVertex
100
AcDb2dVertex
 10
90.689842
 20
135.011161
 30
0.0
  0
VERTEX
  5
1C3
100
AcDbEntity
  8
0
100
AcDbVertex
100
AcDb2dVertex
 10
92.585327
 20
135.649245
 30
0.0
  0
SEQEND
  5
1C4
100
AcDbEntity
  8
0
  0
LINE
  5
1C5
100
AcDbEntity
  8
0
 62
     7
100
AcDbLine
 10
84.02687
 20
130.583426
 30
0.0
 11
121.80101
 21
155.685416
 31
0.0
210
0.0
220
0.0
230
1.0
  0
ENDBLK
  5
1C6
100
AcDbEntity
  8
0
100
AcDbBlockEnd
  0
BLOCK
  5
1C7
100
AcDbEntity
  8
0
100
AcDbBlockBegin
  2
*D30
 70
    65
 10
0.0
 20
0.0
 30
0.0
  3
*D30
  1

  0
TEXT
  5
1C8
100
AcDbEntity
  8
0
 62
     7
100
AcDbText
 10
190.405592
 20
111.345618
 30
0.0
 40
3.5
  1
12
 50
36.297179
 72
     5
 11
194.730898
 21
114.522544
 31
0.0
100
AcDbText
  0
TEXT
  5
1C9
100
AcDbEntity
  8
0
 62
     7
100
AcDbText
 10
187.531011
 20
109.234244
 30
0.0
 40
3.5
  1
%%c
 50
36.297179
 72
     5
 11
189.599634
 21
110.753646
 31
0.0
100
AcDbText
  0
POLYLINE
  5
1CA
100
AcDbEntity
  8
0
 62
     7
100
AcDb2dPolyline
 66
     1
 10
0.0
 20
0.0
 30
0.0
 71
     3
  0
VERTEX
  5
1CB
100
AcDbEntity
  8
0
100
AcDbVertex
100
AcDb2dVertex
 10
153.101265
 20
83.967576
 30
0.0
  0
VERTEX
  5
1CC
100
AcDbEntity
  8
0
100
AcDbVertex
100
AcDb2dVertex
 10
151.850708
 20
82.406777
 30
0.0
  0
VERTEX
  5
1CD
100
AcDbEntity
  8
0
100
AcDbVertex
100
AcDb2dVertex
 10
153.714122
 20
83.133187
 30
0.0
  0
SEQEND
  5
1CE
100
AcDbEntity
  8
0
  0
POLYLINE
  5
1CF
100
AcDbEntity
  8
0
 62
     7
100
AcDb2dPolyline
 66
     1
 10
0.0
 20
0.0
 30
0.0
 71
     3
  0
VERTEX
  5
1D0
100
AcDbEntity
  8
0
100
AcDbVertex
100
AcDb2dVertex
 10
155.435886
 20
84.397818
 30
0.0
  0
VERTEX
  5
1D1
100
AcDbEntity
  8
0
100
AcDbVertex
100
AcDb2dVertex
 10
156.686447
 20
85.958619
 30
0.0
  0
VERTEX
  5
1D2
100
AcDbEntity
  8
0
100
AcDbVertex
100
AcDb2dVertex
 10
154.823032
 20
85.232207
 30
0.0
  0
SEQEND
  5
1D3
100
AcDbEntity
  8
0
  0
LINE
  5
1D4
100
AcDbEntity
  8
0
 62
     7
100
AcDbLine
 10
151.850708
 20
82.406777
 30
0.0
 11
196.638797
 21
115.303512
 31
0.0
210
0.0
220
0.0
230
1.0
  0
ENDBLK
  5
1D5
100
AcDbEntity
  8
0
100
AcDbBlockEnd
  0
BLOCK
  5
1D6
100
AcDbEntity
  8
0
100
AcDbBlockBegin
  2
*D31
 70
    65
 10
0.0
 20
0.0
 30
0.0
  3
*D31
  1

  0
TEXT
  5
1D7
100
AcDbEntity
  8
0
 62
     7
100
AcDbText
 10
230.866989
 20
68.917061
 30
0.0
 40
3.5
  1
12
 50
359.691559
 72
     5
 11
236.233577
 21
68.888171
 31
0.0
100
AcDbText
  0
TEXT
  5
1D8
100
AcDbEntity
  8
0
 62
     7
100
AcDbText
 10
227.300373
 20
68.936263
 30
0.0
 40
3.5
  1
%%c
 50
359.691559
 72
     5
 11
229.867002
 21
68.922445
 31
0.0
100
AcDbText
  0
POLYLINE
  5
1D9
100
AcDbEntity
  8
0
 62
     7
100
AcDb2dPolyline
 66
     1
 10
0.0
 20
0.0
 30
0.0
 71
     3
  0
VERTEX
  5
1DA
100
AcDbEntity
  8
0
100
AcDbVertex
100
AcDb2dVertex
 10
206.297312
 20
69.066973
 30
0.0
  0
VERTEX
  5
1DB
100
AcDbEntity
  8
0
100
AcDbVertex
100
AcDb2dVertex
 10
204.362702
 20
68.559742
 30
0.0
  0
VERTEX
  5
1DC
100
AcDbEntity
  8
0
100
AcDbVertex
100
AcDb2dVertex
 10
206.291739
 20
68.031712
 30
0.0
  0
SEQEND
  5
1DD
100
AcDbEntity
  8
0
  0
POLYLINE
  5
1DE
100
AcDbEntity
  8
0
 62
     7
100
AcDb2dPolyline
 66
     1
 10
0.0
 20
0.0
 30
0.0
 71
     3
  0
VERTEX
  5
1DF
100
AcDbEntity
  8
0
100
AcDbVertex
100
AcDb2dVertex
 10
208.428005
 20
68.020211
 30
0.0
  0
VERTEX
  5
1E0
100
AcDbEntity
  8
0
100
AcDbVertex
100
AcDb2dVertex
 10
210.362615
 20
68.527441
 30
0.0
  0
VERTEX
  5
1E1
100
AcDbEntity
  8
0
100
AcDbVertex
100
AcDb2dVertex
 10
208.433578
 20
69.055472
 30
0.0
  0
SEQEND
  5
1E2
100
AcDbEntity
  8
0
  0
LINE
  5
1E3
100
AcDbEntity
  8
0
 62
     7
100
AcDbLine
 10
204.362702
 20
68.559742
 30
0.0
 11
238.230856
 21
68.37741
 31
0.0
210
0.0
220
0.0
230
1.0
  0
ENDBLK
  5
1E4
100
AcDbEntity
  8
0
100
AcDbBlockEnd
  0
BLOCK
  5
1E5
100
AcDbEntity
  8
0
100
AcDbBlockBegin
  2
*D32
 70
    65
 10
0.0
 20
0.0
 30
0.0
  3
*D32
  1

  0
TEXT
  5
1E6
100
AcDbEntity
  8
0
 62
     7
100
AcDbText
 10
26.521454
 20
114.655059
 30
0.0
 40
3.5
  1
5
 50
34.513363
 72
     5
 11
28.636383
 21
116.109328
 31
0.0
100
AcDbText
  0
TEXT
  5
1E7
100
AcDbEntity
  8
0
 62
     7
100
AcDbText
 10
23.582534
 20
112.634189
 30
0.0
 40
3.5
  1
%%c
 50
34.513363
 72
     5
 11
25.697464
 21
114.088458
 31
0.0
100
AcDbText
  0
POLYLINE
  5
1E8
100
AcDbEntity
  8
0
 62
     7
100
AcDb2dPolyline
 66
     1
 10
0.0
 20
0.0
 30
0.0
 71
     3
  0
VERTEX
  5
1E9
100
AcDbEntity
  8
0
100
AcDbVertex
100
AcDb2dVertex
 10
48.77301
 20
129.977179
 30
0.0
  0
VERTEX
  5
1EA
100
AcDbEntity
  8
0
100
AcDbVertex
100
AcDb2dVertex
 10
47.474472
 20
128.456061
 30
0.0
  0
VERTEX
  5
1EB
100
AcDbEntity
  8
0
100
AcDbVertex
100
AcDb2dVertex
 10
49.359604
 20
129.124118
 30
0.0
  0
SEQEND
  5
1EC
100
AcDbEntity
  8
0
  0
POLYLINE
  5
1ED
100
AcDbEntity
  8
0
 62
     7
100
AcDb2dPolyline
 66
     1
 10
0.0
 20
0.0
 30
0.0
 71
     3
  0
VERTEX
  5
1EE
100
AcDbEntity
  8
0
100
AcDbVertex
100
AcDb2dVertex
 10
44.115951
 20
125.518451
 30
0.0
  0
VERTEX
  5
1EF
100
AcDbEntity
  8
0
100
AcDbVertex
100
AcDb2dVertex
 10
45.414489
 20
127.039565
 30
0.0
  0
VERTEX
  5
1F0
100
AcDbEntity
  8
0
100
AcDbVertex
100
AcDb2dVertex
 10
43.529358
 20
126.371512
 30
0.0
  0
SEQEND
  5
1F1
100
AcDbEntity
  8
0
  0
LINE
  5
1F2
100
AcDbEntity
  8
0
 62
     7
100
AcDbLine
 10
22.217865
 20
111.088996
 30
0.0
 11
51.594436
 21
131.289054
 31
0.0
210
0.0
220
0.0
230
1.0
  0
ENDBLK
  5
1F3
100
AcDbEntity
  8
0
100
AcDbBlockEnd
  0
BLOCK
  5
1F4
100
AcDbEntity
  8
0
100
AcDbBlockBegin
  2
*D33
 70
    65
 10
0.0
 20
0.0
 30
0.0
  3
*D33
  1

  0
TEXT
  5
1F5
100
AcDbEntity
  8
0
 62
     7
100
AcDbText
 10
207.211981
 20
92.502763
 30
0.0
 40
3.5
  1
10
 50
39.145546
 72
     5
 11
211.374072
 21
95.890698
 31
0.0
100
AcDbText
  0
POLYLINE
  5
1F6
100
AcDbEntity
  8
0
 62
     7
100
AcDb2dPolyline
 66
     1
 10
0.0
 20
0.0
 30
0.0
 71
     3
  0
VERTEX
  5
1F7
100
AcDbEntity
  8
0
100
AcDbVertex
100
AcDb2dVertex
 10
198.223999
 20
83.874398
 30
0.0
  0
VERTEX
  5
1F8
100
AcDbEntity
  8
0
100
AcDbVertex
100
AcDb2dVertex
 10
199.395456
 20
85.495412
 30
0.0
  0
VERTEX
  5
1F9
100
AcDbEntity
  8
0
100
AcDbVertex
100
AcDb2dVertex
 10
197.570436
 20
84.6773
 30
0.0
  0
SEQEND
  5
1FA
100
AcDbEntity
  8
0
  0
POLYLINE
  5
1FB
100
AcDbEntity
  8
0
 62
     7
100
AcDb2dPolyline
 66
     1
 10
0.0
 20
0.0
 30
0.0
 71
     3
  0
VERTEX
  5
1FC
100
AcDbEntity
  8
0
100
AcDbVertex
100
AcDb2dVertex
 10
204.444636
 20
90.272891
 30
0.0
  0
VERTEX
  5
1FD
100
AcDbEntity
  8
0
100
AcDbVertex
100
AcDb2dVertex
 10
203.27318
 20
88.651875
 30
0.0
  0
VERTEX
  5
1FE
100
AcDbEntity
  8
0
100
AcDbVertex
100
AcDb2dVertex
 10
205.098198
 20
89.469987
 30
0.0
  0
SEQEND
  5
1FF
100
AcDbEntity
  8
0
  0
LINE
  5
200
100
AcDbEntity
  8
0
 62
     7
100
AcDbLine
 10
195.51773
 20
82.33895
 30
0.0
 11
213.240807
 21
96.765511
 31
0.0
210
0.0
220
0.0
230
1.0
  0
ENDBLK
  5
201
100
AcDbEntity
  8
0
100
AcDbBlockEnd
  0
BLOCK
  5
202
100
AcDbEntity
  8
0
100
AcDbBlockBegin
  2
*D34
 70
    65
 10
0.0
 20
0.0
 30
0.0
  3
*D34
  1

  0
TEXT
  5
203
100
AcDbEntity
  8
0
 62
     7
100
AcDbText
 10
188.302137
 20
78.723393
 30
0.0
 40
3.5
  1
8
 50
359.798902
 72
     5
 11
190.868787
 21
78.714385
 31
0.0
100
AcDbText
  0
TEXT
  5
204
100
AcDbEntity
  8
0
 62
     7
100
AcDbText
 10
184.735492
 20
78.735912
 30
0.0
 40
3.5
  1
%%c
 50
359.798902
 72
     5
 11
187.302143
 21
78.726904
 31
0.0
100
AcDbText
  0
ARC
  5
205
100
AcDbEntity
  8
0
 62
     7
100
AcDbCircle
 10
202.777399
 20
78.172581
 30
0.0
 40
2.0
210
0.0
220
0.0
230
1.0
100
AcDbArc
 50
122.503104
 51
221.849766
  0
POLYLINE
  5
206
100
AcDbEntity
  8
0
 62
     7
100
AcDb2dPolyline
 66
     1
 10
0.0
 20
0.0
 30
0.0
 71
     3
  0
VERTEX
  5
207
100
AcDbEntity
  8
0
100
AcDbVertex
100
AcDb2dVertex
 10
206.711043
 20
78.676414
 30
0.0
  0
VERTEX
  5
208
100
AcDbEntity
  8
0
100
AcDbVertex
100
AcDb2dVertex
 10
204.777386
 20
78.165561
 30
0.0
  0
VERTEX
  5
209
100
AcDbEntity
  8
0
100
AcDbVertex
100
AcDb2dVertex
 10
206.70741
 20
77.641145
 30
0.0
  0
SEQEND
  5
20A
100
AcDbEntity
  8
0
  0
POLYLINE
  5
20B
100
AcDbEntity
  8
0
 62
     7
100
AcDb2dPolyline
 66
     1
 10
0.0
 20
0.0
 30
0.0
 71
     3
  0
VERTEX
  5
20C
100
AcDbEntity
  8
0
100
AcDbVertex
100
AcDb2dVertex
 10
198.843755
 20
77.668747
 30
0.0
  0
VERTEX
  5
20D
100
AcDbEntity
  8
0
100
AcDbVertex
100
AcDb2dVertex
 10
200.777412
 20
78.179601
 30
0.0
  0
VERTEX
  5
20E
100
AcDbEntity
  8
0
100
AcDbVertex
100
AcDb2dVertex
 10
198.847389
 20
78.704017
 30
0.0
  0
SEQEND
  5
20F
100
AcDbEntity
  8
0
  0
LINE
  5
210
100
AcDbEntity
  8
0
 62
     7
100
AcDbLine
 10
182.733749
 20
78.242936
 30
0.0
 11
209.777356
 21
78.14801
 31
0.0
210
0.0
220
0.0
230
1.0
  0
ENDBLK
  5
211
100
AcDbEntity
  8
0
100
AcDbBlockEnd
  0
BLOCK
  5
212
100
AcDbEntity
  8
0
100
AcDbBlockBegin
  2
*D35
 70
    65
 10
0.0
 20
0.0
 30
0.0
  3
*D35
  1

  0
TEXT
  5
213
100
AcDbEntity
  8
0
 62
     7
100
AcDbText
 10
124.50235
 20
46.175902
 30
0.0
 40
3.5
  1
358.8
 72
     5
 11
137.802353
 21
46.175902
 31
0.0
100
AcDbText
  0
LINE
  5
214
100
AcDbEntity
  8
0
 62
     7
100
AcDbLine
 10
41.444488
 20
124.446402
 30
0.0
 11
41.444488
 21
43.675902
 31
0.0
210
0.0
220
0.0
230
1.0
  0
LINE
  5
215
100
AcDbEntity
  8
0
 62
     7
100
AcDbLine
 10
220.860214
 20
63.700118
 30
0.0
 11
220.860214
 21
43.675902
 31
0.0
210
0.0
220
0.0
230
1.0
  0
POLYLINE
  5
216
100
AcDbEntity
  8
0
 62
     7
100
AcDb2dPolyline
 66
     1
 10
0.0
 20
0.0
 30
0.0
 71
     3
  0
VERTEX
  5
217
100
AcDbEntity
  8
0
100
AcDbVertex
100
AcDb2dVertex
 10
218.928363
 20
45.158265
 30
0.0
  0
VERTEX
  5
218
100
AcDbEntity
  8
0
100
AcDbVertex
100
AcDb2dVertex
 10
220.860214
 20
45.675902
 30
0.0
  0
VERTEX
  5
219
100
AcDbEntity
  8
0
100
AcDbVertex
100
AcDb2dVertex
 10
218.928363
 20
46.193541
 30
0.0
  0
SEQEND
  5
21A
100
AcDbEntity
  8
0
  0
POLYLINE
  5
21B
100
AcDbEntity
  8
0
 62
     7
100
AcDb2dPolyline
 66
     1
 10
0.0
 20
0.0
 30
0.0
 71
     3
  0
VERTEX
  5
21C
100
AcDbEntity
  8
0
100
AcDbVertex
100
AcDb2dVertex
 10
43.376327
 20
46.193541
 30
0.0
  0
VERTEX
  5
21D
100
AcDbEntity
  8
0
100
AcDbVertex
100
AcDb2dVertex
 10
41.444488
 20
45.675902
 30
0.0
  0
VERTEX
  5
21E
100
AcDbEntity
  8
0
100
AcDbVertex
100
AcDb2dVertex
 10
43.376327
 20
45.158265
 30
0.0
  0
SEQEND
  5
21F
100
AcDbEntity
  8
0
  0
LINE
  5
220
100
AcDbEntity
  8
0
 62
     7
100
AcDbLine
 10
41.444488
 20
45.675902
 30
0.0
 11
220.860214
 21
45.675902
 31
0.0
210
0.0
220
0.0
230
1.0
  0
ENDBLK
  5
221
100
AcDbEntity
  8
0
100
AcDbBlockEnd
  0
BLOCK
  5
222
100
AcDbEntity
  8
0
100
AcDbBlockBegin
  2
*D36
 70
    65
 10
0.0
 20
0.0
 30
0.0
  3
*D36
  1

  0
TEXT
  5
223
100
AcDbEntity
  8
0
 62
     7
100
AcDbText
 10
246.380798
 20
112.270636
 30
0.0
 40
3.5
  1
237.3
 50
90.000003
 72
     5
 11
246.380798
 21
125.57064
 31
0.0
100
AcDbText
  0
LINE
  5
224
100
AcDbEntity
  8
0
 62
     7
100
AcDbLine
 10
206.029596
 20
59.587003
 30
0.0
 11
248.880798
 21
59.587003
 31
0.0
210
0.0
220
0.0
230
1.0
  0
LINE
  5
225
100
AcDbEntity
  8
0
 62
     7
100
AcDbLine
 10
46.87558
 20
178.254279
 30
0.0
 11
248.880798
 21
178.254279
 31
0.0
210
0.0
220
0.0
230
1.0
  0
POLYLINE
  5
226
100
AcDbEntity
  8
0
 62
     7
100
AcDb2dPolyline
 66
     1
 10
0.0
 20
0.0
 30
0.0
 71
     3
  0
VERTEX
  5
227
100
AcDbEntity
  8
0
100
AcDbVertex
100
AcDb2dVertex
 10
247.398435
 20
176.322425
 30
0.0
  0
VERTEX
  5
228
100
AcDbEntity
  8
0
100
AcDbVertex
100
AcDb2dVertex
 10
246.880798
 20
178.254279
 30
0.0
  0
VERTEX
  5
229
100
AcDbEntity
  8
0
100
AcDbVertex
100
AcDb2dVertex
 10
246.363161
 20
176.322425
 30
0.0
  0
SEQEND
  5
22A
100
AcDbEntity
  8
0
  0
POLYLINE
  5
22B
100
AcDbEntity
  8
0
 62
     7
100
AcDb2dPolyline
 66
     1
 10
0.0
 20
0.0
 30
0.0
 71
     3
  0
VERTEX
  5
22C
100
AcDbEntity
  8
0
100
AcDbVertex
100
AcDb2dVertex
 10
246.363161
 20
61.518855
 30
0.0
  0
VERTEX
  5
22D
100
AcDbEntity
  8
0
100
AcDbVertex
100
AcDb2dVertex
 10
246.880798
 20
59.587003
 30
0.0
  0
VERTEX
  5
22E
100
AcDbEntity
  8
0
100
AcDbVertex
100
AcDb2dVertex
 10
247.398435
 20
61.518855
 30
0.0
  0
SEQEND
  5
22F
100
AcDbEntity
  8
0
  0
LINE
  5
230
100
AcDbEntity
  8
0
 62
     7
100
AcDbLine
 10
246.880798
 20
59.587003
 30
0.0
 11
246.880798
 21
178.254279
 31
0.0
210
0.0
220
0.0
230
1.0
  0
ENDBLK
  5
231
100
AcDbEntity
  8
0
100
AcDbBlockEnd
  0
BLOCK
  5
232
100
AcDbEntity
  8
0
100
AcDbBlockBegin
  2
*D37
 70
    65
 10
0.0
 20
0.0
 30
0.0
  3
*D37
  1

  0
TEXT
  5
233
100
AcDbEntity
  8
0
 62
     7
100
AcDbText
 10
95.229019
 20
105.141353
 30
0.0
 40
3.5
  1
10
 50
26.104264
 72
     5
 11
100.048263
 21
107.502719
 31
0.0
100
AcDbText
  0
POLYLINE
  5
234
100
AcDbEntity
  8
0
 62
     7
100
AcDb2dPolyline
 66
     1
 10
0.0
 20
0.0
 30
0.0
 71
     3
  0
VERTEX
  5
235
100
AcDbEntity
  8
0
100
AcDbVertex
100
AcDb2dVertex
 10
112.767402
 20
112.601703
 30
0.0
  0
VERTEX
  5
236
100
AcDbEntity
  8
0
100
AcDbVertex
100
AcDb2dVertex
 10
114.274429
 20
113.916564
 30
0.0
  0
VERTEX
  5
237
100
AcDbEntity
  8
0
100
AcDbVertex
100
AcDb2dVertex
 10
112.311874
 20
113.531375
 30
0.0
  0
SEQEND
  5
238
100
AcDbEntity
  8
0
  0
POLYLINE
  5
239
100
AcDbEntity
  8
0
 62
     7
100
AcDb2dPolyline
 66
     1
 10
0.0
 20
0.0
 30
0.0
 71
     3
  0
VERTEX
  5
23A
100
AcDbEntity
  8
0
100
AcDbVertex
100
AcDb2dVertex
 10
120.271431
 20
117.431456
 30
0.0
  0
VERTEX
  5
23B
100
AcDbEntity
  8
0
100
AcDbVertex
100
AcDb2dVertex
 10
118.764404
 20
116.116595
 30
0.0
  0
VERTEX
  5
23C
100
AcDbEntity
  8
0
100
AcDbVertex
100
AcDb2dVertex
 10
120.726959
 20
116.501784
 30
0.0
  0
SEQEND
  5
23D
100
AcDbEntity
  8
0
  0
LINE
  5
23E
100
AcDbEntity
  8
0
 62
     7
100
AcDbLine
 10
93.65303
 20
103.812343
 30
0.0
 11
123.254379
 21
118.316623
 31
0.0
210
0.0
220
0.0
230
1.0
  0
ENDBLK
  5
23F
100
AcDbEntity
  8
0
100
AcDbBlockEnd
  0
BLOCK
  5
240
100
AcDbEntity
  8
0
100
AcDbBlockBegin
  2
*D38
 70
    65
 10
0.0
 20
0.0
 30
0.0
  3
*D38
  1

  0
TEXT
  5
241
100
AcDbEntity
  8
0
 62
     7
100
AcDbText
 10
133.674148
 20
107.726539
 30
0.0
 40
3.5
  1
15
 50
38.18586
 72
     5
 11
137.892395
 21
111.044288
 31
0.0
100
AcDbText
  0
POLYLINE
  5
242
100
AcDbEntity
  8
0
 62
     7
100
AcDb2dPolyline
 66
     1
 10
0.0
 20
0.0
 30
0.0
 71
     3
  0
VERTEX
  5
243
100
AcDbEntity
  8
0
100
AcDbVertex
100
AcDb2dVertex
 10
140.23835
 20
112.911879
 30
0.0
  0
VERTEX
  5
244
100
AcDbEntity
  8
0
100
AcDbVertex
100
AcDb2dVertex
 10
139.039909
 20
111.31071
 30
0.0
  0
VERTEX
  5
245
100
AcDbEntity
  8
0
100
AcDbVertex
100
AcDb2dVertex
 10
140.878372
 20
112.09814
 30
0.0
  0
SEQEND
  5
246
100
AcDbEntity
  8
0
  0
POLYLINE
  5
247
100
AcDbEntity
  8
0
 62
     7
100
AcDb2dPolyline
 66
     1
 10
0.0
 20
0.0
 30
0.0
 71
     3
  0
VERTEX
  5
248
100
AcDbEntity
  8
0
100
AcDbVertex
100
AcDb2dVertex
 10
131.946396
 20
105.072936
 30
0.0
  0
VERTEX
  5
249
100
AcDbEntity
  8
0
100
AcDbVertex
100
AcDb2dVertex
 10
133.144836
 20
106.674102
 30
0.0
  0
VERTEX
  5
24A
100
AcDbEntity
  8
0
100
AcDbVertex
100
AcDb2dVertex
 10
131.306373
 20
105.886672
 30
0.0
  0
SEQEND
  5
24B
100
AcDbEntity
  8
0
  0
LINE
  5
24C
100
AcDbEntity
  8
0
 62
     7
 48
0.4375
100
AcDbLine
 10
129.21479
 20
103.58303
 30
0.0
 11
142.969955
 21
114.401782
 31
0.0
210
0.0
220
0.0
230
1.0
  0
ENDBLK
  5
24D
100
AcDbEntity
  8
0
100
AcDbBlockEnd
  0
BLOCK
  5
24E
100
AcDbEntity
  8
0
100
AcDbBlockBegin
  2
*D39
 70
    65
 10
0.0
 20
0.0
 30
0.0
  3
*D39
  1

  0
TEXT
  5
24F
100
AcDbEntity
  8
0
 62
     7
100
AcDbText
 10
154.418655
 20
96.511765
 30
0.0
 40
3.5
  1
15
 50
21.185862
 72
     5
 11
159.422607
 21
98.451251
 31
0.0
100
AcDbText
  0
LINE
  5
250
100
AcDbEntity
  8
0
 62
     7
 48
0.182981
100
AcDbLine
 10
151.682441
 20
100.61978
 30
0.0
 11
154.327572
 21
93.795245
 31
0.0
210
0.0
220
0.0
230
1.0
  0
POLYLINE
  5
251
100
AcDbEntity
  8
0
 62
     7
100
AcDb2dPolyline
 66
     1
 10
0.0
 20
0.0
 30
0.0
 71
     3
  0
VERTEX
  5
252
100
AcDbEntity
  8
0
100
AcDbVertex
100
AcDb2dVertex
 10
151.99057
 20
94.479258
 30
0.0
  0
VERTEX
  5
253
100
AcDbEntity
  8
0
100
AcDbVertex
100
AcDb2dVertex
 10
153.604782
 20
95.660071
 30
0.0
  0
VERTEX
  5
254
100
AcDbEntity
  8
0
100
AcDbVertex
100
AcDb2dVertex
 10
151.616424
 20
95.444564
 30
0.0
  0
SEQEND
  5
255
100
AcDbEntity
  8
0
  0
POLYLINE
  5
256
100
AcDbEntity
  8
0
 62
     7
100
AcDb2dPolyline
 66
     1
 10
0.0
 20
0.0
 30
0.0
 71
     3
  0
VERTEX
  5
257
100
AcDbEntity
  8
0
100
AcDbVertex
100
AcDb2dVertex
 10
162.212089
 20
99.551345
 30
0.0
  0
VERTEX
  5
258
100
AcDbEntity
  8
0
100
AcDbVertex
100
AcDb2dVertex
 10
160.597877
 20
98.370532
 30
0.0
  0
VERTEX
  5
259
100
AcDbEntity
  8
0
100
AcDbVertex
100
AcDb2dVertex
 10
162.586235
 20
98.586039
 30
0.0
  0
SEQEND
  5
25A
100
AcDbEntity
  8
0
  0
LINE
  5
25B
100
AcDbEntity
  8
0
 62
     7
 48
0.4375
100
AcDbLine
 10
148.942718
 20
93.853099
 30
0.0
 11
165.259945
 21
100.177504
 31
0.0
210
0.0
220
0.0
230
1.0
  0
ENDBLK
  5
25C
100
AcDbEntity
  8
0
100
AcDbBlockEnd
  0
BLOCK
  5
25D
100
AcDbEntity
  8
0
100
AcDbBlockBegin
  2
*D40
 70
    65
 10
0.0
 20
0.0
 30
0.0
  3
*D40
  1

  0
TEXT
  5
25E
100
AcDbEntity
  8
0
 62
     7
100
AcDbText
 10
96.062736
 20
119.948104
 30
0.0
 40
3.5
  1
15
 50
36.104264
 72
     5
 11
100.398719
 21
123.11045
 31
0.0
100
AcDbText
  0
POLYLINE
  5
25F
100
AcDbEntity
  8
0
 62
     7
100
AcDb2dPolyline
 66
     1
 10
0.0
 20
0.0
 30
0.0
 71
     3
  0
VERTEX
  5
260
100
AcDbEntity
  8
0
100
AcDbVertex
100
AcDb2dVertex
 10
102.810966
 20
124.891597
 30
0.0
  0
VERTEX
  5
261
100
AcDbEntity
  8
0
100
AcDbVertex
100
AcDb2dVertex
 10
101.555153
 20
123.335017
 30
0.0
  0
VERTEX
  5
262
100
AcDbEntity
  8
0
100
AcDbVertex
100
AcDb2dVertex
 10
103.421005
 20
124.055148
 30
0.0
  0
SEQEND
  5
263
100
AcDbEntity
  8
0
  0
POLYLINE
  5
264
100
AcDbEntity
  8
0
 62
     7
100
AcDb2dPolyline
 66
     1
 10
0.0
 20
0.0
 30
0.0
 71
     3
  0
VERTEX
  5
265
100
AcDbEntity
  8
0
100
AcDbVertex
100
AcDb2dVertex
 10
94.239746
 20
117.359012
 30
0.0
  0
VERTEX
  5
266
100
AcDbEntity
  8
0
100
AcDbVertex
100
AcDb2dVertex
 10
95.495559
 20
118.915591
 30
0.0
  0
VERTEX
  5
267
100
AcDbEntity
  8
0
100
AcDbVertex
100
AcDb2dVertex
 10
93.629707
 20
118.19546
 30
0.0
  0
SEQEND
  5
268
100
AcDbEntity
  8
0
  0
LINE
  5
269
100
AcDbEntity
  8
0
 62
     7
 48
0.4375
100
AcDbLine
 10
91.455826
 20
115.96931
 30
0.0
 11
105.594886
 21
126.281299
 31
0.0
210
0.0
220
0.0
230
1.0
  0
ENDBLK
  5
26A
100
AcDbEntity
  8
0
100
AcDbBlockEnd
  0
BLOCK
  5
26B
100
AcDbEntity
  8
0
100
AcDbBlockBegin
  2
*D41
 70
    65
 10
0.0
 20
0.0
 30
0.0
  3
*D41
  1

  0
TEXT
  5
26C
100
AcDbEntity
  8
0
 62
     7
100
AcDbText
 10
51.988098
 20
140.257819
 30
0.0
 40
3.5
  1
15
 50
345.000013
 72
     5
 11
57.171905
 21
138.868827
 31
0.0
100
AcDbText
  0
POLYLINE
  5
26D
100
AcDbEntity
  8
0
 62
     7
100
AcDb2dPolyline
 66
     1
 10
0.0
 20
0.0
 30
0.0
 71
     3
  0
VERTEX
  5
26E
100
AcDbEntity
  8
0
100
AcDbVertex
100
AcDb2dVertex
 10
48.828354
 20
140.050933
 30
0.0
  0
VERTEX
  5
26F
100
AcDbEntity
  8
0
100
AcDbVertex
100
AcDb2dVertex
 10
50.828354
 20
140.050933
 30
0.0
  0
VERTEX
  5
270
100
AcDbEntity
  8
0
100
AcDbVertex
100
AcDb2dVertex
 10
49.096313
 20
141.050933
 30
0.0
  0
SEQEND
  5
271
100
AcDbEntity
  8
0
  0
POLYLINE
  5
272
100
AcDbEntity
  8
0
 62
     7
100
AcDb2dPolyline
 66
     1
 10
0.0
 20
0.0
 30
0.0
 71
     3
  0
VERTEX
  5
273
100
AcDbEntity
  8
0
100
AcDbVertex
100
AcDb2dVertex
 10
60.072799
 20
138.109786
 30
0.0
  0
VERTEX
  5
274
100
AcDbEntity
  8
0
100
AcDbVertex
100
AcDb2dVertex
 10
58.072799
 20
138.109786
 30
0.0
  0
VERTEX
  5
275
100
AcDbEntity
  8
0
100
AcDbVertex
100
AcDb2dVertex
 10
59.804855
 20
137.109786
 30
0.0
  0
SEQEND
  5
276
100
AcDbEntity
  8
0
  0
LINE
  5
277
100
AcDbEntity
  8
0
 62
     7
 48
0.4375
100
AcDbLine
 10
45.998733
 20
141.345023
 30
0.0
 11
62.902435
 21
136.815696
 31
0.0
210
0.0
220
0.0
230
1.0
  0
ENDBLK
  5
278
100
AcDbEntity
  8
0
100
AcDbBlockEnd
  0
BLOCK
  5
279
100
AcDbEntity
  8
0
100
AcDbBlockBegin
  2
*D42
 70
    65
 10
0.0
 20
0.0
 30
0.0
  3
*D42
  1

  0
TEXT
  5
27A
100
AcDbEntity
  8
0
 62
     7
100
AcDbText
 10
27.071716
 20
164.098845
 30
0.0
 40
3.5
  1
61.2
 50
335.124461
 72
     5
 11
35.750824
 21
160.074645
 31
0.0
100
AcDbText
  0
TEXT
  5
27B
100
AcDbEntity
  8
0
 62
     7
100
AcDbText
 10
36.045257
 20
160.709701
 30
0.0
 40
3.5
  1
%%d
 50
335.124461
 72
     5
 11
38.37381
 21
159.630034
 31
0.0
100
AcDbText
  0
POLYLINE
  5
27C
100
AcDbEntity
  8
0
 62
     7
100
AcDb2dPolyline
 66
     1
 10
0.0
 20
0.0
 30
0.0
 71
     3
  0
VERTEX
  5
27D
100
AcDbEntity
  8
0
100
AcDbVertex
100
AcDb2dVertex
 10
43.376327
 20
159.608451
 30
0.0
  0
VERTEX
  5
27E
100
AcDbEntity
  8
0
100
AcDbVertex
100
AcDb2dVertex
 10
41.444473
 20
159.090812
 30
0.0
  0
VERTEX
  5
27F
100
AcDbEntity
  8
0
100
AcDbVertex
100
AcDb2dVertex
 10
43.376327
 20
158.57318
 30
0.0
  0
SEQEND
  5
280
100
AcDbEntity
  8
0
  0
POLYLINE
  5
281
100
AcDbEntity
  8
0
 62
     7
100
AcDb2dPolyline
 66
     1
 10
0.0
 20
0.0
 30
0.0
 71
     3
  0
VERTEX
  5
282
100
AcDbEntity
  8
0
100
AcDbVertex
100
AcDb2dVertex
 10
59.878555
 20
168.329818
 30
0.0
  0
VERTEX
  5
283
100
AcDbEntity
  8
0
100
AcDbVertex
100
AcDb2dVertex
 10
60.356094
 20
170.271972
 30
0.0
  0
VERTEX
  5
284
100
AcDbEntity
  8
0
100
AcDbVertex
100
AcDb2dVertex
 10
58.971451
 20
168.828788
 30
0.0
  0
SEQEND
  5
285
100
AcDbEntity
  8
0
  0
ARC
  5
286
100
AcDbEntity
  8
0
 62
     7
100
AcDbCircle
 10
41.444473
 20
180.674796
 30
0.0
 40
21.583982
210
0.0
220
0.0
230
1.0
100
AcDbArc
 50
220.051241
 51
331.185874
  0
ENDBLK
  5
287
100
AcDbEntity
  8
0
100
AcDbBlockEnd
  0
BLOCK
  5
288
100
AcDbEntity
  8
0
100
AcDbBlockBegin
  2
*D43
 70
    65
 10
0.0
 20
0.0
 30
0.0
  3
*D43
  1

  0
TEXT
  5
289
100
AcDbEntity
  8
0
 62
     7
100
AcDbText
 10
25.88945
 20
100.932284
 30
0.0
 40
3.5
  1
66.1
 50
338.976442
 72
     5
 11
34.81929
 21
97.500224
 31
0.0
100
AcDbText
  0
TEXT
  5
28A
100
AcDbEntity
  8
0
 62
     7
100
AcDbText
 10
35.070419
 20
98.153628
 30
0.0
 40
3.5
  1
%%d
 50
338.976442
 72
     5
 11
37.466232
 21
97.232831
 31
0.0
100
AcDbText
  0
LINE
  5
28B
100
AcDbEntity
  8
0
 62
     7
100
AcDbLine
 10
41.444488
 20
124.446402
 30
0.0
 11
41.444488
 21
94.420342
 31
0.0
210
0.0
220
0.0
230
1.0
  0
POLYLINE
  5
28C
100
AcDbEntity
  8
0
 62
     7
100
AcDb2dPolyline
 66
     1
 10
0.0
 20
0.0
 30
0.0
 71
     3
  0
VERTEX
  5
28D
100
AcDbEntity
  8
0
100
AcDbVertex
100
AcDb2dVertex
 10
43.376342
 20
96.93798
 30
0.0
  0
VERTEX
  5
28E
100
AcDbEntity
  8
0
100
AcDbVertex
100
AcDb2dVertex
 10
41.444488
 20
96.420342
 30
0.0
  0
VERTEX
  5
28F
100
AcDbEntity
  8
0
100
AcDbVertex
100
AcDb2dVertex
 10
43.376342
 20
95.902703
 30
0.0
  0
SEQEND
  5
290
100
AcDbEntity
  8
0
  0
POLYLINE
  5
291
100
AcDbEntity
  8
0
 62
     7
100
AcDb2dPolyline
 66
     1
 10
0.0
 20
0.0
 30
0.0
 71
     3
  0
VERTEX
  5
292
100
AcDbEntity
  8
0
100
AcDbVertex
100
AcDb2dVertex
 10
66.802841
 20
111.146472
 30
0.0
  0
VERTEX
  5
293
100
AcDbEntity
  8
0
100
AcDbVertex
100
AcDb2dVertex
 10
67.112106
 20
113.122416
 30
0.0
  0
VERTEX
  5
294
100
AcDbEntity
  8
0
100
AcDbVertex
100
AcDb2dVertex
 10
65.856308
 20
111.565829
 30
0.0
  0
SEQEND
  5
295
100
AcDbEntity
  8
0
  0
ARC
  5
296
100
AcDbEntity
  8
0
 62
     7
100
AcDbCircle
 10
41.444488
 20
124.494285
 30
0.0
 40
28.073944
210
0.0
220
0.0
230
1.0
100
AcDbArc
 50
230.344718
 51
336.104566
  0
ENDBLK
  5
297
100
AcDbEntity
  8
0
100
AcDbBlockEnd
  0
BLOCK
  5
298
100
AcDbEntity
  8
0
100
AcDbBlockBegin
  2
*D44
 70
    65
 10
0.0
 20
0.0
 30
0.0
  3
*D44
  1

  0
TEXT
  5
299
100
AcDbEntity
  8
0
 62
     7
100
AcDbText
 10
52.828155
 20
189.377944
 30
0.0
 40
3.5
  1
14
 50
59.94493
 72
     5
 11
55.632812
 21
194.22499
 31
0.0
100
AcDbText
  0
TEXT
  5
29A
100
AcDbEntity
  8
0
 62
     7
100
AcDbText
 10
51.041855
 20
186.290839
 30
0.0
 40
3.5
  1
%%c
 50
59.94493
 72
     5
 11
52.327316
 21
188.512397
 31
0.0
100
AcDbText
  0
ARC
  5
29B
100
AcDbEntity
  8
0
 62
     7
100
AcDbCircle
 10
44.944473
 20
174.75495
 30
0.0
 40
3.5
210
0.0
220
0.0
230
1.0
100
AcDbArc
 50
153.333376
 51
272.685382
  0
ARC
  5
29C
100
AcDbEntity
  8
0
 62
     7
100
AcDbCircle
 10
44.944473
 20
174.75495
 30
0.0
 40
3.5
210
0.0
220
0.0
230
1.0
100
AcDbArc
 50
27.204485
 51
61.185859
  0
POLYLINE
  5
29D
100
AcDbEntity
  8
0
 62
     7
100
AcDb2dPolyline
 66
     1
 10
0.0
 20
0.0
 30
0.0
 71
     3
  0
VERTEX
  5
29E
100
AcDbEntity
  8
0
100
AcDbVertex
100
AcDb2dVertex
 10
43.711059
 20
173.656905
 30
0.0
  0
VERTEX
  5
29F
100
AcDbEntity
  8
0
100
AcDbVertex
100
AcDb2dVertex
 10
43.191559
 20
171.725547
 30
0.0
  0
VERTEX
  5
2A0
100
AcDbEntity
  8
0
100
AcDbVertex
100
AcDb2dVertex
 10
44.607132
 20
173.138404
 30
0.0
  0
SEQEND
  5
2A1
100
AcDbEntity
  8
0
  0
POLYLINE
  5
2A2
100
AcDbEntity
  8
0
 62
     7
100
AcDb2dPolyline
 66
     1
 10
0.0
 20
0.0
 30
0.0
 71
     3
  0
VERTEX
  5
2A3
100
AcDbEntity
  8
0
100
AcDbVertex
100
AcDb2dVertex
 10
46.177902
 20
175.853003
 30
0.0
  0
VERTEX
  5
2A4
100
AcDbEntity
  8
0
100
AcDbVertex
100
AcDb2dVertex
 10
46.697387
 20
177.784362
 30
0.0
  0
VERTEX
  5
2A5
100
AcDbEntity
  8
0
100
AcDbVertex
100
AcDb2dVertex
 10
45.281814
 20
176.371505
 30
0.0
  0
SEQEND
  5
2A6
100
AcDbEntity
  8
0
  0
LINE
  5
2A7
100
AcDbEntity
  8
0
 62
     7
100
AcDbLine
 10
43.191559
 20
171.725547
 30
0.0
 11
57.067245
 21
195.705672
 31
0.0
210
0.0
220
0.0
230
1.0
  0
ENDBLK
  5
2A8
100
AcDbEntity
  8
0
100
AcDbBlockEnd
  0
BLOCK
  5
2A9
100
AcDbEntity
  8
0
100
AcDbBlockBegin
  2
*D45
 70
    65
 10
0.0
 20
0.0
 30
0.0
  3
*D45
  1

  0
TEXT
  5
2AA
100
AcDbEntity
  8
0
 62
     7
100
AcDbText
 10
212.825967
 20
104.7849
 30
0.0
 40
3.5
  1
12
 50
37.892182
 72
     5
 11
217.061169
 21
108.080989
 31
0.0
100
AcDbText
  0
TEXT
  5
2AB
100
AcDbEntity
  8
0
 62
     7
100
AcDbText
 10
210.011269
 20
102.594336
 30
0.0
 40
3.5
  1
%%c
 50
37.892182
 72
     5
 11
212.0368
 21
104.170722
 31
0.0
100
AcDbText
  0
ARC
  5
2AC
100
AcDbEntity
  8
0
 62
     7
100
AcDbCircle
 10
196.886249
 20
91.746083
 30
0.0
 40
3.0
210
0.0
220
0.0
230
1.0
100
AcDbArc
 50
88.362888
 51
256.089368
  0
ARC
  5
2AD
100
AcDbEntity
  8
0
 62
     7
100
AcDbCircle
 10
196.886249
 20
91.746083
 30
0.0
 40
3.0
210
0.0
220
0.0
230
1.0
100
AcDbArc
 50
359.695001
 51
39.145546
  0
POLYLINE
  5
2AE
100
AcDbEntity
  8
0
 62
     7
100
AcDb2dPolyline
 66
     1
 10
0.0
 20
0.0
 30
0.0
 71
     3
  0
VERTEX
  5
2AF
100
AcDbEntity
  8
0
100
AcDbVertex
100
AcDb2dVertex
 10
195.72538
 20
91.498553
 30
0.0
  0
VERTEX
  5
2B0
100
AcDbEntity
  8
0
100
AcDbVertex
100
AcDb2dVertex
 10
194.518745
 20
89.90355
 30
0.0
  0
VERTEX
  5
2B1
100
AcDbEntity
  8
0
100
AcDbVertex
100
AcDb2dVertex
 10
196.361223
 20
90.681546
 30
0.0
  0
SEQEND
  5
2B2
100
AcDbEntity
  8
0
  0
POLYLINE
  5
2B3
100
AcDbEntity
  8
0
 62
     7
100
AcDb2dPolyline
 66
     1
 10
0.0
 20
0.0
 30
0.0
 71
     3
  0
VERTEX
  5
2B4
100
AcDbEntity
  8
0
100
AcDbVertex
100
AcDb2dVertex
 10
198.047121
 20
91.993611
 30
0.0
  0
VERTEX
  5
2B5
100
AcDbEntity
  8
0
100
AcDbVertex
100
AcDb2dVertex
 10
199.253753
 20
93.588614
 30
0.0
  0
VERTEX
  5
2B6
100
AcDbEntity
  8
0
100
AcDbVertex
100
AcDb2dVertex
 10
197.411276
 20
92.810618
 30
0.0
  0
SEQEND
  5
2B7
100
AcDbEntity
  8
0
  0
LINE
  5
2B8
100
AcDbEntity
  8
0
 62
     7
100
AcDbLine
 10
194.518745
 20
89.90355
 30
0.0
 11
218.946593
 21
108.914756
 31
0.0
210
0.0
220
0.0
230
1.0
  0
ENDBLK
  5
2B9
100
AcDbEntity
  8
0
100
AcDbBlockEnd
  0
BLOCK
  5
2BA
100
AcDbEntity
  8
0
100
AcDbBlockBegin
  2
*D46
 70
    65
 10
0.0
 20
0.0
 30
0.0
  3
*D46
  1

  0
TEXT
  5
2BB
100
AcDbEntity
  8
0
 62
     7
100
AcDbText
 10
65.453415
 20
117.460174
 30
0.0
 40
3.5
  1
12
 50
335.588122
 72
     5
 11
70.340286
 21
115.242164
 31
0.0
100
AcDbText
  0
TEXT
  5
2BC
100
AcDbEntity
  8
0
 62
     7
100
AcDbText
 10
62.205627
 20
118.934249
 30
0.0
 40
3.5
  1
%%c
 50
335.588122
 72
     5
 11
64.542816
 21
117.873465
 31
0.0
100
AcDbText
  0
ARC
  5
2BD
100
AcDbEntity
  8
0
 62
     7
100
AcDbCircle
 10
44.444488
 20
126.446402
 30
0.0
 40
3.0
210
0.0
220
0.0
230
1.0
100
AcDbArc
 50
117.390967
 51
180.000009
  0
ARC
  5
2BE
100
AcDbEntity
  8
0
 62
     7
100
AcDbCircle
 10
44.444488
 20
126.446402
 30
0.0
 40
3.0
210
0.0
220
0.0
230
1.0
100
AcDbArc
 50
251.249496
 51
13.785326
  0
POLYLINE
  5
2BF
100
AcDbEntity
  8
0
 62
     7
100
AcDb2dPolyline
 66
     1
 10
0.0
 20
0.0
 30
0.0
 71
     3
  0
VERTEX
  5
2C0
100
AcDbEntity
  8
0
100
AcDbVertex
100
AcDb2dVertex
 10
39.739608
 20
128.013343
 30
0.0
  0
VERTEX
  5
2C1
100
AcDbEntity
  8
0
100
AcDbVertex
100
AcDb2dVertex
 10
41.712692
 20
127.686282
 30
0.0
  0
VERTEX
  5
2C2
100
AcDbEntity
  8
0
100
AcDbVertex
100
AcDb2dVertex
 10
40.16748
 20
128.956061
 30
0.0
  0
SEQEND
  5
2C3
100
AcDbEntity
  8
0
  0
POLYLINE
  5
2C4
100
AcDbEntity
  8
0
 62
     7
100
AcDb2dPolyline
 66
     1
 10
0.0
 20
0.0
 30
0.0
 71
     3
  0
VERTEX
  5
2C5
100
AcDbEntity
  8
0
100
AcDbVertex
100
AcDb2dVertex
 10
49.149353
 20
124.879466
 30
0.0
  0
VERTEX
  5
2C6
100
AcDbEntity
  8
0
100
AcDbVertex
100
AcDb2dVertex
 10
47.176269
 20
125.206523
 30
0.0
  0
VERTEX
  5
2C7
100
AcDbEntity
  8
0
100
AcDbVertex
100
AcDb2dVertex
 10
48.721481
 20
123.936744
 30
0.0
  0
SEQEND
  5
2C8
100
AcDbEntity
  8
0
  0
LINE
  5
2C9
100
AcDbEntity
  8
0
 62
     7
100
AcDbLine
 10
37.159698
 20
129.752746
 30
0.0
 11
71.954849
 21
113.960284
 31
0.0
210
0.0
220
0.0
230
1.0
  0
ENDBLK
  5
2CA
100
AcDbEntity
  8
0
100
AcDbBlockEnd
  0
BLOCK
  5
2CB
100
AcDbEntity
  8
0
100
AcDbBlockBegin
  2
BLOCK14
 70
     0
 10
0.0
 20
0.0
 30
0.0
  3
BLOCK14
  1

  0
LINE
  5
2CC
100
AcDbEntity
  8
0
  6
DASHDOT
 62
     7
 48
0.1625
100
AcDbLine
 10
-337.89328
 20
124.09539
 30
0.0
 11
-344.39328
 21
124.09539
 31
0.0
210
0.0
220
0.0
230
1.0
  0
LINE
  5
2CD
100
AcDbEntity
  8
0
  6
DASHDOT
 62
     7
 48
0.1625
100
AcDbLine
 10
-341.14328
 20
127.34539
 30
0.0
 11
-341.14328
 21
120.84539
 31
0.0
210
0.0
220
0.0
230
1.0
  0
ENDBLK
  5
2CE
100
AcDbEntity
  8
0
100
AcDbBlockEnd
  0
BLOCK
  5
2CF
100
AcDbEntity
  8
0
100
AcDbBlockBegin
  2
BLOCK15
 70
     0
 10
0.0
 20
0.0
 30
0.0
  3
BLOCK15
  1

  0
LINE
  5
2D0
100
AcDbEntity
  8
0
  6
DASHDOT
 62
     7
 48
0.1625
100
AcDbLine
 10
-337.893311
 20
213.035522
 30
0.0
 11
-344.393311
 21
213.035522
 31
0.0
210
0.0
220
0.0
230
1.0
  0
LINE
  5
2D1
100
AcDbEntity
  8
0
  6
DASHDOT
 62
     7
 48
0.1625
100
AcDbLine
 10
-341.143311
 20
216.285522
 30
0.0
 11
-341.143311
 21
209.785522
 31
0.0
210
0.0
220
0.0
230
1.0
  0
ENDBLK
  5
2D2
100
AcDbEntity
  8
0
100
AcDbBlockEnd
  0
BLOCK
  5
2D3
100
AcDbEntity
  8
0
100
AcDbBlockBegin
  2
BLOCK16
 70
     0
 10
0.0
 20
0.0
 30
0.0
  3
BLOCK16
  1

  0
LINE
  5
2D4
100
AcDbEntity
  8
0
  6
DASHDOT
 62
     7
 48
0.39
100
AcDbLine
 10
-11.50694
 20
5.686948
 30
0.0
 11
-27.106939
 21
5.686948
 31
0.0
210
0.0
220
0.0
230
1.0
  0
LINE
  5
2D5
100
AcDbEntity
  8
0
  6
DASHDOT
 62
     7
 48
0.39
100
AcDbLine
 10
-19.30694
 20
13.486948
 30
0.0
 11
-19.30694
 21
-2.113052
 31
0.0
210
0.0
220
0.0
230
1.0
  0
ENDBLK
  5
2D6
100
AcDbEntity
  8
0
100
AcDbBlockEnd
  0
BLOCK
  5
2D7
100
AcDbEntity
  8
0
100
AcDbBlockBegin
  2
BLOCK17
 70
     0
 10
0.0
 20
0.0
 30
0.0
  3
BLOCK17
  1

  0
LINE
  5
2D8
100
AcDbEntity
  8
0
  6
DASHDOT
 62
     7
 48
0.39
100
AcDbLine
 10
-117.695107
 20
36.96516
 30
0.0
 11
-133.295105
 21
36.96516
 31
0.0
210
0.0
220
0.0
230
1.0
  0
LINE
  5
2D9
100
AcDbEntity
  8
0
  6
DASHDOT
 62
     7
 48
0.39
100
AcDbLine
 10
-125.495102
 20
44.76516
 30
0.0
 11
-125.495102
 21
29.165159
 31
0.0
210
0.0
220
0.0
230
1.0
  0
ENDBLK
  5
2DA
100
AcDbEntity
  8
0
100
AcDbBlockEnd
  0
BLOCK
  5
2DB
100
AcDbEntity
  8
0
100
AcDbBlockBegin
  2
BLOCK18
 70
     0
 10
0.0
 20
0.0
 30
0.0
  3
BLOCK18
  1

  0
LINE
  5
2DC
100
AcDbEntity
  8
0
  6
DASHDOT
 62
     7
 48
0.195
100
AcDbLine
 10
-312.310089
 20
180.617279
 30
0.0
 11
-320.110077
 21
180.617279
 31
0.0
210
0.0
220
0.0
230
1.0
  0
LINE
  5
2DD
100
AcDbEntity
  8
0
  6
DASHDOT
 62
     7
 48
0.195
100
AcDbLine
 10
-316.210083
 20
184.517273
 30
0.0
 11
-316.210083
 21
176.71727
 31
0.0
210
0.0
220
0.0
230
1.0
  0
ENDBLK
  5
2DE
100
AcDbEntity
  8
0
100
AcDbBlockEnd
  0
BLOCK
  5
2DF
100
AcDbEntity
  8
0
100
AcDbBlockBegin
  2
BLOCK19
 70
     0
 10
0.0
 20
0.0
 30
0.0
  3
BLOCK19
  1

  0
LINE
  5
2E0
100
AcDbEntity
  8
0
  6
DASHDOT
 62
     7
 48
0.195
100
AcDbLine
 10
-251.251175
 20
136.961685
 30
0.0
 11
-259.051178
 21
136.961685
 31
0.0
210
0.0
220
0.0
230
1.0
  0
LINE
  5
2E1
100
AcDbEntity
  8
0
  6
DASHDOT
 62
     7
 48
0.195
100
AcDbLine
 10
-255.151184
 20
140.861679
 30
0.0
 11
-255.151184
 21
133.061676
 31
0.0
210
0.0
220
0.0
230
1.0
  0
ENDBLK
  5
2E2
100
AcDbEntity
  8
0
100
AcDbBlockEnd
  0
BLOCK
  5
2E3
100
AcDbEntity
  8
0
100
AcDbBlockBegin
  2
BLOCK20
 70
     0
 10
0.0
 20
0.0
 30
0.0
  3
BLOCK20
  1

  0
LINE
  5
2E4
100
AcDbEntity
  8
0
 62
     7
 48
0.368054
100
AcDbLine
 10
-252.609726
 20
155.188843
 30
0.0
 11
-237.971039
 21
156.754364
 31
0.0
210
0.0
220
0.0
230
1.0
  0
ARC
  5
2E5
100
AcDbEntity
  8
0
 62
     7
100
AcDbCircle
 10
-237.545685
 20
152.777039
 30
0.0
 40
4.0
210
0.0
220
0.0
230
1.0
100
AcDbArc
 50
26.104264
 51
96.104266
  0
ARC
  5
2E6
100
AcDbEntity
  8
0
 62
     7
100
AcDbCircle
 10
-344.143311
 20
218.109665
 30
0.0
 40
7.0
210
0.0
220
0.0
230
1.0
100
AcDbArc
 50
61.185859
 51
180.000009
  0
LINE
  5
2E7
100
AcDbEntity
  8
0
 62
     7
100
AcDbLine
 10
-351.14328
 20
121.492569
 30
0.0
 11
-351.143311
 21
218.109665
 31
0.0
210
0.0
220
0.0
230
1.0
  0
ARC
  5
2E8
100
AcDbEntity
  8
0
 62
     7
100
AcDbCircle
 10
-345.14328
 20
121.492569
 30
0.0
 40
6.0
210
0.0
220
0.0
230
1.0
100
AcDbArc
 50
180.000009
 51
246.104588
  0
LINE
  5
2E9
100
AcDbEntity
  8
0
 62
     7
100
AcDbLine
 10
-104.398079
 20
8.269501
 30
0.0
 11
-347.5737
 21
116.006851
 31
0.0
210
0.0
220
0.0
230
1.0
  0
ARC
  5
2EA
100
AcDbEntity
  8
0
 62
     7
100
AcDbCircle
 10
70.583534
 20
403.223175
 30
0.0
 40
431.980286
210
0.0
220
0.0
230
1.0
100
AcDbArc
 50
246.104588
 51
249.496405
  0
ARC
  5
2EB
100
AcDbEntity
  8
0
 62
     7
100
AcDbCircle
 10
-19.232347
 20
163.045639
 30
0.0
 40
175.558487
210
0.0
220
0.0
230
1.0
100
AcDbArc
 50
249.496405
 51
264.953526
  0
ARC
  5
2EC
100
AcDbEntity
  8
0
 62
     7
100
AcDbCircle
 10
-25.729786
 20
89.466858
 30
0.0
 40
101.693375
210
0.0
220
0.0
230
1.0
100
AcDbArc
 50
264.953526
 51
281.655312
  0
ARC
  5
2ED
100
AcDbEntity
  8
0
 62
     7
100
AcDbCircle
 10
-11.089009
 20
18.490477
 30
0.0
 40
29.2227
210
0.0
220
0.0
230
1.0
100
AcDbArc
 50
281.655312
 51
300.951737
  0
ARC
  5
2EE
100
AcDbEntity
  8
0
 62
     7
100
AcDbCircle
 10
-0.000001
 20
0.0
 30
0.0
 40
7.662
210
0.0
220
0.0
230
1.0
100
AcDbArc
 50
300.951737
 51
39.145546
  0
LINE
  5
2EF
100
AcDbEntity
  8
0
 62
     7
100
AcDbLine
 10
-35.606487
 20
55.879684
 30
0.0
 11
5.942224
 21
4.836964
 31
0.0
210
0.0
220
0.0
230
1.0
  0
ARC
  5
2F0
100
AcDbEntity
  8
0
 62
     7
100
AcDbCircle
 10
-40.259758
 20
52.09193
 30
0.0
 40
6.0
210
0.0
220
0.0
230
1.0
100
AcDbArc
 50
39.145546
 51
61.185859
  0
LINE
  5
2F1
100
AcDbEntity
  8
0
 62
     7
100
AcDbLine
 10
-340.769501
 20
224.242981
 30
0.0
 11
-37.367939
 21
57.349056
 31
0.0
210
0.0
220
0.0
230
1.0
  0
ARC
  5
2F2
100
AcDbEntity
  8
0
 62
     7
100
AcDbCircle
 10
-205.239136
 20
86.843582
 30
0.0
 40
4.0
210
0.0
220
0.0
230
1.0
100
AcDbArc
 50
216.104266
 51
26.104256
  0
LINE
  5
2F3
100
AcDbEntity
  8
0
 62
     7
100
AcDbLine
 10
-208.470917
 20
84.486557
 30
0.0
 11
-255.416153
 21
148.854492
 31
0.0
210
0.0
220
0.0
230
1.0
  0
ARC
  5
2F4
100
AcDbEntity
  8
0
 62
     7
100
AcDbCircle
 10
-252.184372
 20
151.211517
 30
0.0
 40
4.0
210
0.0
220
0.0
230
1.0
100
AcDbArc
 50
96.104266
 51
216.104266
  0
LINE
  5
2F5
100
AcDbEntity
  8
0
 62
     7
100
AcDbLine
 10
-233.953705
 20
154.537064
 30
0.0
 11
-201.647156
 21
88.603607
 31
0.0
210
0.0
220
0.0
230
1.0
  0
ARC
  5
2F6
100
AcDbEntity
  8
0
 62
     7
100
AcDbCircle
 10
-178.273163
 20
72.718094
 30
0.0
 40
4.0
210
0.0
220
0.0
230
1.0
100
AcDbArc
 50
206.104268
 51
246.104588
  0
LINE
  5
2F7
100
AcDbEntity
  8
0
 62
     7
100
AcDbLine
 10
-181.865143
 20
70.958076
 30
0.0
 11
-202.852066
 21
113.789642
 31
0.0
210
0.0
220
0.0
230
1.0
  0
ARC
  5
2F8
100
AcDbEntity
  8
0
 62
     7
100
AcDbCircle
 10
-199.260086
 20
115.54966
 30
0.0
 40
4.0
210
0.0
220
0.0
230
1.0
100
AcDbArc
 50
38.185863
 51
206.104268
  0
LINE
  5
2F9
100
AcDbEntity
  8
0
 62
     7
100
AcDbLine
 10
-196.116043
 20
118.022522
 30
0.0
 11
-155.635056
 21
66.554237
 31
0.0
210
0.0
220
0.0
230
1.0
  0
ARC
  5
2FA
100
AcDbEntity
  8
0
 62
     7
100
AcDbCircle
 10
-158.779099
 20
64.081383
 30
0.0
 40
4.0
210
0.0
220
0.0
230
1.0
100
AcDbArc
 50
246.104588
 51
38.185849
  0
LINE
  5
2FB
100
AcDbEntity
  8
0
 62
     7
100
AcDbLine
 10
-160.399368
 20
60.424236
 30
0.0
 11
-179.893433
 21
69.060951
 31
0.0
210
0.0
220
0.0
230
1.0
  0
ARC
  5
2FC
100
AcDbEntity
  8
0
 62
     7
100
AcDbCircle
 10
-280.100494
 20
117.832024
 30
0.0
 40
4.0
210
0.0
220
0.0
230
1.0
100
AcDbArc
 50
136.104264
 51
246.104588
  0
LINE
  5
2FD
100
AcDbEntity
  8
0
 62
     7
 48
0.488009
100
AcDbLine
 10
-282.98291
 20
120.605415
 30
0.0
 11
-269.448486
 21
134.671844
 31
0.0
210
0.0
220
0.0
230
1.0
  0
ARC
  5
2FE
100
AcDbEntity
  8
0
 62
     7
100
AcDbCircle
 10
-266.566071
 20
131.898438
 30
0.0
 40
4.0
210
0.0
220
0.0
230
1.0
100
AcDbArc
 50
36.104264
 51
136.104264
  0
LINE
  5
2FF
100
AcDbEntity
  8
0
 62
     7
100
AcDbLine
 10
-263.33429
 20
134.255478
 30
0.0
 11
-241.716919
 21
104.61528
 31
0.0
210
0.0
220
0.0
230
1.0
  0
ARC
  5
300
100
AcDbEntity
  8
0
 62
     7
100
AcDbCircle
 10
-244.948715
 20
102.258255
 30
0.0
 40
4.0
210
0.0
220
0.0
230
1.0
100
AcDbArc
 50
246.104588
 51
36.104254
  0
LINE
  5
301
100
AcDbEntity
  8
0
 62
     7
100
AcDbLine
 10
-246.568985
 20
98.601112
 30
0.0
 11
-281.720764
 21
114.174873
 31
0.0
210
0.0
220
0.0
230
1.0
  0
ARC
  5
302
100
AcDbEntity
  8
0
 62
     7
100
AcDbCircle
 10
-325.818542
 20
188.627441
 30
0.0
 40
4.0
210
0.0
220
0.0
230
1.0
100
AcDbArc
 50
345.000012
 51
61.185859
  0
LINE
  5
303
100
AcDbEntity
  8
0
 62
     7
100
AcDbLine
 10
-321.954865
 20
187.592163
 30
0.0
 11
-333.279602
 21
145.327637
 31
0.0
210
0.0
220
0.0
230
1.0
  0
ARC
  5
304
100
AcDbEntity
  8
0
 62
     7
100
AcDbCircle
 10
-337.143311
 20
146.362915
 30
0.0
 40
4.0
210
0.0
220
0.0
230
1.0
100
AcDbArc
 50
180.000009
 51
345.000012
  0
LINE
  5
305
100
AcDbEntity
  8
0
 62
     7
100
AcDbLine
 10
-341.143311
 20
146.362915
 30
0.0
 11
-341.143311
 21
194.856903
 31
0.0
210
0.0
220
0.0
230
1.0
  0
ARC
  5
306
100
AcDbEntity
  8
0
 62
     7
100
AcDbCircle
 10
-337.143311
 20
194.856903
 30
0.0
 40
4.0
210
0.0
220
0.0
230
1.0
100
AcDbArc
 50
61.185859
 51
180.000009
  0
LINE
  5
307
100
AcDbEntity
  8
0
 62
     7
 48
0.323125
100
AcDbLine
 10
-335.215424
 20
198.361664
 30
0.0
 11
-323.890686
 21
192.132187
 31
0.0
210
0.0
220
0.0
230
1.0
  0
ARC
  5
308
100
AcDbEntity
  8
0
 62
     7
100
AcDbCircle
 10
-135.84259
 20
72.123398
 30
0.0
 40
4.0
210
0.0
220
0.0
230
1.0
100
AcDbArc
 50
218.185861
 51
21.185864
  0
LINE
  5
309
100
AcDbEntity
  8
0
 62
     7
100
AcDbLine
 10
-138.986633
 20
69.650543
 30
0.0
 11
-171.448181
 21
110.922752
 31
0.0
210
0.0
220
0.0
230
1.0
  0
ARC
  5
30A
100
AcDbEntity
  8
0
 62
     7
100
AcDbCircle
 10
-168.304138
 20
113.395607
 30
0.0
 40
4.0
210
0.0
220
0.0
230
1.0
100
AcDbArc
 50
61.185859
 51
218.185861
  0
LINE
  5
30B
100
AcDbEntity
  8
0
 62
     7
100
AcDbLine
 10
-166.376251
 20
116.90036
 30
0.0
 11
-145.449829
 21
105.389236
 31
0.0
210
0.0
220
0.0
230
1.0
  0
ARC
  5
30C
100
AcDbEntity
  8
0
 62
     7
100
AcDbCircle
 10
-147.377716
 20
101.884483
 30
0.0
 40
4.0
210
0.0
220
0.0
230
1.0
100
AcDbArc
 50
21.185862
 51
61.185859
  0
LINE
  5
30D
100
AcDbEntity
  8
0
 62
     7
100
AcDbLine
 10
-143.648056
 20
103.330063
 30
0.0
 11
-132.112946
 21
73.568977
 31
0.0
210
0.0
220
0.0
230
1.0
  0
ARC
  5
30E
100
AcDbEntity
  8
0
 62
     7
100
AcDbCircle
 10
-316.061462
 20
136.176254
 30
0.0
 40
4.0
210
0.0
220
0.0
230
1.0
100
AcDbArc
 50
165.000008
 51
264.999998
  0
LINE
  5
30F
100
AcDbEntity
  8
0
 62
     7
100
AcDbLine
 10
-319.92514
 20
137.211533
 30
0.0
 11
-308.929688
 21
178.247208
 31
0.0
210
0.0
220
0.0
230
1.0
  0
ARC
  5
310
100
AcDbEntity
  8
0
 62
     7
100
AcDbCircle
 10
-305.065979
 20
177.211945
 30
0.0
 40
4.0
210
0.0
220
0.0
230
1.0
100
AcDbArc
 50
61.185859
 51
165.000008
  0
LINE
  5
311
100
AcDbEntity
  8
0
 62
     7
100
AcDbLine
 10
-303.138092
 20
180.71669
 30
0.0
 11
-284.968048
 21
170.721786
 31
0.0
210
0.0
220
0.0
230
1.0
  0
ARC
  5
312
100
AcDbEntity
  8
0
 62
     7
100
AcDbCircle
 10
-286.895935
 20
167.217041
 30
0.0
 40
4.0
210
0.0
220
0.0
230
1.0
100
AcDbArc
 50
326.185875
 51
61.185859
  0
LINE
  5
313
100
AcDbEntity
  8
0
 62
     7
100
AcDbLine
 10
-283.57254
 20
164.991043
 30
0.0
 11
-304.827209
 21
133.258148
 31
0.0
210
0.0
220
0.0
230
1.0
  0
ARC
  5
314
100
AcDbEntity
  8
0
 62
     7
100
AcDbCircle
 10
-308.150604
 20
135.484146
 30
0.0
 40
4.0
210
0.0
220
0.0
230
1.0
100
AcDbArc
 50
264.999998
 51
326.185875
  0
LINE
  5
315
100
AcDbEntity
  8
0
 62
     7
 48
0.198526
100
AcDbLine
 10
-308.499237
 20
131.499374
 30
0.0
 11
-316.410065
 21
132.191483
 31
0.0
210
0.0
220
0.0
230
1.0
  0
ARC
  5
316
100
AcDbEntity
  8
0
 62
     7
100
AcDbCircle
 10
-89.106361
 20
15.184309
 30
0.0
 40
4.0
210
0.0
220
0.0
230
1.0
100
AcDbArc
 50
201.185862
 51
279.145546
  0
LINE
  5
317
100
AcDbEntity
  8
0
 62
     7
100
AcDbLine
 10
-92.836014
 20
13.738731
 30
0.0
 11
-119.75592
 21
83.19323
 31
0.0
210
0.0
220
0.0
230
1.0
  0
ARC
  5
318
100
AcDbEntity
  8
0
 62
     7
100
AcDbCircle
 10
-116.026268
 20
84.638809
 30
0.0
 40
4.0
210
0.0
220
0.0
230
1.0
100
AcDbArc
 50
61.185859
 51
201.185862
  0
LINE
  5
319
100
AcDbEntity
  8
0
 62
     7
100
AcDbLine
 10
-114.098389
 20
88.143562
 30
0.0
 11
-43.552704
 21
49.33807
 31
0.0
210
0.0
220
0.0
230
1.0
  0
ARC
  5
31A
100
AcDbEntity
  8
0
 62
     7
100
AcDbCircle
 10
-45.480583
 20
45.833317
 30
0.0
 40
4.0
210
0.0
220
0.0
230
1.0
100
AcDbArc
 50
39.145546
 51
61.185859
  0
LINE
  5
31B
100
AcDbEntity
  8
0
 62
     7
100
AcDbLine
 10
-42.378407
 20
48.35849
 30
0.0
 11
-25.375278
 21
27.470095
 31
0.0
210
0.0
220
0.0
230
1.0
  0
ARC
  5
31C
100
AcDbEntity
  8
0
 62
     7
100
AcDbCircle
 10
-28.477459
 20
24.944925
 30
0.0
 40
4.0
210
0.0
220
0.0
230
1.0
100
AcDbArc
 50
279.145546
 51
39.145546
  0
LINE
  5
31D
100
AcDbEntity
  8
0
 62
     7
100
AcDbLine
 10
-27.841686
 20
20.995773
 30
0.0
 11
-88.470589
 21
11.235158
 31
0.0
210
0.0
220
0.0
230
1.0
  0
CIRCLE
  5
31E
100
AcDbEntity
  8
0
 62
     7
100
AcDbCircle
 10
-341.14328
 20
124.09539
 30
0.0
 40
2.5
210
0.0
220
0.0
230
1.0
  0
CIRCLE
  5
31F
100
AcDbEntity
  8
0
 62
     7
100
AcDbCircle
 10
-341.143311
 20
213.035522
 30
0.0
 40
2.5
210
0.0
220
0.0
230
1.0
  0
CIRCLE
  5
320
100
AcDbEntity
  8
0
 62
     7
100
AcDbCircle
 10
-19.30694
 20
5.686948
 30
0.0
 40
6.0
210
0.0
220
0.0
230
1.0
  0
CIRCLE
  5
321
100
AcDbEntity
  8
0
 62
     7
100
AcDbCircle
 10
-125.495102
 20
36.96516
 30
0.0
 40
6.0
210
0.0
220
0.0
230
1.0
  0
CIRCLE
  5
322
100
AcDbEntity
  8
0
 62
     7
100
AcDbCircle
 10
-255.151184
 20
136.961685
 30
0.0
 40
3.0
210
0.0
220
0.0
230
1.0
  0
CIRCLE
  5
323
100
AcDbEntity
  8
0
 62
     7
100
AcDbCircle
 10
-316.210083
 20
180.617279
 30
0.0
 40
3.0
210
0.0
220
0.0
230
1.0
  0
ENDBLK
  5
324
100
AcDbEntity
  8
0
100
AcDbBlockEnd
  0
ENDSEC
  0
SECTION
  2
ENTITIES
  0
VIEWPORT
  5
85
100
AcDbEntity
 67
     1
  8
0
 62
     0
 48
0.0
100
AcDbViewport
 10
0.0
 20
0.0
 30
0.0
 40
1000.0
 41
1000.0
 68
     1
 69
     1
1001
ACAD
1000
MVIEW
1002
{
1070
    16
1010
0.0
1020
0.0
1030
0.0
1010
0.0
1020
0.0
1030
1.0
1040
0.0
1040
1000.0
1040
0.0
1040
0.0
1040
50.0
1040
0.0
1040
0.0
1070
     0
1070
   100
1070
     1
1070
     1
1070
     0
1070
     0
1070
     0
1070
     0
1040
0.0
1040
0.0
1040
0.0
1040
1.0
1040
1.0
1040
1.0
1040
1.0
1070
     0
1002
{
1002
}
1002
}
  0
LINE
  5
25
100
AcDbEntity
  8
0
 62
     7
100
AcDbLine
 10
10.0
 20
10.0
 30
0.0
 11
287.0
 21
10.0
 31
0.0
210
0.0
220
0.0
230
1.0
  0
LINE
  5
26
100
AcDbEntity
  8
0
 62
     7
100
AcDbLine
 10
287.0
 20
10.0
 30
0.0
 11
287.0
 21
200.0
 31
0.0
210
0.0
220
0.0
230
1.0
  0
LINE
  5
27
100
AcDbEntity
  8
0
 62
     7
100
AcDbLine
 10
287.0
 20
200.0
 30
0.0
 11
10.0
 21
200.0
 31
0.0
210
0.0
220
0.0
230
1.0
  0
LINE
  5
28
100
AcDbEntity
  8
0
 62
     7
100
AcDbLine
 10
10.0
 20
200.0
 30
0.0
 11
10.0
 21
10.0
 31
0.0
210
0.0
220
0.0
230
1.0
  0
LINE
  5
29
100
AcDbEntity
  8
0
 62
     7
100
AcDbLine
 10
97.0
 20
10.0
 30
0.0
 11
287.0
 21
10.0
 31
0.0
210
0.0
220
0.0
230
1.0
  0
LINE
  5
2A
100
AcDbEntity
  8
0
 62
     7
100
AcDbLine
 10
287.0
 20
70.0
 30
0.0
 11
287.0
 21
10.0
 31
0.0
210
0.0
220
0.0
230
1.0
  0
LINE
  5
2B
100
AcDbEntity
  8
0
 62
     7
100
AcDbLine
 10
226.746796
 20
23.726589
 30
0.0
 11
287.0
 21
23.726589
 31
0.0
210
0.0
220
0.0
230
1.0
  0
LINE
  5
2C
100
AcDbEntity
  8
0
 62
     7
100
AcDbLine
 10
226.955368
 20
32.793762
 30
0.0
 11
287.0
 21
32.793762
 31
0.0
210
0.0
220
0.0
230
1.0
  0
LINE
  5
2D
100
AcDbEntity
  8
0
 62
     7
 48
0.343165
100
AcDbLine
 10
232.684631
 20
10.0
 30
0.0
 11
232.684631
 21
23.726589
 31
0.0
210
0.0
220
0.0
230
1.0
  0
LINE
  5
2E
100
AcDbEntity
  8
0
 62
     7
 48
0.226679
100
AcDbLine
 10
255.099792
 20
32.793762
 30
0.0
 11
255.099792
 21
23.726589
 31
0.0
210
0.0
220
0.0
230
1.0
  0
LINE
  5
2F
100
AcDbEntity
  8
0
 62
     7
100
AcDbLine
 10
226.9543
 20
43.854149
 30
0.0
 11
287.021942
 21
43.795689
 31
0.0
210
0.0
220
0.0
230
1.0
  0
LINE
  5
30
100
AcDbEntity
  8
0
 62
     7
 48
0.272022
100
AcDbLine
 10
232.684631
 20
43.674656
 30
0.0
 11
232.684631
 21
32.793762
 31
0.0
210
0.0
220
0.0
230
1.0
  0
LINE
  5
31
100
AcDbEntity
  8
0
 62
     7
 48
0.275175
100
AcDbLine
 10
248.69017
 20
43.800739
 30
0.0
 11
248.719696
 21
32.793762
 31
0.0
210
0.0
220
0.0
230
1.0
  0
LINE
  5
32
100
AcDbEntity
  8
0
 62
     7
 48
0.274433
100
AcDbLine
 10
253.245071
 20
32.793762
 30
0.0
 11
253.245071
 21
43.771076
 31
0.0
210
0.0
220
0.0
230
1.0
  0
CIRCLE
  5
33
100
AcDbEntity
  8
0
 62
     7
100
AcDbCircle
 10
260.0
 20
38.0
 30
0.0
 40
4.0
210
0.0
220
0.0
230
1.0
  0
CIRCLE
  5
34
100
AcDbEntity
  8
0
 62
     7
100
AcDbCircle
 10
260.0
 20
38.0
 30
0.0
 40
2.0
210
0.0
220
0.0
230
1.0
  0
LINE
  5
35
100
AcDbEntity
  8
0
 62
     7
100
AcDbLine
 10
254.273575
 20
38.0
 30
0.0
 11
281.220154
 21
38.0
 31
0.0
210
0.0
220
0.0
230
1.0
  0
LINE
  5
36
100
AcDbEntity
  8
0
 62
     7
 48
0.245875
100
AcDbLine
 10
260.0
 20
43.096127
 30
0.0
 11
260.0
 21
33.261135
 31
0.0
210
0.0
220
0.0
230
1.0
  0
LINE
  5
37
100
AcDbEntity
  8
0
 62
     7
 48
0.1
100
AcDbLine
 10
270.0
 20
40.0
 30
0.0
 11
270.0
 21
36.0
 31
0.0
210
0.0
220
0.0
230
1.0
  0
LINE
  5
38
100
AcDbEntity
  8
0
 62
     7
 48
0.2
100
AcDbLine
 10
280.0
 20
42.0
 30
0.0
 11
280.0
 21
34.0
 31
0.0
210
0.0
220
0.0
230
1.0
  0
LINE
  5
39
100
AcDbEntity
  8
0
 62
     7
 48
0.254951
100
AcDbLine
 10
270.0
 20
36.0
 30
0.0
 11
280.0
 21
34.0
 31
0.0
210
0.0
220
0.0
230
1.0
  0
LINE
  5
3A
100
AcDbEntity
  8
0
 62
     7
 48
0.254951
100
AcDbLine
 10
270.0
 20
40.0
 30
0.0
 11
280.0
 21
42.0
 31
0.0
210
0.0
220
0.0
230
1.0
  0
LINE
  5
3B
100
AcDbEntity
  8
0
 62
     7
100
AcDbLine
 10
226.955368
 20
49.595261
 30
0.0
 11
287.0
 21
49.595261
 31
0.0
210
0.0
220
0.0
230
1.0
  0
LINE
  5
3C
100
AcDbEntity
  8
0
 62
     7
100
AcDbLine
 10
226.832092
 20
55.097805
 30
0.0
 11
287.0
 21
55.097805
 31
0.0
210
0.0
220
0.0
230
1.0
  0
LINE
  5
3D
100
AcDbEntity
  8
0
 62
     7
 48
0.282296
100
AcDbLine
 10
276.479645
 20
43.80595
 30
0.0
 11
276.479645
 21
55.097805
 31
0.0
210
0.0
220
0.0
230
1.0
  0
LINE
  5
3E
100
AcDbEntity
  8
0
 62
     7
100
AcDbLine
 10
226.832092
 20
55.097805
 30
0.0
 11
226.832092
 21
10.0
 31
0.0
210
0.0
220
0.0
230
1.0
  0
LINE
  5
3F
100
AcDbEntity
  8
0
 62
     7
 48
0.281976
100
AcDbLine
 10
263.304169
 20
43.818771
 30
0.0
 11
263.304169
 21
55.097805
 31
0.0
210
0.0
220
0.0
230
1.0
  0
DIMENSION
  5
41
100
AcDbEntity
  8
0
 62
     0
100
AcDbDimension
  2
*D14
 10
102.128921
 20
172.217878
 30
0.0
 11
102.128921
 21
164.113316
 31
0.0
 70
   160
210
0.0
220
0.0
230
1.0
 52
89.999523
  3
STANDARD
100
AcDbAlignedDimension
 13
60.861088
 23
156.008755
 33
0.0
 14
48.069477
 24
172.217878
 34
0.0
 50
89.999523
100
AcDbRotatedDimension
1001
ACAD
1000
DSTYLE
1002
{
1070
   144
1040
2.0
1002
}
  0
DIMENSION
  5
43
100
AcDbEntity
  8
0
 62
     0
100
AcDbDimension
  2
*D15
 10
162.056442
 20
172.217878
 30
0.0
 11
162.056442
 21
149.982846
 31
0.0
 70
   160
210
0.0
220
0.0
230
1.0
 52
89.999523
  3
STANDARD
100
AcDbAlignedDimension
 13
48.069481
 23
127.747815
 33
0.0
 14
48.069477
 24
172.217878
 34
0.0
 50
89.999523
100
AcDbRotatedDimension
1001
ACAD
1000
DSTYLE
1002
{
1070
   144
1040
2.0
1002
}
  0
DIMENSION
  5
45
100
AcDbEntity
  8
0
 62
     0
100
AcDbDimension
  2
*D16
 10
222.074204
 20
172.217878
 30
0.0
 11
222.074204
 21
120.380735
 31
0.0
 70
   160
210
0.0
220
0.0
230
1.0
 52
89.999523
  3
STANDARD
100
AcDbAlignedDimension
 13
207.362658
 23
68.543592
 33
0.0
 14
46.444477
 24
172.217878
 34
0.0
 50
89.999523
100
AcDbRotatedDimension
1001
ACAD
1000
DSTYLE
1002
{
1070
   144
1040
2.0
1002
}
  0
DIMENSION
  5
47
100
AcDbEntity
  8
0
 62
     0
100
AcDbDimension
  2
*D17
 10
152.266281
 20
172.217878
 30
0.0
 11
152.266281
 21
153.199418
 31
0.0
 70
   160
210
0.0
220
0.0
230
1.0
 52
89.999523
  3
STANDARD
100
AcDbAlignedDimension
 13
89.440538
 23
134.180959
 33
0.0
 14
46.444477
 24
172.217878
 34
0.0
 50
89.999523
100
AcDbRotatedDimension
1001
ACAD
1000
DSTYLE
1002
{
1070
   144
1040
2.0
1002
}
  0
DIMENSION
  5
49
100
AcDbEntity
  8
0
 62
     0
100
AcDbDimension
  2
*D18
 10
172.126327
 20
172.217878
 30
0.0
 11
172.126327
 21
128.200288
 31
0.0
 70
   160
210
0.0
220
0.0
230
1.0
 52
89.999523
  3
STANDARD
100
AcDbAlignedDimension
 13
154.268577
 23
84.182698
 33
0.0
 14
46.444477
 24
172.217878
 34
0.0
 50
89.999523
100
AcDbRotatedDimension
1001
ACAD
1000
DSTYLE
1002
{
1070
   144
1040
2.0
1002
}
  0
DIMENSION
  5
4B
100
AcDbEntity
  8
0
 62
     0
100
AcDbDimension
  2
*D19
 10
46.444477
 20
85.527802
 30
0.0
 11
71.147805
 21
85.527802
 31
0.0
 70
   160
210
0.0
220
0.0
230
1.0
 52
89.999523
  3
STANDARD
100
AcDbAlignedDimension
 13
58.911088
 23
156.008755
 33
0.0
 14
46.444477
 24
172.217878
 34
0.0
 50
179.999046
100
AcDbRotatedDimension
1001
ACAD
1000
DSTYLE
1002
{
1070
   144
1040
2.0
1002
}
  0
DIMENSION
  5
4D
100
AcDbEntity
  8
0
 62
     0
100
AcDbDimension
  2
*D20
 10
46.444477
 20
95.465186
 30
0.0
 11
67.942508
 21
95.465186
 31
0.0
 70
   160
210
0.0
220
0.0
230
1.0
 52
89.999523
  3
STANDARD
100
AcDbAlignedDimension
 13
89.440538
 23
134.180959
 33
0.0
 14
46.444477
 24
172.217878
 34
0.0
 50
179.999046
100
AcDbRotatedDimension
1001
ACAD
1000
DSTYLE
1002
{
1070
   144
1040
2.0
1002
}
  0
DIMENSION
  5
4F
100
AcDbEntity
  8
0
 62
     0
100
AcDbDimension
  2
*D21
 10
46.444477
 20
75.590424
 30
0.0
 11
100.356527
 21
75.590424
 31
0.0
 70
   160
210
0.0
220
0.0
230
1.0
 52
89.999523
  3
STANDARD
100
AcDbAlignedDimension
 13
154.268577
 23
84.182698
 33
0.0
 14
46.444477
 24
172.217878
 34
0.0
 50
179.999046
100
AcDbRotatedDimension
1001
ACAD
1000
DSTYLE
1002
{
1070
   144
1040
2.0
1002
}
  0
DIMENSION
  5
51
100
AcDbEntity
  8
0
 62
     0
100
AcDbDimension
  2
*D22
 10
46.444477
 20
60.606689
 30
0.0
 11
126.903568
 21
60.606689
 31
0.0
 70
   160
210
0.0
220
0.0
230
1.0
 52
89.999523
  3
STANDARD
100
AcDbAlignedDimension
 13
207.362658
 23
68.543592
 33
0.0
 14
46.444477
 24
172.217878
 34
0.0
 50
179.999046
100
AcDbRotatedDimension
1001
ACAD
1000
DSTYLE
1002
{
1070
   144
1040
2.0
1002
}
  0
DIMENSION
  5
53
100
AcDbEntity
  8
0
 62
     0
100
AcDbDimension
  2
*D23
 10
24.72015
 20
178.46137
 30
0.0
 11
27.13
 21
182.842309
 31
0.0
 70
   160
210
0.0
220
0.0
230
1.0
 52
89.999523
  3
STANDARD
100
AcDbAlignedDimension
 13
46.631372
 23
177.821611
 33
0.0
 14
65.447079
 24
156.058463
 34
0.0
 50
241.184584
100
AcDbRotatedDimension
1001
ACAD
1000
DSTYLE
1002
{
1070
   144
1040
2.0
1002
}
  0
DIMENSION
  5
55
100
AcDbEntity
  8
0
 62
     0
100
AcDbDimension
  2
*D24
 10
37.227727
 20
182.994331
 30
0.0
 11
40.098999
 21
188.214103
 31
0.0
 70
   160
210
0.0
220
0.0
230
1.0
 52
89.999523
  3
STANDARD
100
AcDbAlignedDimension
 13
159.966933
 23
109.771898
 33
0.0
 14
46.631372
 24
177.821611
 34
0.0
 50
61.185538
100
AcDbRotatedDimension
1001
ACAD
1000
DSTYLE
1002
{
1070
   144
1040
2.0
1002
}
  0
DIMENSION
  5
57
100
AcDbEntity
  8
0
 62
     0
100
AcDbDimension
  2
*D25
 10
46.44448
 20
105.678611
 30
0.0
 11
35.623489
 21
105.678611
 31
0.0
 70
   160
210
0.0
220
0.0
230
1.0
 52
89.999523
  3
STANDARD
100
AcDbAlignedDimension
 13
41.444481
 23
126.446403
 33
0.0
 14
46.44448
 24
138.881577
 34
0.0
 50
359.998092
100
AcDbRotatedDimension
1001
ACAD
1000
DSTYLE
1002
{
1070
   144
1040
2.0
1002
}
  0
DIMENSION
  5
59
100
AcDbEntity
  8
0
 62
     0
100
AcDbDimension
  2
*D26
 10
30.072965
 20
143.204226
 30
0.0
 11
27.541286
 21
137.489937
 31
0.0
 70
   160
210
0.0
220
0.0
230
1.0
 52
89.999523
  3
STANDARD
100
AcDbAlignedDimension
 13
43.229276
 23
123.703544
 33
0.0
 14
127.06941
 24
100.230594
 34
0.0
 50
66.10423
100
AcDbRotatedDimension
1001
ACAD
1000
DSTYLE
1002
{
1070
   144
1040
2.0
1002
}
  0
DIMENSION
  5
5B
100
AcDbEntity
  8
0
 62
     0
100
AcDbDimension
  2
*D27
 10
45.400796
 20
171.529961
 30
0.0
 11
62.756225
 21
182.969367
 31
0.0
 70
   163
210
0.0
220
0.0
230
1.0
  3
STANDARD
100
AcDbDiametricDimension
 15
47.488159
 25
172.905795
 35
0.0
 40
0.0
1001
ACAD
1000
DSTYLE
1002
{
1070
   144
1040
2.0
1002
}
  0
DIMENSION
  5
5D
100
AcDbEntity
  8
0
 62
     0
100
AcDbDimension
  2
*D28
 10
57.646347
 20
155.202262
 30
0.0
 11
92.965873
 21
177.724631
 31
0.0
 70
   163
210
0.0
220
0.0
230
1.0
  3
STANDARD
100
AcDbDiametricDimension
 15
60.175829
 25
156.815248
 35
0.0
 40
0.0
1001
ACAD
1000
DSTYLE
1002
{
1070
   144
1040
2.0
1002
}
  0
DIMENSION
  5
5F
100
AcDbEntity
  8
0
 62
     0
100
AcDbDimension
  2
*D29
 10
88.191231
 20
133.350758
 30
0.0
 11
117.58113
 21
152.881186
 31
0.0
 70
   163
210
0.0
220
0.0
230
1.0
  3
STANDARD
100
AcDbDiametricDimension
 15
90.689845
 25
135.011159
 35
0.0
 40
0.0
1001
ACAD
1000
DSTYLE
1002
{
1070
   144
1040
2.0
1002
}
  0
DIMENSION
  5
61
100
AcDbEntity
  8
0
 62
     0
100
AcDbDimension
  2
*D30
 10
151.850704
 20
82.406777
 30
0.0
 11
191.42694
 21
111.475417
 31
0.0
 70
   163
210
0.0
220
0.0
230
1.0
  3
STANDARD
100
AcDbDiametricDimension
 15
156.686449
 25
85.958618
 35
0.0
 40
0.0
1001
ACAD
1000
DSTYLE
1002
{
1070
   144
1040
2.0
1002
}
  0
DIMENSION
  5
63
100
AcDbEntity
  8
0
 62
     0
100
AcDbDimension
  2
*D31
 10
204.362702
 20
68.559742
 30
0.0
 11
231.764282
 21
68.412224
 31
0.0
 70
   163
210
0.0
220
0.0
230
1.0
  3
STANDARD
100
AcDbDiametricDimension
 15
210.362615
 25
68.527441
 35
0.0
 40
0.0
1001
ACAD
1000
DSTYLE
1002
{
1070
   144
1040
2.0
1002
}
  0
DIMENSION
  5
65
100
AcDbEntity
  8
0
 62
     0
100
AcDbDimension
  2
*D32
 10
47.474474
 20
128.456063
 30
0.0
 11
26.392761
 21
113.959762
 31
0.0
 70
   163
210
0.0
220
0.0
230
1.0
  3
STANDARD
100
AcDbDiametricDimension
 15
45.414489
 25
127.039567
 35
0.0
 40
0.0
1001
ACAD
1000
DSTYLE
1002
{
1070
   144
1040
2.0
1002
}
  0
DIMENSION
  5
67
100
AcDbEntity
  8
0
 62
     0
100
AcDbDimension
  2
*D33
 10
199.395455
 20
85.495412
 30
0.0
 11
209.608673
 21
93.808959
 31
0.0
 70
   161
210
0.0
220
0.0
230
1.0
 52
89.999523
  3
STANDARD
100
AcDbAlignedDimension
 13
200.116717
 23
92.529599
 33
0.0
 14
196.238993
 24
89.373136
 34
0.0
1001
ACAD
1000
DSTYLE
1002
{
1070
   144
1040
2.0
1002
}
  0
DIMENSION
  5
69
100
AcDbEntity
  8
0
 62
     0
100
AcDbDimension
  2
*D34
 10
204.777387
 20
78.16556
 30
0.0
 11
187.800384
 21
78.225152
 31
0.0
 70
   163
210
0.0
220
0.0
230
1.0
  3
STANDARD
100
AcDbDiametricDimension
 15
200.777411
 25
78.179601
 35
0.0
 40
0.0
1001
ACAD
1000
DSTYLE
1002
{
1070
   144
1040
2.0
1002
}
  0
DIMENSION
  5
6B
100
AcDbEntity
  8
0
 62
     0
100
AcDbDimension
  2
*D35
 10
220.860214
 20
45.675903
 30
0.0
 11
131.152348
 21
45.675903
 31
0.0
 70
   160
210
0.0
220
0.0
230
1.0
 52
89.999523
  3
STANDARD
100
AcDbAlignedDimension
 13
41.444481
 23
126.446403
 33
0.0
 14
220.860214
 24
65.700118
 34
0.0
100
AcDbRotatedDimension
1001
ACAD
1000
DSTYLE
1002
{
1070
   144
1040
2.0
1002
}
  0
DIMENSION
  5
6D
100
AcDbEntity
  8
0
 62
     0
100
AcDbDimension
  2
*D36
 10
246.880798
 20
178.254276
 30
0.0
 11
246.880798
 21
118.92064
 31
0.0
 70
   160
210
0.0
220
0.0
230
1.0
 52
89.999523
  3
STANDARD
100
AcDbAlignedDimension
 13
204.029596
 23
59.587003
 33
0.0
 14
44.87558
 24
178.254276
 34
0.0
 50
89.999523
100
AcDbRotatedDimension
1001
ACAD
1000
DSTYLE
1002
{
1070
   144
1040
2.0
1002
}
  0
DIMENSION
  5
6F
100
AcDbEntity
  8
0
 62
     0
100
AcDbDimension
  2
*D37
 10
114.274428
 20
113.916564
 30
0.0
 11
97.858642
 21
105.873038
 31
0.0
 70
   160
210
0.0
220
0.0
230
1.0
 52
89.999523
  3
STANDARD
100
AcDbAlignedDimension
 13
116.564372
 23
120.606568
 33
0.0
 14
116.474458
 24
109.42659
 34
0.0
 50
206.103172
100
AcDbRotatedDimension
1001
ACAD
1000
DSTYLE
1002
{
1070
   144
1040
2.0
1002
}
  0
DIMENSION
  5
71
100
AcDbEntity
  8
0
 62
     0
100
AcDbDimension
  2
*D38
 10
139.039907
 20
111.310711
 30
0.0
 11
136.092372
 21
108.992407
 31
0.0
 70
   160
210
0.0
220
0.0
230
1.0
 52
89.999523
  3
STANDARD
100
AcDbAlignedDimension
 13
136.235909
 23
102.744055
 33
0.0
 14
135.948835
 24
115.240758
 34
0.0
 50
38.18566
100
AcDbRotatedDimension
1001
ACAD
1000
DSTYLE
1002
{
1070
   144
1040
2.0
1002
}
  0
DIMENSION
  5
73
100
AcDbEntity
  8
0
 62
     0
100
AcDbDimension
  2
*D39
 10
153.604781
 20
95.660072
 30
0.0
 11
157.10133
 21
97.015301
 31
0.0
 70
   160
210
0.0
220
0.0
230
1.0
 52
89.999523
  3
STANDARD
100
AcDbAlignedDimension
 13
158.790906
 23
103.032596
 33
0.0
 14
150.959656
 24
102.484606
 34
0.0
 50
201.184796
100
AcDbRotatedDimension
1001
ACAD
1000
DSTYLE
1002
{
1070
   144
1040
2.0
1002
}
  0
DIMENSION
  5
75
100
AcDbEntity
  8
0
 62
     0
100
AcDbDimension
  2
*D40
 10
101.555154
 20
123.335017
 30
0.0
 11
98.525356
 21
121.125305
 31
0.0
 70
   161
210
0.0
220
0.0
230
1.0
 52
89.999523
  3
STANDARD
100
AcDbAlignedDimension
 13
98.441841
 23
114.875863
 33
0.0
 14
104.501436
 24
119.295286
 34
0.0
1001
ACAD
1000
DSTYLE
1002
{
1070
   144
1040
2.0
1002
}
  0
DIMENSION
  5
77
100
AcDbEntity
  8
0
 62
     0
100
AcDbDimension
  2
*D41
 10
50.82836
 20
140.050931
 30
0.0
 11
54.450582
 21
139.08036
 31
0.0
 70
   161
210
0.0
220
0.0
230
1.0
 52
89.999523
  3
STANDARD
100
AcDbAlignedDimension
 13
56.778709
 23
133.280159
 33
0.0
 14
49.534265
 24
135.221302
 34
0.0
1001
ACAD
1000
DSTYLE
1002
{
1070
   144
1040
2.0
1002
}
  0
DIMENSION
  5
79
100
AcDbEntity
  8
0
 62
     0
100
AcDbDimension
  2
*D42
 10
55.97516
 20
172.681818
 30
0.0
 11
32.365203
 21
161.093299
 31
0.0
 70
   162
210
0.0
220
0.0
230
1.0
  3
STANDARD
100
AcDb2LineAngularDimension
 13
41.444477
 23
180.674798
 33
0.0
 14
41.444478
 24
164.090815
 34
0.0
 15
41.444477
 25
180.674798
 35
0.0
 16
48.966387
 26
160.443901
 36
0.0
  0
DIMENSION
  5
7B
100
AcDbEntity
  8
0
 62
     0
100
AcDbDimension
  2
*D43
 10
62.540673
 20
115.147757
 30
0.0
 11
31.372909
 21
98.289138
 31
0.0
 70
   162
210
0.0
220
0.0
230
1.0
  3
STANDARD
100
AcDb2LineAngularDimension
 13
41.444481
 23
124.494285
 33
0.0
 14
41.444481
 24
126.446403
 34
0.0
 15
41.444481
 25
124.494285
 35
0.0
 16
51.977003
 26
98.470982
 36
0.0
  0
DIMENSION
  5
7D
100
AcDbEntity
  8
0
 62
     0
100
AcDbDimension
  2
*D44
 10
43.191565
 20
171.725549
 30
0.0
 11
53.770095
 21
190.007498
 31
0.0
 70
   163
210
0.0
220
0.0
230
1.0
  3
STANDARD
100
AcDbDiametricDimension
 15
46.69739
 25
177.78436
 35
0.0
 40
0.0
1001
ACAD
1000
DSTYLE
1002
{
1070
   144
1040
2.0
1002
}
  0
DIMENSION
  5
7F
100
AcDbEntity
  8
0
 62
     0
100
AcDbDimension
  2
*D45
 10
194.518746
 20
89.90355
 30
0.0
 11
213.843308
 21
104.943076
 31
0.0
 70
   163
210
0.0
220
0.0
230
1.0
  3
STANDARD
100
AcDbDiametricDimension
 15
199.253753
 25
93.588615
 35
0.0
 40
0.0
1001
ACAD
1000
DSTYLE
1002
{
1070
   144
1040
2.0
1002
}
  0
DIMENSION
  5
81
100
AcDbEntity
  8
0
 62
     0
100
AcDbDimension
  2
*D46
 10
41.712687
 20
127.686281
 30
0.0
 11
66.066315
 21
116.632911
 31
0.0
 70
   163
210
0.0
220
0.0
230
1.0
  3
STANDARD
100
AcDbDiametricDimension
 15
47.176276
 25
125.206525
 35
0.0
 40
0.0
1001
ACAD
1000
DSTYLE
1002
{
1070
   144
1040
2.0
1002
}
  0
POINT
  5
82
100
AcDbEntity
  8
0
 62
     7
100
AcDbPoint
 10
220.860214
 20
65.700118
 30
0.0
210
0.0
220
0.0
230
1.0
  0
POINT
  5
83
100
AcDbEntity
  8
0
 62
     7
100
AcDbPoint
 10
204.029596
 20
59.587003
 30
0.0
210
0.0
220
0.0
230
1.0
  0
POINT
  5
84
100
AcDbEntity
  8
0
 62
     7
100
AcDbPoint
 10
44.87558
 20
178.254279
 30
0.0
210
0.0
220
0.0
230
1.0
  0
INSERT
  5
325
100
AcDbEntity
  8
0
100
AcDbBlockReference
  2
BLOCK0
 10
0.0
 20
0.0
 30
0.0
210
0.0
220
0.0
230
1.0
  0
INSERT
  5
326
100
AcDbEntity
  8
0
100
AcDbBlockReference
  2
BLOCK1
 10
0.0
 20
0.0
 30
0.0
210
0.0
220
0.0
230
1.0
  0
INSERT
  5
327
100
AcDbEntity
  8
0
100
AcDbBlockReference
  2
BLOCK2
 10
0.0
 20
0.0
 30
0.0
210
0.0
220
0.0
230
1.0
  0
INSERT
  5
328
100
AcDbEntity
  8
0
100
AcDbBlockReference
  2
BLOCK3
 10
0.0
 20
0.0
 30
0.0
210
0.0
220
0.0
230
1.0
  0
INSERT
  5
329
100
AcDbEntity
  8
0
100
AcDbBlockReference
  2
BLOCK4
 10
0.0
 20
0.0
 30
0.0
210
0.0
220
0.0
230
1.0
  0
INSERT
  5
32A
100
AcDbEntity
  8
0
100
AcDbBlockReference
  2
BLOCK5
 10
0.0
 20
0.0
 30
0.0
210
0.0
220
0.0
230
1.0
  0
INSERT
  5
32B
100
AcDbEntity
  8
0
100
AcDbBlockReference
  2
BLOCK6
 10
0.0
 20
0.0
 30
0.0
210
0.0
220
0.0
230
1.0
  0
INSERT
  5
32C
100
AcDbEntity
  8
0
100
AcDbBlockReference
  2
BLOCK7
 10
0.0
 20
0.0
 30
0.0
210
0.0
220
0.0
230
1.0
  0
INSERT
  5
32D
100
AcDbEntity
  8
0
100
AcDbBlockReference
  2
BLOCK8
 10
0.0
 20
0.0
 30
0.0
210
0.0
220
0.0
230
1.0
  0
INSERT
  5
32E
100
AcDbEntity
  8
0
100
AcDbBlockReference
  2
BLOCK9
 10
0.0
 20
0.0
 30
0.0
210
0.0
220
0.0
230
1.0
  0
INSERT
  5
32F
100
AcDbEntity
  8
0
100
AcDbBlockReference
  2
BLOCK10
 10
0.0
 20
0.0
 30
0.0
210
0.0
220
0.0
230
1.0
  0
INSERT
  5
330
100
AcDbEntity
  8
0
100
AcDbBlockReference
  2
BLOCK11
 10
0.0
 20
0.0
 30
0.0
210
0.0
220
0.0
230
1.0
  0
INSERT
  5
331
100
AcDbEntity
  8
0
100
AcDbBlockReference
  2
BLOCK12
 10
0.0
 20
0.0
 30
0.0
210
0.0
220
0.0
230
1.0
  0
INSERT
  5
332
100
AcDbEntity
  8
0
100
AcDbBlockReference
  2
BLOCK13
 10
217.016128
 20
65.700118
 30
0.0
 41
0.5
 42
0.5
 43
0.5
210
0.0
220
0.0
230
1.0
  0
INSERT
  5
333
100
AcDbEntity
  8
0
100
AcDbBlockReference
  2
BLOCK14
 10
217.016128
 20
65.700118
 30
0.0
 41
0.5
 42
0.5
 43
0.5
210
0.0
220
0.0
230
1.0
  0
INSERT
  5
334
100
AcDbEntity
  8
0
100
AcDbBlockReference
  2
BLOCK15
 10
217.016128
 20
65.700118
 30
0.0
 41
0.5
 42
0.5
 43
0.5
210
0.0
220
0.0
230
1.0
  0
INSERT
  5
335
100
AcDbEntity
  8
0
100
AcDbBlockReference
  2
BLOCK16
 10
217.016128
 20
65.700118
 30
0.0
 41
0.5
 42
0.5
 43
0.5
210
0.0
220
0.0
230
1.0
  0
INSERT
  5
336
100
AcDbEntity
  8
0
100
AcDbBlockReference
  2
BLOCK17
 10
217.016128
 20
65.700118
 30
0.0
 41
0.5
 42
0.5
 43
0.5
210
0.0
220
0.0
230
1.0
  0
INSERT
  5
337
100
AcDbEntity
  8
0
100
AcDbBlockReference
  2
BLOCK18
 10
217.016128
 20
65.700118
 30
0.0
 41
0.5
 42
0.5
 43
0.5
210
0.0
220
0.0
230
1.0
  0
INSERT
  5
338
100
AcDbEntity
  8
0
100
AcDbBlockReference
  2
BLOCK19
 10
217.016128
 20
65.700118
 30
0.0
 41
0.5
 42
0.5
 43
0.5
210
0.0
220
0.0
230
1.0
  0
INSERT
  5
339
100
AcDbEntity
  8
0
100
AcDbBlockReference
  2
BLOCK20
 10
217.016128
 20
65.700118
 30
0.0
 41
0.5
 42
0.5
 43
0.5
210
0.0
220
0.0
230
1.0
  0
ENDSEC
  0
SECTION
  2
OBJECTS
  0
DICTIONARY
  5
19
100
AcDbDictionary
  3
ACAD_GROUP
350
1A
  3
ACAD_MLINESTYLE
350
1B
  0
DICTIONARY
  5
1A
102
{ACAD_REACTORS
330
19
102
}
100
AcDbDictionary
  0
DICTIONARY
  5
1B
102
{ACAD_REACTORS
330
19
102
}
100
AcDbDictionary
  3
STANDARD
350
1C
  0
MLINESTYLE
  5
1C
102
{ACAD_REACTORS
330
1B
102
}
100
AcDbMlineStyle
  2
STANDARD
 70
     0
  3

 62
     0
 51
90.0
 52
90.0
 71
     2
 49
0.5
 62
   256
  6
BYLAYER
 49
-0.5
 62
   256
  6
BYLAYER
  0
ENDSEC
  0
EOF
